<svg width="94" height="92" viewBox="0 0 94 92" fill="none" xmlns="http://www.w3.org/2000/svg">
<path d="M66.2584 44.2834C69.0028 38.5202 64.694 31.1978 56.6355 27.9276C48.577 24.6575 39.8129 26.6781 37.0656 32.4421C36.3069 34.0672 36.0587 35.8508 36.3528 37.5647C36.4078 37.9372 36.3476 38.3222 36.1796 38.6722L29.1416 53.4419C28.7246 54.3181 29.0013 55.2747 29.7519 55.5807L52.7258 64.9018C53.4794 65.2069 54.4276 64.7448 54.8446 63.8687L61.8826 49.0989C62.0479 48.7473 62.3151 48.4456 62.6507 48.2318C64.2175 47.2722 65.4735 45.8976 66.2584 44.2834Z" fill="#996D45"/>
<path d="M63.6141 43.3534C66.3614 37.5894 62.0527 30.267 53.9912 26.9977C45.9298 23.7284 37.1686 25.7482 34.4242 31.5114C33.6631 33.1361 33.4139 34.9204 33.7085 36.6348C33.7648 37.0072 33.7045 37.3926 33.5353 37.7423L26.504 52.525C26.0869 53.4012 26.3636 54.3578 27.1113 54.6646L50.0757 63.9736C50.8263 64.2795 51.7775 63.8166 52.1945 62.9404L59.2296 48.1715C59.3949 47.8199 59.6621 47.5182 59.9977 47.3044C61.5685 46.3459 62.8278 44.9701 63.6141 43.3534Z" fill="#A37644"/>
<path d="M62.4013 43.2348C64.9963 37.7836 61.0429 30.9112 53.5683 27.8637C46.0937 24.8161 37.9309 26.7945 35.333 32.2346C34.62 33.7586 34.3748 35.4291 34.6273 37.0415C34.6774 37.4086 34.6168 37.7868 34.4526 38.1315L27.8498 51.987C27.4327 52.8632 27.7094 53.8198 28.46 54.1257L49.56 62.6858C50.3135 62.9909 51.2618 62.5288 51.6788 61.6526L58.2787 47.798C58.4433 47.4523 58.7054 47.1547 59.0338 46.9407C60.4907 46.0296 61.6608 44.742 62.4013 43.2348Z" fill="#F9F2C7"/>
<path d="M40.8096 35.0706C40.244 38.4093 33.6799 37.342 35.4776 41.3213C37.229 45.1975 35.0609 45.3966 34.9829 46.6139C34.6832 51.211 40.2109 57.0821 44.7505 52.0908C50.3405 45.9477 57.712 48.4784 58.2184 45.5661C58.7248 42.6538 63.1302 37.0172 56.1826 34.6628C54.0153 33.9327 42.5516 24.7519 40.8096 35.0706Z" fill="white"/>
<path d="M45.7156 45.5093C47.6425 44.9528 48.8091 43.0163 48.3213 41.1841C47.8335 39.352 45.876 38.3179 43.9491 38.8744C42.0222 39.431 40.8556 41.3675 41.3434 43.1996C41.8311 45.0318 43.7886 46.0659 45.7156 45.5093Z" fill="#F4DB24"/>
<path d="M47.2684 40.1201C47.689 40.614 47.8192 41.1858 47.5556 41.3993C47.292 41.6128 47.319 40.912 46.8985 40.4182C46.478 39.9243 45.7638 39.8259 46.0274 39.6124C46.291 39.3988 46.8479 39.6263 47.2684 40.1201Z" fill="#F9F3E2"/>
</svg>
