<svg width="80" height="72" viewBox="0 0 80 72" fill="none" xmlns="http://www.w3.org/2000/svg">
<path d="M26.6193 21.2213L62.0036 31.8788L6.76794 36.1556L26.6193 21.2213Z" fill="#5F3D16"/>
<path d="M6.93837 39.3173L61.8587 35.1567L62.0035 31.8788L6.76782 36.1556L6.93837 39.3173Z" fill="#4C3016"/>
<path d="M7.23444 44.6286L61.6433 40.5043L61.7844 37.2258L7.06077 41.463L7.23444 44.6286Z" fill="#4C3016"/>
<path d="M7.08431 42.0174L61.7297 37.8756L61.8718 34.8486L6.91436 38.8523L7.08431 42.0174Z" fill="#372413"/>
<path d="M7.42403 49.8282L61.4138 45.7363L61.5543 42.4612L7.25406 46.6632L7.42403 49.8282Z" fill="#4C3016"/>
<path d="M7.2776 47.2175L61.5002 43.1076L61.6386 40.0801L7.10392 44.0519L7.2776 47.2175Z" fill="#372413"/>
<path d="M25.3049 24.8571C24.3299 24.8746 23.6268 24.7627 23.6262 23.5436C23.6355 22.0332 26.0741 19.9235 26.0741 19.9235L26.1404 19.9813C25.8809 20.3846 24.4268 22.702 24.792 24.022C24.8532 24.3445 25.034 24.6389 25.3049 24.8571Z" fill="#7F6656"/>
<path d="M28.4767 23.4422C28.5085 23.7935 28.4027 24.1436 28.1777 24.4321C27.8865 24.7343 27.4026 24.809 26.8257 24.8255C26.5761 24.8308 26.3127 24.8272 26.0582 24.8386C25.8036 24.85 25.5428 24.8536 25.2894 24.8583C25.02 24.6397 24.8406 24.3456 24.7802 24.0237C24.415 22.7038 25.868 20.3931 26.1286 19.9831C26.5389 20.3213 28.4975 22.0816 28.4767 23.4422Z" fill="#9B816F"/>
<path d="M23.2086 26.5273C22.2331 26.5482 21.5299 26.4362 21.5293 25.2171C21.5348 23.7062 23.9735 21.5965 23.9735 21.5965L24.0435 21.6548C23.7809 22.0542 22.3262 24.375 22.6957 25.6922C22.7552 26.0153 22.9363 26.3101 23.2086 26.5273Z" fill="#7F6656"/>
<path d="M26.3929 25.128C26.4256 25.4793 26.3198 25.8298 26.0939 26.1178C25.8064 26.4207 25.3231 26.492 24.7425 26.508L23.9749 26.521C23.7135 26.528 23.4627 26.54 23.2062 26.5408C22.9369 26.3228 22.7585 26.0285 22.7007 25.7067C22.3312 24.3895 23.7847 22.0755 24.0485 21.6694C24.4395 22.0083 26.4019 23.7691 26.3929 25.128Z" fill="#9B816F"/>
<path d="M20.3318 28.7976C19.2879 28.8154 18.5363 28.6965 18.5426 27.3958C18.5487 25.7747 21.1478 23.516 21.1478 23.516L21.2209 23.5782C20.9418 24.0062 19.3856 26.488 19.78 27.9017C19.8444 28.2484 20.0392 28.5647 20.3318 28.7976Z" fill="#7F6656"/>
<path d="M23.7454 27.2936C23.7792 27.6696 23.6649 28.0444 23.4227 28.3523C23.11 28.6893 22.5862 28.7514 21.9777 28.7737C21.7126 28.7801 21.43 28.7771 21.1344 28.7826L20.3303 28.8076C20.0421 28.5736 19.8514 28.2582 19.7896 27.9134C19.3952 26.4996 20.9514 24.0179 21.2305 23.5899C21.6533 23.9437 23.7544 25.8279 23.7454 27.2936Z" fill="#9B816F"/>
<path d="M17.5556 31.0409C16.4962 31.06 15.7296 30.9389 15.7364 29.6141C15.7461 27.973 18.3972 25.6805 18.3972 25.6805L18.4703 25.7427C18.1856 26.1802 16.6036 28.6995 17.0062 30.1316C17.0685 30.4824 17.2624 30.8033 17.5556 31.0409Z" fill="#7F6656"/>
<path d="M21.036 29.5054C21.0685 29.8869 20.9534 30.2669 20.7103 30.5809C20.3933 30.9207 19.872 30.99 19.2417 31.0057L18.3866 31.0164L17.5707 31.0431C17.2775 30.8055 17.0835 30.4846 17.0212 30.1339C16.6193 28.6984 18.2025 26.1723 18.4853 25.7449C18.9095 26.1126 21.0431 28.0291 21.036 29.5054Z" fill="#9B816F"/>
<path d="M14.9002 33.0573C13.8134 33.0794 13.0058 32.9523 13.0341 31.5928C13.0404 29.9064 15.7644 27.5486 15.7644 27.5486L15.8406 27.6147C15.5504 28.0618 13.9254 30.6506 14.3357 32.1252C14.4009 32.4846 14.6 32.8133 14.9002 33.0573Z" fill="#7F6656"/>
<path d="M18.4572 31.4777C18.493 31.87 18.3744 32.2612 18.1223 32.5829C17.7992 32.9356 17.2593 33.0022 16.6135 33.0191C16.3366 33.0273 16.0422 33.0261 15.7354 33.03L14.8965 33.0568C14.5963 32.8127 14.3973 32.484 14.332 32.1247C13.9217 30.6501 15.5467 28.0612 15.8369 27.6142C16.2748 27.9908 18.4616 29.9735 18.4572 31.4777Z" fill="#9B816F"/>
<path d="M11.9492 34.9725C10.7972 34.9954 9.95234 34.863 9.95831 33.4141C9.96881 31.6181 12.8651 29.1096 12.8651 29.1096L12.9481 29.1802C12.6376 29.6553 10.9063 32.4113 11.3265 33.9803C11.4011 34.3656 11.621 34.716 11.9492 34.9725Z" fill="#7F6656"/>
<path d="M15.7347 33.2916C15.7743 33.7097 15.6484 34.127 15.3791 34.4696C15.0332 34.8431 14.4616 34.9155 13.7673 34.9254C13.4712 34.9342 13.1581 34.9303 12.8315 34.9382C12.5048 34.9461 12.2192 34.9599 11.9429 34.9647C11.6282 34.705 11.4205 34.357 11.3538 33.9774C10.9149 32.4057 12.6463 29.6497 12.9754 29.1773C13.411 29.5881 15.7433 31.6778 15.7347 33.2916Z" fill="#9B816F"/>
</svg>
