<svg width="77" height="81" viewBox="0 0 77 81" fill="none" xmlns="http://www.w3.org/2000/svg">
<g clip-path="url(#clip0_153_1929)" filter="url(#filter0_d_153_1929)">
<path d="M12.9764 36.4612C12.9764 36.4089 12.9764 36.3572 12.9764 36.3061C12.9764 35.4342 13.409 34.5945 14.2074 33.81H14.2325C14.4106 33.8003 14.5885 33.8326 14.7536 33.9045C14.8149 33.9348 14.8679 33.9815 14.9073 34.04C14.9549 34.1141 14.9805 34.2017 14.9808 34.2914C15.0008 34.8548 14.4045 35.8496 14.2625 36.9657C14.2625 36.9978 14.2542 37.0299 14.2509 37.0638C14.2389 37.1822 14.2327 37.3012 14.2325 37.4204C14.2497 37.9693 14.363 38.5099 14.5666 39.0142L14.625 39.1694L14.5498 39.1052C14.5148 39.0766 14.4814 39.0463 14.448 39.016L14.3494 38.9269L14.2559 38.8377C14.1941 38.7789 14.1323 38.7183 14.0755 38.6595C14.0187 38.6006 13.9736 38.5489 13.9251 38.4936C13.7459 38.293 13.5843 38.0752 13.4424 37.8429L13.4006 37.7716C13.3385 37.6649 13.2827 37.5541 13.2336 37.44C13.2086 37.3829 13.1852 37.3259 13.1635 37.2617C13.1518 37.2296 13.1401 37.1975 13.1301 37.1654C13.12 37.1333 13.1083 37.0994 13.0983 37.0674C13.0564 36.9247 13.0257 36.7786 13.0064 36.6305C13.0064 36.6038 13.0064 36.5788 13.0064 36.5521C13.0064 36.5254 13.0064 36.5004 13.0064 36.4754C13.0072 36.4707 13.0072 36.4659 13.0064 36.4612H12.9764Z" fill="#BF4E49"/>
<path d="M14.8805 39.879C15.0676 40.4352 15.3816 41.8401 14.5615 41.8401C14.3226 41.8401 14.0203 41.8401 13.6795 41.8401C11.6267 41.8098 7.8333 40.191 8.12729 37.2047V37.0264C8.39454 39.3138 11.331 40.0127 13.2185 40.0573C13.611 40.0573 13.9585 40.0573 14.2207 40.0573C14.5715 40.0501 14.7753 39.9913 14.8805 39.879Z" fill="#353535"/>
<path d="M60.5713 36.4611C60.5713 36.4611 60.5713 36.4772 60.5713 36.4843C60.5713 36.4914 60.5713 36.536 60.5713 36.561C60.5713 36.5859 60.5713 36.6127 60.5713 36.6394C60.552 36.7875 60.5213 36.9336 60.4794 37.0762C60.4694 37.1083 60.4594 37.1404 60.4477 37.1743C60.436 37.2082 60.426 37.2385 60.4143 37.2706C60.3926 37.3294 60.3692 37.3865 60.3441 37.4489C60.295 37.563 60.2392 37.6738 60.1771 37.7805L60.1353 37.8518C59.9935 38.084 59.8319 38.3019 59.6526 38.5025C59.6036 38.5584 59.5535 38.6137 59.5023 38.6683C59.4455 38.729 59.3837 38.7896 59.3219 38.8466L59.2283 38.9358L59.1298 39.0249C59.0964 39.0552 59.063 39.0855 59.0279 39.1141L58.906 39.2175L58.7974 39.3048C58.6888 39.3922 58.5736 39.4831 58.455 39.5651L58.2529 39.706C58.0407 39.8522 57.8152 39.9966 57.5847 40.1356L57.4444 40.2177C56.0401 40.9868 54.5652 41.5992 53.043 42.0451C52.8276 42.1111 52.6087 42.1752 52.3849 42.2394L52.2279 42.284L51.9239 42.3678C51.7285 42.4213 51.5297 42.473 51.3293 42.5247C50.8883 42.6352 50.4373 42.7422 49.9729 42.8456L49.7825 42.8848C49.3716 42.974 48.9518 43.0584 48.5231 43.138C48.3076 43.179 48.0921 43.2182 47.8733 43.2557L47.5025 43.3181C47.3355 43.3466 47.1684 43.3716 47.0014 43.3983C46.6874 43.4482 46.37 43.4952 46.0493 43.5391C45.448 43.6235 44.8355 43.699 44.2119 43.7656C43.9547 43.7941 43.6958 43.8208 43.4335 43.8458C42.5883 43.926 41.7231 43.992 40.8428 44.0419C40.3233 44.0704 39.7972 44.0954 39.266 44.1132H39.1558C38.7833 44.1239 38.4074 44.1346 38.0299 44.14C37.6224 44.1471 37.212 44.1507 36.7989 44.1507C36.3858 44.1507 35.9754 44.1471 35.5678 44.14C35.1903 44.14 34.8145 44.1239 34.442 44.1132H34.3318C33.8006 44.0954 33.2745 44.0704 32.755 44.0419L32.0568 43.9991L31.873 43.9866L31.4939 43.9581L31.1698 43.9332L30.9376 43.9135L30.1726 43.8458C29.9104 43.8208 29.6515 43.7941 29.3942 43.7656L29.127 43.737L28.7278 43.6907L28.4739 43.6604H28.4355L28.1983 43.6301H28.1532L27.7289 43.573L27.5268 43.5463L27.0942 43.4839L26.5747 43.4054L26.3375 43.368L26.0803 43.3252L25.7094 43.2628C25.4906 43.2254 25.2752 43.1861 25.0597 43.1451C24.6298 43.0655 24.21 42.9811 23.8002 42.892L23.6098 42.8527C23.1455 42.7493 22.6945 42.6424 22.2535 42.5318C22.053 42.4801 21.8543 42.4284 21.6588 42.3749L21.3548 42.2911L21.1978 42.2466C20.974 42.1824 20.7552 42.1182 20.5397 42.0522C19.0132 41.6037 17.5343 40.9877 16.1266 40.2141L15.9863 40.1321C15.7475 39.993 15.522 39.8486 15.3182 39.7024L15.1161 39.5616L14.9641 39.451C14.8989 39.4029 14.8355 39.353 14.7737 39.303L14.6651 39.2157L14.6183 39.1765L14.5432 39.1123C14.5081 39.0837 14.4747 39.0534 14.4413 39.0231L14.3427 38.934L14.2492 38.8448C14.1874 38.786 14.1256 38.7254 14.0688 38.6666C14.012 38.6077 13.9669 38.556 13.9184 38.5007C13.7392 38.3001 13.5776 38.0823 13.4357 37.85L13.394 37.7787C13.3318 37.672 13.2761 37.5612 13.2269 37.4471C13.2019 37.39 13.1785 37.333 13.1568 37.2688C13.1451 37.2367 13.1334 37.2046 13.1234 37.1725C13.1133 37.1404 13.1016 37.1065 13.0916 37.0744C13.0497 36.9318 13.019 36.7857 12.9998 36.6376C12.9998 36.6109 12.9998 36.5859 12.9998 36.5592C12.9998 36.5325 12.9998 36.5075 12.9998 36.4825C13.0005 36.4778 13.0005 36.473 12.9998 36.4683C13.0616 35.2399 13.6846 34.4304 14.772 33.9116C14.8388 33.8813 14.9073 33.8492 14.9791 33.8207C15.2441 33.7062 15.5159 33.6104 15.7926 33.5337C19.8014 32.4497 27.6988 33.6353 36.7788 33.6353C45.8589 33.6353 53.7479 32.4461 57.7601 33.5337C59.4856 33.9972 60.4928 34.8833 60.5713 36.4611Z" fill="#353535"/>
<path d="M60.5762 36.3061C60.5762 36.3584 60.5762 36.4101 60.5762 36.4612C60.5762 36.4612 60.5762 36.4772 60.5762 36.4844H59.407C59.4156 36.4021 59.4201 36.3193 59.4203 36.2365C59.4203 35.2791 58.8357 34.3663 57.7734 33.5301C54.416 30.8861 46.2847 29.0212 36.7871 29.0212C27.2895 29.0212 19.1449 30.8861 15.7925 33.5337C15.5002 33.7599 15.2285 34.0148 14.9807 34.295C14.8829 34.4025 14.7919 34.5169 14.7084 34.6373C14.358 35.0899 14.1598 35.6549 14.1455 36.2419C14.1457 36.3247 14.1502 36.4074 14.1589 36.4897H12.9896C12.9903 36.485 12.9903 36.4802 12.9896 36.4754C12.9896 36.4231 12.9896 36.3714 12.9896 36.3203C12.9896 35.4485 13.4222 34.6088 14.2207 33.8243C14.4226 33.6266 14.6351 33.4414 14.8571 33.2698C18.4684 30.4529 26.9304 28.4757 36.7921 28.4757C49.9194 28.4614 60.5762 31.9737 60.5762 36.3061Z" fill="#444444"/>
<path d="M36.2727 55.5611C47.6657 55.5611 56.9015 53.5256 56.9015 51.0148C56.9015 48.5039 47.6657 46.4684 36.2727 46.4684C24.8797 46.4684 15.6439 48.5039 15.6439 51.0148C15.6439 53.5256 24.8797 55.5611 36.2727 55.5611Z" fill="#CECECE"/>
<path d="M36.7738 43.4482C49.2738 43.4482 59.407 40.2187 59.407 36.2347C59.407 32.2508 49.2738 29.0212 36.7738 29.0212C24.2738 29.0212 14.1406 32.2508 14.1406 36.2347C14.1406 40.2187 24.2738 43.4482 36.7738 43.4482Z" fill="#C6C6C6"/>
<path d="M14.1539 36.4843C14.1539 36.4843 23.2707 33.2627 25.4989 32.9186C27.7272 32.5745 36.1424 33.17 37.3584 32.7403C38.5744 32.3106 44.5325 32.8811 49.2179 33.6317C50.9768 33.9134 59.407 34.204 59.407 36.2347C59.407 38.2654 58.3547 45.3184 36.1708 43.5748C13.9869 41.8312 15.1695 41.8329 14.1539 36.4843Z" fill="#47201A"/>
<path d="M31.1464 34.6694C31.1464 35.6161 28.8413 36.4843 26.5212 36.4843C24.2011 36.4843 22.7445 35.6161 22.7445 34.6694C22.7445 33.9562 23.8303 32.6957 25.3703 32.1341C25.7143 32.0068 26.0707 31.9213 26.4327 31.8792C26.5802 31.8609 26.7285 31.8508 26.877 31.8489H26.9455C27.1375 31.8486 27.3294 31.8611 27.5201 31.8863C29.5696 32.1573 31.1464 33.8029 31.1464 34.6694Z" fill="#4F2518"/>
<path d="M27.5201 31.8863C27.4748 32.1013 27.4111 32.3114 27.3297 32.5139C27.206 32.8259 27.0626 33.1285 26.9004 33.4196C26.3692 34.3752 25.681 35.149 25.4823 34.5695C25.3269 34.1114 25.6376 33.4642 26.0569 32.8616C26.2587 32.5753 26.4757 32.3015 26.7066 32.0414C26.7634 31.9737 26.8191 31.9095 26.8737 31.8489H26.9421C27.1353 31.8485 27.3284 31.861 27.5201 31.8863Z" fill="#F4F4F4"/>
<path d="M28.6225 33.835C28.3887 34.0846 27.6303 33.835 26.9004 33.4196C26.6096 33.2556 26.3305 33.0691 26.0652 32.8616C25.7923 32.6716 25.5587 32.4241 25.3787 32.1342C25.7227 32.0068 26.0791 31.9213 26.441 31.8792C26.5349 31.9282 26.6264 31.9823 26.715 32.0415C26.9317 32.1848 27.1398 32.3426 27.338 32.5139C27.7962 32.9198 28.2255 33.3614 28.6225 33.835Z" fill="#F4F4F4"/>
<path d="M37.173 19.8198C36.6368 22.4104 34.5138 21.4458 34.3501 23.7047C34.1864 25.9636 31.7176 23.678 31.8679 26.0688C32.0183 28.4596 30.8206 27.6199 30.9175 29.0212C31.0144 30.4226 31.3267 32.1395 31.3267 32.1395C31.3267 32.1395 29.8368 35.5163 30.0072 36.7126C30.1775 37.9089 29.8836 39.3869 29.613 40.4352C29.3424 41.4835 30.069 42.3536 30.069 42.3536C30.069 42.3536 31.0845 39.895 31.9682 37.7431C32.8518 35.5911 32.1352 31.8275 34.4135 30.7685C36.6919 29.7094 39.6584 29.7701 39.3444 26.6197C39.0304 23.4694 41.0365 20.9734 41.5376 20.0819C42.0387 19.1905 40.4552 17.8444 40.4552 17.8444C40.4552 17.8444 37.482 18.3098 37.173 19.8198Z" fill="#0E5110"/>
<path d="M37.9799 22.3123C37.9799 22.3123 32.6832 28.5149 32.5145 31.6082C32.3458 34.7015 32.0568 36.6003 32.0568 36.6003C32.0568 36.6003 33.8942 29.7112 34.878 28.0211C35.8619 26.3309 37.9799 22.3123 37.9799 22.3123Z" fill="#377C37"/>
<path d="M39.2409 23.4284C39.0738 26.0742 36.8356 25.4537 36.9859 27.7073C37.1362 29.9608 34.3785 28.0942 34.8562 30.4369C35.3339 32.7796 34.0361 32.1342 34.325 33.5052C34.614 34.8762 35.1602 36.5254 35.1602 36.5254C35.1602 36.5254 34.158 40.1 34.4921 41.2571C34.8261 42.4142 34.7393 43.9314 34.6157 45.0011C34.4921 46.0709 35.3322 46.8268 35.3322 46.8268C35.3322 46.8268 36.0004 44.2345 36.5733 41.9685C37.1462 39.7024 35.9219 36.085 38.0299 34.6837C40.1378 33.2823 43.0793 32.8723 42.3343 29.8039C41.5894 26.7356 43.228 23.9526 43.6005 22.9934C43.973 22.0342 42.2258 20.9502 42.2258 20.9502C42.2258 20.9502 39.3444 21.8862 39.2409 23.4284Z" fill="#0E5110"/>
<path d="M40.3867 25.7657C40.3867 25.7657 36.0037 32.7332 36.2643 35.8194C36.5248 38.9055 36.5048 40.8203 36.5048 40.8203C36.5048 40.8203 37.3734 33.712 38.1067 31.8917C38.8399 30.0714 40.3867 25.7657 40.3867 25.7657Z" fill="#377C37"/>
<path d="M42.144 26.4503C42.002 28.6361 40.1579 28.1245 40.2832 29.9911C40.4085 31.8578 38.1301 30.3103 38.5243 32.2447C38.9185 34.1791 37.8412 33.646 38.085 34.7817C38.3289 35.9174 38.7732 37.2777 38.7732 37.2777C38.7732 37.2777 37.938 40.2284 38.2187 41.184C38.4993 42.1396 38.4224 43.3912 38.3206 44.2755C38.2187 45.1598 38.9102 45.7838 38.9102 45.7838C38.9102 45.7838 39.4597 43.6444 39.9375 41.7706C40.4152 39.8968 39.3979 36.9176 41.1384 35.7569C42.8789 34.5963 45.3143 34.2611 44.6929 31.7276C44.0716 29.1942 45.4312 26.8961 45.7386 26.1027C46.0459 25.3093 44.6027 24.4161 44.6027 24.4161C44.6027 24.4161 42.2275 25.1774 42.144 26.4503Z" fill="#0E5110"/>
<path d="M43.0909 28.3829C43.0909 28.3829 39.4713 34.1345 39.6868 36.6822C39.9022 39.2299 39.8805 40.8131 39.8805 40.8131C39.8805 40.8131 40.6021 34.9475 41.2068 33.4392C41.8115 31.9309 43.0909 28.3829 43.0909 28.3829Z" fill="#377C37"/>
<path d="M45.4212 22.7152C45.2541 25.361 43.0159 24.7405 43.1662 26.9941C43.3165 29.2476 40.5588 27.381 41.0365 29.7237C41.5142 32.0664 40.2164 31.421 40.5053 32.792C40.7943 34.163 41.3405 35.8122 41.3405 35.8122C41.3405 35.8122 40.3383 39.3868 40.6724 40.5439C41.0064 41.701 40.9196 43.2182 40.796 44.288C40.6724 45.3577 41.5125 46.1136 41.5125 46.1136C41.5125 46.1136 42.1807 43.5213 42.7536 41.2553C43.3265 38.9893 42.1022 35.3718 44.2102 33.9705C46.3181 32.5691 49.2596 32.1591 48.5147 29.0907C47.7697 26.0224 49.4083 23.2394 49.7808 22.2802C50.1533 21.321 48.4061 20.237 48.4061 20.237C48.4061 20.237 45.5247 21.173 45.4212 22.7152Z" fill="#0E5110"/>
<path d="M46.567 25.0526C46.567 25.0526 42.1839 32.02 42.4445 35.1062C42.7051 38.1923 42.6851 40.1071 42.6851 40.1071C42.6851 40.1071 43.5536 32.9988 44.2869 31.1785C45.0202 29.3582 46.567 25.0526 46.567 25.0526Z" fill="#377C37"/>
<path d="M48.3243 25.7372C48.1823 27.923 46.3382 27.4113 46.4635 29.278C46.5888 31.1446 44.3104 29.5971 44.7046 31.5315C45.0988 33.4659 44.0215 32.9329 44.2653 34.0686C44.5092 35.2042 44.9535 36.5646 44.9535 36.5646C44.9535 36.5646 44.1183 39.5152 44.399 40.4709C44.6796 41.4265 44.6027 42.678 44.5008 43.5624C44.399 44.4467 45.0905 45.0707 45.0905 45.0707C45.0905 45.0707 45.64 42.9312 46.1177 41.0574C46.5955 39.1836 45.5782 36.2044 47.3187 35.0438C49.0592 33.8831 51.4946 33.548 50.8732 31.0145C50.2519 28.481 51.6115 26.1829 51.9189 25.3895C52.2262 24.5962 50.783 23.7029 50.783 23.7029C50.783 23.7029 48.4078 24.4642 48.3243 25.7372Z" fill="#0E5110"/>
<path d="M49.2713 27.6698C49.2713 27.6698 45.6517 33.4213 45.8672 35.9691C46.0826 38.5168 46.0609 40.1 46.0609 40.1C46.0609 40.1 46.7825 34.2343 47.3872 32.726C47.9918 31.2177 49.2713 27.6698 49.2713 27.6698Z" fill="#377C37"/>
<path d="M31.3752 24.5516C31.4938 26.8818 33.4632 26.3719 33.2995 28.3634C33.1358 30.3548 35.5862 28.7449 35.1369 30.797C34.6875 32.8491 35.8351 32.3035 35.5611 33.5052C35.2872 34.7068 34.7861 36.1492 34.7861 36.1492C34.7861 36.1492 35.6213 39.3084 35.3122 40.3193C35.0032 41.3302 35.0583 42.6656 35.1452 43.6105C35.2321 44.5554 34.4904 45.2151 34.4904 45.2151C34.4904 45.2151 33.9409 42.9241 33.4648 40.9219C32.9888 38.9198 34.1196 35.7623 32.2856 34.4929C30.4515 33.2235 27.8742 32.8027 28.5707 30.1177C29.2672 27.4327 27.8675 24.9563 27.5518 24.1059C27.2361 23.2554 28.7895 22.323 28.7895 22.323C28.7895 22.323 31.3067 23.193 31.3752 24.5516Z" fill="#0E5110"/>
<path d="M30.3347 26.5894C30.3347 26.5894 34.0929 32.7867 33.8207 35.5038C33.5484 38.2209 33.5467 39.8986 33.5467 39.8986C33.5467 39.8986 32.8786 33.6371 32.2556 32.02C31.6325 30.403 30.3347 26.5894 30.3347 26.5894Z" fill="#377C37"/>
<path d="M35.2754 43.8743C35.2754 43.8743 39.149 34.5552 40.4535 33.4463" stroke="#EFE6DA" stroke-width="1.62984" stroke-miterlimit="10"/>
<path d="M40.8594 33.826C40.7625 34.0489 40.4819 33.9348 40.1478 33.769C39.8137 33.6032 39.5498 33.4481 39.6467 33.2341C39.7436 33.0202 40.0944 32.9649 40.4301 33.1307C40.7658 33.2965 40.9563 33.6032 40.8594 33.826Z" fill="#EFE6DA"/>
<path d="M36.231 45.5841C36.231 45.5841 39.2376 35.9103 40.4403 34.6694" stroke="#EFE6DA" stroke-width="1.62984" stroke-miterlimit="10"/>
<path d="M40.8761 35.0117C40.7993 35.2452 40.5103 35.1579 40.1629 35.0277C39.8155 34.8976 39.5399 34.771 39.615 34.5392C39.6902 34.3074 40.0359 34.2254 40.3851 34.3609C40.7342 34.4964 40.953 34.7817 40.8761 35.0117Z" fill="#EFE6DA"/>
<path d="M34.3034 44.944C34.3034 44.944 37.31 35.2702 38.511 34.0293" stroke="#EFE6DA" stroke-width="1.62984" stroke-miterlimit="10"/>
<path d="M38.9486 34.3734C38.8717 34.607 38.5828 34.5214 38.2353 34.3894C37.8879 34.2575 37.6106 34.1345 37.6875 33.9009C37.7643 33.6674 38.1084 33.5871 38.4558 33.7226C38.8032 33.8581 39.0254 34.1416 38.9486 34.3734Z" fill="#EFE6DA"/>
<path d="M36.2743 47.3759C36.2743 47.3759 39.281 37.7003 40.4836 36.4612" stroke="#EFE6DA" stroke-width="1.62984" stroke-miterlimit="10"/>
<path d="M40.9213 36.8035C40.8445 37.0353 40.5555 36.9497 40.2064 36.8195C39.8573 36.6894 39.5834 36.5628 39.6602 36.331C39.737 36.0993 40.0811 36.0155 40.4286 36.1527C40.776 36.29 40.9965 36.5646 40.9213 36.8035Z" fill="#EFE6DA"/>
<path d="M37.0193 46.5487C37.0193 46.5487 40.0259 36.8748 41.2286 35.6339" stroke="#EFE6DA" stroke-width="1.62984" stroke-miterlimit="10"/>
<path d="M41.6646 35.9834C41.5895 36.2169 41.3005 36.1296 40.9514 35.9994C40.6023 35.8693 40.3284 35.7427 40.4052 35.5109C40.482 35.2791 40.8244 35.1971 41.1736 35.3326C41.5227 35.4681 41.7415 35.7516 41.6646 35.9834Z" fill="#EFE6DA"/>
<path d="M33.8457 43.9296C33.8457 43.9296 36.8523 34.2558 38.055 33.0149" stroke="#EFE6DA" stroke-width="1.62984" stroke-miterlimit="10"/>
<path d="M38.4908 33.3554C38.4156 33.5889 38.1266 33.5016 37.7775 33.3714C37.4284 33.2413 37.1545 33.1165 37.2297 32.8829C37.3048 32.6494 37.6506 32.5691 37.9997 32.7046C38.3488 32.8401 38.5676 33.1254 38.4908 33.3554Z" fill="#EFE6DA"/>
<path d="M36.8122 45.0689C36.8122 45.0689 40.6857 35.7516 41.9902 34.6409" stroke="#EFE6DA" stroke-width="1.62984" stroke-miterlimit="10"/>
<path d="M42.3961 35.0278C42.2992 35.2506 42.0186 35.1365 41.6845 34.9707C41.3504 34.8049 41.0865 34.6498 41.1834 34.4359C41.2803 34.2219 41.631 34.1666 41.9651 34.3324C42.2992 34.4983 42.493 34.8049 42.3961 35.0278Z" fill="#EFE6DA"/>
<path d="M35.0499 44.6107C35.0499 44.6107 38.1785 34.9832 39.3928 33.7548" stroke="#EFE6DA" stroke-width="1.62984" stroke-miterlimit="10"/>
<path d="M39.8255 34.1042C39.747 34.336 39.4581 34.245 39.1123 34.1042C38.7666 33.9633 38.4909 33.8403 38.5711 33.6086C38.6513 33.3768 38.9954 33.3001 39.3411 33.4303C39.6869 33.5604 39.9041 33.8724 39.8255 34.1042Z" fill="#EFE6DA"/>
<path d="M36.6718 45.6697C36.6718 45.6697 39.8003 36.0422 41.0147 34.8138" stroke="#EFE6DA" stroke-width="1.62984" stroke-miterlimit="10"/>
<path d="M41.4508 35.1632C41.3723 35.395 41.0833 35.3041 40.7375 35.1632C40.3918 35.0224 40.1162 34.8994 40.1963 34.6676C40.2765 34.4358 40.6206 34.3591 40.9664 34.4893C41.3121 34.6194 41.5309 34.9314 41.4508 35.1632Z" fill="#EFE6DA"/>
<path d="M35.2988 46.2492C35.2988 46.2492 38.3054 36.5753 39.5081 35.3344" stroke="#EFE6DA" stroke-width="1.62984" stroke-miterlimit="10"/>
<path d="M39.9458 35.6731C39.869 35.9067 39.58 35.8193 39.2309 35.6892C38.8818 35.559 38.6079 35.4324 38.6847 35.2007C38.7615 34.9689 39.1056 34.8869 39.4531 35.0224C39.8005 35.1579 40.021 35.4449 39.9458 35.6731Z" fill="#EFE6DA"/>
<path d="M34.8912 46.3953C34.8912 46.3953 36.9791 36.4807 38.0649 35.1133" stroke="#EFE6DA" stroke-width="1.62984" stroke-miterlimit="10"/>
<path d="M38.5377 35.4004C38.4826 35.6393 38.1852 35.5893 37.8211 35.5002C37.457 35.4111 37.1697 35.3219 37.2231 35.083C37.2766 34.8441 37.6157 34.7264 37.9798 34.8102C38.3439 34.894 38.5928 35.1632 38.5377 35.4004Z" fill="#EFE6DA"/>
<path d="M33.393 45.7892C33.393 45.7892 36.3996 36.1135 37.6006 34.8726" stroke="#EFE6DA" stroke-width="1.62984" stroke-miterlimit="10"/>
<path d="M38.0383 35.2167C37.9615 35.4485 37.6725 35.3629 37.3251 35.2327C36.9776 35.1026 36.7003 34.976 36.7772 34.7442C36.854 34.5125 37.1981 34.4287 37.5455 34.5659C37.893 34.7032 38.1151 34.9831 38.0383 35.2167Z" fill="#EFE6DA"/>
<path d="M34.1178 46.0441C34.1178 46.0441 36.2058 36.1295 37.2915 34.7639" stroke="#EFE6DA" stroke-width="1.62984" stroke-miterlimit="10"/>
<path d="M37.7642 35.0509C37.7108 35.288 37.4118 35.2292 37.0493 35.1507C36.6869 35.0723 36.3962 34.9725 36.4513 34.7318C36.5065 34.4911 36.8439 34.3752 37.2063 34.459C37.5688 34.5428 37.8194 34.812 37.7642 35.0509Z" fill="#EFE6DA"/>
<path d="M34.2031 46.9373C34.2031 46.9373 37.2097 37.2617 38.4107 36.0226" stroke="#EFE6DA" stroke-width="1.62984" stroke-miterlimit="10"/>
<path d="M38.8434 36.3649C38.7665 36.5967 38.4776 36.5111 38.1301 36.3809C37.7827 36.2508 37.5054 36.1242 37.5823 35.8924C37.6591 35.6607 38.0032 35.5769 38.3506 35.7141C38.698 35.8514 38.9252 36.1331 38.8434 36.3649Z" fill="#EFE6DA"/>
<path d="M33.7888 46.3008C33.7888 46.3008 35.2136 36.2223 34.6708 34.5339" stroke="#EFE6DA" stroke-width="1.62984" stroke-miterlimit="10"/>
<path d="M34.1363 34.6302C34.1062 34.8744 34.4002 34.9368 34.766 34.9867C35.1318 35.0366 35.4341 35.0598 35.4609 34.8084C35.4876 34.5571 35.2187 34.3253 34.8529 34.2736C34.487 34.2219 34.1663 34.3859 34.1363 34.6302Z" fill="#EFE6DA"/>
<path d="M34.2232 45.7035C34.2232 45.7035 35.648 35.6232 35.1051 33.9366" stroke="#EFE6DA" stroke-width="1.62984" stroke-miterlimit="10"/>
<path d="M34.5705 34.0312C34.5405 34.2754 34.8328 34.3396 35.1986 34.3877C35.5644 34.4359 35.8667 34.4608 35.8951 34.2094C35.9235 33.9581 35.6529 33.7263 35.2871 33.6746C34.9213 33.6229 34.6006 33.7869 34.5705 34.0312Z" fill="#EFE6DA"/>
<path d="M35.0116 46.6752C35.0116 46.6752 36.4364 36.5949 35.8936 34.9083" stroke="#EFE6DA" stroke-width="1.62984" stroke-miterlimit="10"/>
<path d="M35.359 35.0028C35.3289 35.247 35.6229 35.3112 35.9887 35.3593C36.3545 35.4075 36.6569 35.4324 36.6836 35.1811C36.7103 34.9297 36.443 34.6979 36.0772 34.6462C35.7114 34.5945 35.3891 34.7585 35.359 35.0028Z" fill="#EFE6DA"/>
<path d="M33.6653 45.0279C33.6653 45.0279 35.7516 35.1133 36.839 33.7458" stroke="#EFE6DA" stroke-width="1.62984" stroke-miterlimit="10"/>
<path d="M37.3082 34.0347C37.2531 34.2718 36.9541 34.213 36.5916 34.1345C36.2292 34.0561 35.9385 33.9562 35.9936 33.7155C36.0488 33.4749 36.3862 33.359 36.7486 33.4428C37.1111 33.5266 37.3617 33.7958 37.3082 34.0347Z" fill="#EFE6DA"/>
<path d="M31.7678 41.2001C31.7678 41.2001 35.6413 31.881 36.9458 30.772" stroke="#EFE6DA" stroke-width="1.62984" stroke-miterlimit="10"/>
<path d="M37.3517 31.1517C37.2548 31.3746 36.9742 31.2605 36.6401 31.0947C36.3061 30.9289 36.0421 30.7738 36.139 30.5598C36.2359 30.3459 36.5867 30.2906 36.9224 30.4564C37.2582 30.6222 37.4486 30.9289 37.3517 31.1517Z" fill="#EFE6DA"/>
<path d="M32.7232 42.9098C32.7232 42.9098 35.7299 33.2359 36.9325 31.9951" stroke="#EFE6DA" stroke-width="1.62984" stroke-miterlimit="10"/>
<path d="M37.3684 32.3374C37.2915 32.5709 37.0025 32.4836 36.6551 32.3534C36.3077 32.2233 36.0321 32.0967 36.1072 31.8649C36.1824 31.6331 36.5282 31.5511 36.8773 31.6866C37.2264 31.8221 37.4452 32.1074 37.3684 32.3374Z" fill="#EFE6DA"/>
<path d="M30.7956 42.2698C30.7956 42.2698 33.8022 32.5959 35.0032 31.355" stroke="#EFE6DA" stroke-width="1.62984" stroke-miterlimit="10"/>
<path d="M35.4409 31.6991C35.3641 31.9327 35.0751 31.8471 34.7277 31.7152C34.3802 31.5833 34.103 31.4602 34.1798 31.2267C34.2566 30.9931 34.6007 30.9129 34.9482 31.0484C35.2956 31.1839 35.5177 31.4674 35.4409 31.6991Z" fill="#EFE6DA"/>
<path d="M32.7666 44.7016C32.7666 44.7016 35.7733 35.026 36.9759 33.7869" stroke="#EFE6DA" stroke-width="1.62984" stroke-miterlimit="10"/>
<path d="M37.4136 34.1292C37.3367 34.3609 37.0478 34.2754 36.6987 34.1452C36.3495 34.0151 36.0756 33.8885 36.1524 33.6567C36.2293 33.4249 36.5734 33.3411 36.9208 33.4784C37.2682 33.6157 37.4887 33.8903 37.4136 34.1292Z" fill="#EFE6DA"/>
<path d="M33.5116 43.8743C33.5116 43.8743 36.5183 34.2005 37.7209 32.9596" stroke="#EFE6DA" stroke-width="1.62984" stroke-miterlimit="10"/>
<path d="M38.1569 33.309C38.0817 33.5426 37.7927 33.4552 37.4436 33.3251C37.0945 33.1949 36.8206 33.0684 36.8974 32.8366C36.9742 32.6048 37.3167 32.5228 37.6658 32.6583C38.0149 32.7938 38.2337 33.0773 38.1569 33.309Z" fill="#EFE6DA"/>
<path d="M30.3379 41.2553C30.3379 41.2553 33.3445 31.5815 34.5472 30.3406" stroke="#EFE6DA" stroke-width="1.62984" stroke-miterlimit="10"/>
<path d="M34.9831 30.6811C34.9079 30.9146 34.619 30.8273 34.2699 30.6971C33.9207 30.567 33.6468 30.4422 33.722 30.2086C33.7971 29.9751 34.1429 29.8948 34.492 30.0303C34.8411 30.1658 35.0599 30.4511 34.9831 30.6811Z" fill="#EFE6DA"/>
<path d="M33.3045 42.3946C33.3045 42.3946 37.178 33.0773 38.4826 31.9666" stroke="#EFE6DA" stroke-width="1.62984" stroke-miterlimit="10"/>
<path d="M38.8884 32.3534C38.7916 32.5762 38.5109 32.4621 38.1769 32.2963C37.8428 32.1305 37.5789 31.9754 37.6758 31.7615C37.7726 31.5475 38.1234 31.4923 38.4575 31.6581C38.7916 31.8239 38.9853 32.1305 38.8884 32.3534Z" fill="#EFE6DA"/>
<path d="M31.5422 41.9364C31.5422 41.9364 34.6708 32.3088 35.8851 31.0804" stroke="#EFE6DA" stroke-width="1.62984" stroke-miterlimit="10"/>
<path d="M36.3178 31.4299C36.2393 31.6617 35.9503 31.5707 35.6046 31.4299C35.2588 31.289 34.9832 31.166 35.0634 30.9342C35.1435 30.7025 35.4876 30.6258 35.8334 30.756C36.1792 30.8861 36.3963 31.1981 36.3178 31.4299Z" fill="#EFE6DA"/>
<path d="M33.1641 42.9954C33.1641 42.9954 36.2927 33.3679 37.507 32.1395" stroke="#EFE6DA" stroke-width="1.62984" stroke-miterlimit="10"/>
<path d="M37.943 32.4889C37.8645 32.7207 37.5755 32.6297 37.2298 32.4889C36.884 32.3481 36.6084 32.225 36.6886 31.9933C36.7688 31.7615 37.1129 31.6848 37.4586 31.815C37.8044 31.9451 38.0232 32.2571 37.943 32.4889Z" fill="#EFE6DA"/>
<path d="M31.7911 43.5748C31.7911 43.5748 34.7978 33.901 36.0004 32.6601" stroke="#EFE6DA" stroke-width="1.62984" stroke-miterlimit="10"/>
<path d="M36.438 32.9989C36.3611 33.2324 36.0722 33.1451 35.7231 33.0149C35.374 32.8848 35.1 32.7582 35.1769 32.5264C35.2537 32.2946 35.5978 32.2126 35.9452 32.3481C36.2927 32.4836 36.5131 32.7707 36.438 32.9989Z" fill="#EFE6DA"/>
<path d="M31.3835 43.721C31.3835 43.721 33.4715 33.8064 34.5572 32.439" stroke="#EFE6DA" stroke-width="1.62984" stroke-miterlimit="10"/>
<path d="M35.0299 32.726C34.9748 32.965 34.6775 32.915 34.3133 32.8259C33.9492 32.7367 33.6619 32.6476 33.7153 32.4087C33.7688 32.1698 34.1079 32.0521 34.472 32.1359C34.8362 32.2197 35.085 32.4889 35.0299 32.726Z" fill="#EFE6DA"/>
<path d="M29.8853 43.1148C29.8853 43.1148 32.8919 33.4392 34.0929 32.1983" stroke="#EFE6DA" stroke-width="1.62984" stroke-miterlimit="10"/>
<path d="M34.5305 32.5424C34.4537 32.7742 34.1647 32.6886 33.8173 32.5585C33.4699 32.4283 33.1926 32.3017 33.2694 32.07C33.3463 31.8382 33.6904 31.7544 34.0378 31.8917C34.3852 32.029 34.6074 32.3089 34.5305 32.5424Z" fill="#EFE6DA"/>
<path d="M30.6102 43.3698C30.6102 43.3698 32.6981 33.4552 33.7838 32.0895" stroke="#EFE6DA" stroke-width="1.62984" stroke-miterlimit="10"/>
<path d="M34.2566 32.3766C34.2032 32.6137 33.9042 32.5549 33.5417 32.4764C33.1792 32.398 32.8886 32.2981 32.9437 32.0575C32.9988 31.8168 33.3362 31.7009 33.6987 31.7847C34.0612 31.8685 34.3117 32.1377 34.2566 32.3766Z" fill="#EFE6DA"/>
<path d="M30.6954 44.263C30.6954 44.263 33.7021 34.5874 34.903 33.3483" stroke="#EFE6DA" stroke-width="1.62984" stroke-miterlimit="10"/>
<path d="M35.3355 33.6906C35.2587 33.9223 34.9697 33.8368 34.6223 33.7066C34.2749 33.5765 33.9976 33.4499 34.0744 33.2181C34.1513 32.9863 34.4953 32.9025 34.8428 33.0398C35.1902 33.1771 35.4174 33.4588 35.3355 33.6906Z" fill="#EFE6DA"/>
<path d="M30.2811 43.6265C30.2811 43.6265 31.7059 33.5479 31.1631 31.8596" stroke="#EFE6DA" stroke-width="1.62984" stroke-miterlimit="10"/>
<path d="M30.6285 31.9558C30.5985 32.2001 30.8924 32.2625 31.2582 32.3124C31.624 32.3623 31.9264 32.3855 31.9531 32.1341C31.9798 31.8827 31.7109 31.651 31.3451 31.5993C30.9793 31.5476 30.6586 31.7116 30.6285 31.9558Z" fill="#EFE6DA"/>
<path d="M30.7155 43.0293C30.7155 43.0293 32.1403 32.9489 31.5974 31.2623" stroke="#EFE6DA" stroke-width="1.62984" stroke-miterlimit="10"/>
<path d="M31.0629 31.3568C31.0328 31.601 31.3251 31.6652 31.6909 31.7134C32.0567 31.7615 32.3591 31.7864 32.3875 31.5351C32.4158 31.2837 32.1452 31.0519 31.7794 31.0002C31.4136 30.9485 31.0929 31.1125 31.0629 31.3568Z" fill="#EFE6DA"/>
<path d="M31.5038 44.001C31.5038 44.001 32.9287 33.9206 32.3858 32.234" stroke="#EFE6DA" stroke-width="1.62984" stroke-miterlimit="10"/>
<path d="M31.8513 32.3285C31.8213 32.5727 32.1152 32.6369 32.4811 32.685C32.8469 32.7332 33.1492 32.7581 33.1759 32.5067C33.2026 32.2554 32.9354 32.0236 32.5696 31.9719C32.2038 31.9202 31.8814 32.0842 31.8513 32.3285Z" fill="#EFE6DA"/>
<path d="M30.1575 42.3536C30.1575 42.3536 32.2437 32.439 33.3311 31.0715" stroke="#EFE6DA" stroke-width="1.62984" stroke-miterlimit="10"/>
<path d="M33.8006 31.3604C33.7454 31.5975 33.4464 31.5386 33.084 31.4602C32.7215 31.3818 32.4309 31.2819 32.486 31.0412C32.5411 30.8005 32.8785 30.6846 33.241 30.7684C33.6035 30.8522 33.854 31.1215 33.8006 31.3604Z" fill="#EFE6DA"/>
<path d="M51.7718 32.8723C51.8203 32.6264 51.885 32.3845 51.9655 32.1484C52.2863 31.1928 52.8007 30.3905 53.088 30.3263C53.2197 30.2963 53.3562 30.3 53.4863 30.3372C53.6164 30.3744 53.7363 30.444 53.8363 30.5403C53.5524 31.0508 53.2947 31.5775 53.0646 32.1181C52.3965 33.6514 53.3152 34.4822 54.0952 34.8798C54.6281 35.1508 56.0863 35.0295 56.9599 34.9243C57.0453 35.2183 57.072 35.528 57.0384 35.8336C56.9616 36.5468 56.7578 36.8766 55.4115 36.8908C55.3163 36.8908 55.2194 36.8908 55.1225 36.8908C54.7152 36.8768 54.3114 36.8055 53.9215 36.6787C53.6455 36.5883 53.3816 36.46 53.1365 36.2972C52.8484 36.1066 52.5926 35.8655 52.3798 35.584C52.2019 35.3522 52.0525 35.0969 51.9355 34.8245C51.8887 34.7175 51.8436 34.6016 51.8035 34.4822C51.7279 34.2529 51.6879 34.0121 51.6849 33.769C51.6804 33.4675 51.7096 33.1664 51.7718 32.8723Z" fill="#F4D3CE"/>
<path d="M54.6499 35.5127C55.1076 35.4628 55.0208 35.9049 55.0826 36.5414C55.0926 36.6609 55.1076 36.775 55.1226 36.8855C54.7153 36.8715 54.3115 36.8002 53.9217 36.6733C53.8949 36.0725 54.2106 35.5608 54.6499 35.5127Z" fill="#E88C80"/>
<path d="M52.3731 35.5786C52.5886 35.1899 52.9711 34.9938 53.2835 35.1329C53.6326 35.2916 53.4071 35.5715 53.2167 36.0564C53.1849 36.1349 53.1565 36.2151 53.1298 36.29C52.8419 36.1 52.586 35.8595 52.3731 35.5786Z" fill="#E88C80"/>
<path d="M51.685 33.7673C51.8063 33.6816 51.9501 33.6397 52.0953 33.6478C52.2405 33.6558 52.3795 33.7133 52.4918 33.8118C52.7474 34.081 52.4567 34.2451 52.1293 34.5999C52.0625 34.6712 51.9974 34.7478 51.9356 34.8192C51.8888 34.7122 51.8437 34.5963 51.8036 34.4768C51.7284 34.2487 51.6883 34.0091 51.685 33.7673Z" fill="#E88C80"/>
<path d="M51.7718 32.8722C51.8203 32.6264 51.885 32.3845 51.9655 32.1484C52.2996 32.1234 52.5819 32.3267 52.5986 32.5994C52.6153 32.8722 52.3881 32.8169 52.054 32.8419C51.9555 32.849 51.8586 32.8633 51.7718 32.8722Z" fill="#E88C80"/>
<path d="M53.0647 32.1181C53.2948 31.5776 53.5524 31.0508 53.8364 30.5403C53.8982 30.5923 53.9476 30.6591 53.9807 30.7353C54.0138 30.8115 54.0296 30.8949 54.0268 30.9789C53.9884 31.3354 53.6577 31.2927 53.4673 33.0648C53.2768 34.837 55.5118 34.3913 56.1933 34.295C56.5908 34.2397 56.8397 34.5321 56.96 34.9244C56.0864 35.0296 54.6215 35.1508 54.0953 34.8798C53.3153 34.4822 52.3966 33.6514 53.0647 32.1181Z" fill="#EAC8C5"/>
<path d="M54.0268 30.9788C54.0268 30.9788 55.7105 29.3903 55.4349 28.818C55.328 28.5951 54.3809 29.2423 54.3442 29.5828C54.3442 29.5828 54.8102 28.383 54.6432 28.3633C54.4761 28.3437 53.0847 29.8734 53.0881 30.3245L54.0268 30.9788Z" fill="#D15F56"/>
<path d="M54.1705 29.023C54.1705 29.023 53.7529 29.8824 53.7346 30.3655L54.1705 29.023Z" fill="#BF4E49"/>
<path d="M54.9189 29.5133C54.9189 29.5133 54.1505 30.0268 53.9033 30.4315L54.9189 29.5133Z" fill="#BF4E49"/>
<path d="M52.9812 34.96C53.0308 34.7179 53.0956 34.4797 53.1749 34.2468C53.4956 33.2894 54.0101 32.4871 54.2991 32.4247C54.4295 32.3931 54.565 32.3947 54.6947 32.4294C54.8244 32.4641 54.9447 32.5309 55.0457 32.6244C54.761 33.1348 54.5028 33.6616 54.2724 34.2023C53.6042 35.7373 54.5246 36.5663 55.303 36.9657C55.8358 37.2367 57.2957 37.1155 58.1693 37.0103C58.2534 37.3039 58.2795 37.6128 58.2461 37.9178C58.1709 38.6309 57.9672 38.9607 56.6192 38.975C56.524 38.975 56.4288 38.975 56.3319 38.975C55.9244 38.9614 55.5205 38.8894 55.1309 38.7611C54.8547 38.6719 54.5908 38.5442 54.3458 38.3813C54.0572 38.191 53.8008 37.9498 53.5875 37.6682C53.4105 37.4366 53.2618 37.182 53.1449 36.9104C53.0981 36.8017 53.053 36.6858 53.0112 36.5663C52.9362 36.337 52.8967 36.0961 52.8943 35.8532C52.8901 35.5528 52.9193 35.253 52.9812 34.96Z" fill="#F4D3CE"/>
<path d="M55.8592 37.5986C56.3169 37.5469 56.2317 37.9891 56.2918 38.6274C56.3035 38.745 56.3185 38.8591 56.3336 38.9715C55.9261 38.9579 55.5221 38.8859 55.1326 38.7575C55.1059 38.1567 55.4216 37.645 55.8592 37.5986Z" fill="#E88C80"/>
<path d="M53.5891 37.6628C53.8063 37.2759 54.1888 37.078 54.4995 37.2189C54.8486 37.3758 54.6247 37.6575 54.4326 38.1424C54.4026 38.2209 54.3742 38.2993 54.3475 38.376C54.0588 38.1856 53.8024 37.9445 53.5891 37.6628Z" fill="#E88C80"/>
<path d="M52.896 35.8514C53.0169 35.7657 53.1604 35.7237 53.3054 35.7317C53.4504 35.7398 53.5891 35.7974 53.7011 35.896C53.9566 36.1635 53.6677 36.3275 53.3403 36.6823C53.2735 36.7554 53.2083 36.8302 53.1465 36.9033C53.0997 36.7946 53.0546 36.6787 53.0129 36.5592C52.9384 36.3316 52.8989 36.0926 52.896 35.8514Z" fill="#E88C80"/>
<path d="M52.9812 34.96C53.0309 34.718 53.0956 34.4797 53.175 34.2469C53.509 34.2201 53.7913 34.4251 53.8097 34.6979C53.8281 34.9707 53.5976 34.9136 53.2635 34.9386L52.9812 34.96Z" fill="#E88C80"/>
<path d="M54.274 34.2023C54.5039 33.6616 54.7615 33.1349 55.0457 32.6245C55.1072 32.6771 55.1564 32.7443 55.1894 32.8207C55.2225 32.8971 55.2384 32.9807 55.2361 33.0648C55.1977 33.4214 54.8653 33.3786 54.6765 35.149C54.4878 36.9194 56.716 36.4755 57.4042 36.3863C57.8017 36.331 58.049 36.6234 58.1709 37.0174C57.2973 37.1226 55.8324 37.2439 55.3046 36.9729C54.5262 36.5646 53.6058 35.7373 54.274 34.2023Z" fill="#EAC8C5"/>
<path d="M55.2378 33.0648C55.2378 33.0648 56.9199 31.4745 56.6459 30.904C56.5374 30.6793 55.592 31.3265 55.5552 31.667C55.5552 31.667 56.0196 30.4689 55.8542 30.4475C55.6888 30.4262 54.2958 31.9576 54.2991 32.4087L55.2378 33.0648Z" fill="#D15F56"/>
<path d="M55.3798 31.1089C55.3798 31.1089 54.9639 31.9665 54.9438 32.4497L55.3798 31.1089Z" fill="#BF4E49"/>
<path d="M56.1281 31.5992C56.1281 31.5992 55.3598 32.1109 55.1142 32.5174L56.1281 31.5992Z" fill="#BF4E49"/>
<path d="M49.6489 33.8083C49.6982 33.5632 49.7629 33.322 49.8426 33.0862C50.1634 32.1288 50.6778 31.3265 50.9651 31.2641C51.097 31.2339 51.2336 31.2373 51.364 31.2742C51.4943 31.311 51.6146 31.3803 51.7151 31.4763C51.4304 31.9867 51.1722 32.5134 50.9417 33.0541C50.2736 34.5892 51.194 35.4182 51.9723 35.8176C52.5052 36.0886 53.9634 35.9673 54.8387 35.8621C54.9227 36.1557 54.9489 36.4647 54.9155 36.7696C54.8403 37.4828 54.6349 37.8126 53.2886 37.8269C53.1934 37.8269 53.0982 37.8269 52.9996 37.8269C52.5921 37.8131 52.1882 37.7411 51.7986 37.6129C51.5224 37.5237 51.2585 37.396 51.0136 37.2332C50.7249 37.0428 50.4685 36.8017 50.2552 36.52C50.0782 36.2885 49.9295 36.0339 49.8126 35.7623C49.7641 35.6535 49.7207 35.5376 49.679 35.4182C49.6039 35.1888 49.5644 34.948 49.562 34.705C49.5576 34.4035 49.5867 34.1025 49.6489 33.8083Z" fill="#F4D3CE"/>
<path d="M52.5269 36.4505C52.9845 36.3988 52.8993 36.8409 52.9595 37.4792C52.9712 37.5968 52.9862 37.7109 52.9996 37.8233C52.5921 37.8095 52.1882 37.7376 51.7986 37.6093C51.7735 37.0085 52.0876 36.4968 52.5269 36.4505Z" fill="#E88C80"/>
<path d="M50.2568 36.5146C50.474 36.1278 50.8565 35.9299 51.1672 36.0707C51.5163 36.2276 51.2925 36.5093 51.1004 36.9942C51.0703 37.0727 51.0419 37.1511 51.0152 37.2278C50.7265 37.0374 50.4701 36.7963 50.2568 36.5146Z" fill="#E88C80"/>
<path d="M49.5636 34.705C49.6845 34.6193 49.8281 34.5773 49.9731 34.5853C50.118 34.5933 50.2568 34.6509 50.3687 34.7496C50.6243 35.017 50.3336 35.1811 50.0079 35.5358C49.9411 35.6089 49.876 35.6838 49.8142 35.7569C49.7657 35.6482 49.7223 35.5323 49.6805 35.4128C49.606 35.1852 49.5665 34.9461 49.5636 34.705Z" fill="#E88C80"/>
<path d="M49.6489 33.8083C49.6982 33.5632 49.7629 33.322 49.8426 33.0862C50.1767 33.0595 50.459 33.2645 50.4774 33.5373C50.4957 33.8101 50.2652 33.753 49.9312 33.778L49.6489 33.8083Z" fill="#E88C80"/>
<path d="M50.9417 33.0541C51.1722 32.5134 51.4304 31.9867 51.7151 31.4763C51.7766 31.5289 51.8258 31.5961 51.8588 31.6725C51.8919 31.7489 51.9079 31.8325 51.9055 31.9166C51.8671 32.2732 51.5347 32.2304 51.3459 34.0008C51.1572 35.7712 53.3888 35.3273 54.072 35.231C54.4695 35.1757 54.7167 35.4681 54.8386 35.8621C53.9634 35.9673 52.5002 36.0885 51.9723 35.8175C51.1939 35.4182 50.2736 34.5891 50.9417 33.0541Z" fill="#EAC8C5"/>
<path d="M51.9054 31.9166C51.9054 31.9166 53.5875 30.3263 53.3135 29.7558C53.2049 29.5311 52.2595 30.1783 52.2228 30.5188C52.2228 30.5188 52.6871 29.3207 52.5218 29.2994C52.3564 29.278 50.9617 30.8094 50.965 31.2605L51.9054 31.9166Z" fill="#D15F56"/>
<path d="M52.0608 29.9804C52.0608 29.9804 51.6449 30.838 51.6248 31.3211L52.0608 29.9804Z" fill="#BF4E49"/>
<path d="M52.8092 30.4707C52.8092 30.4707 52.0392 30.9842 51.7953 31.3942L52.8092 30.4707Z" fill="#BF4E49"/>
<path d="M45.5431 36.7518C45.5432 36.9092 45.5253 37.0661 45.4896 37.2189C45.4084 37.535 45.2592 37.8266 45.0539 38.0705C44.8486 38.3144 44.5929 38.5038 44.307 38.6238C44.0367 38.742 43.7473 38.8025 43.4552 38.8021C42.3026 38.8021 41.3672 37.8839 41.3672 36.7518C41.3672 35.666 41.8282 34.122 43.3382 34.1541C43.4017 34.1541 43.4702 34.1541 43.5387 34.1666C43.8084 34.1949 44.0745 34.2547 44.3321 34.3449C45.5364 34.7621 45.5431 35.7961 45.5431 36.7518Z" fill="#CEBFBE"/>
<path d="M46.3783 36.5735C46.378 36.8501 46.3209 37.1234 46.2113 37.374C45.9638 37.3654 45.7194 37.3129 45.488 37.2189C45.5236 37.0661 45.5416 36.9092 45.5414 36.7518C45.5414 35.7962 45.5414 34.7621 44.3304 34.336C44.3598 34.2207 44.3961 34.1076 44.439 33.9973C46.3683 34.229 46.3783 35.4539 46.3783 36.5735Z" fill="#B2A4A4"/>
<path d="M45.5432 37.4649C45.5433 37.6224 45.5254 37.7793 45.4897 37.932C45.1214 37.7923 44.8014 37.5365 44.5724 37.1983C44.3433 36.8602 44.2158 36.4558 44.2069 36.0386C44.2066 35.7043 44.2488 35.3714 44.3322 35.0491C45.5365 35.4752 45.5432 36.5093 45.5432 37.4649Z" fill="#CEBFBE"/>
<path d="M48.3828 35.3255C48.3828 36.4576 47.4474 37.3758 46.2948 37.3758H46.213C46.3227 37.1252 46.3797 36.8519 46.38 36.5753C46.38 35.4557 46.37 34.2308 44.4424 33.9991C44.7314 33.2449 45.3193 32.6298 46.38 32.751C48.3727 32.9525 48.3828 34.1934 48.3828 35.3255Z" fill="#CEBFBE"/>
<path d="M49.886 37.1083C49.8857 37.3849 49.8287 37.6582 49.719 37.9088C49.4715 37.9002 49.2271 37.8477 48.9957 37.7537C49.0313 37.6009 49.0493 37.444 49.0492 37.2866C49.0492 36.331 49.0492 35.2969 47.8382 34.8708C47.8532 34.812 46.9896 34.7157 47.0447 34.6925C47.7129 34.5142 47.5458 34.5142 47.9467 34.5142C49.876 34.7638 49.886 35.9887 49.886 37.1083Z" fill="#D1CBCB"/>
<path d="M47.8398 34.8709C47.5823 34.7807 47.3162 34.7209 47.0464 34.6926C46.9779 34.6926 46.9095 34.6801 46.846 34.6801C45.3427 34.648 44.875 36.192 44.875 37.2778C44.875 38.4099 45.8104 39.3281 46.9629 39.3281C47.255 39.3285 47.5445 39.268 47.8148 39.1498C48.1006 39.0298 48.3564 38.8404 48.5617 38.5965C48.7669 38.3526 48.9161 38.061 48.9974 37.7449C49.033 37.5921 49.051 37.4352 49.0508 37.2778C49.0508 36.3311 49.0442 35.297 47.8398 34.8709Z" fill="#8C8585"/>
<path d="M51.8904 35.8604C51.8904 36.9925 50.955 37.9107 49.8025 37.9107H49.7206C49.8303 37.66 49.8873 37.3868 49.8877 37.1102C49.8877 35.9905 49.8777 34.7657 47.9501 34.5339C48.239 33.7797 48.827 33.1647 49.8877 33.2859C51.8804 33.4874 51.8904 34.7282 51.8904 35.8604Z" fill="#E8E6E6"/>
<path opacity="0.53" d="M50.9968 37.144C46.8009 36.4683 44.7079 36.6626 41.8683 37.9106C38.8283 39.246 34.5722 41.4086 34.6858 42.5461C34.7994 43.6836 36.1557 41.9685 36.7136 42.3964C37.2715 42.8242 46.0208 39.8379 48.5013 40.1178C50.9818 40.3977 55.46 37.8643 50.9968 37.144Z" fill="#994633"/>
<path d="M52.0709 37.456C47.875 36.7732 46.2631 36.7429 43.3851 38.5436C40.5071 40.3443 36.8089 40.5885 36.9158 41.7777C37.0227 42.9669 37.2014 42.5925 37.751 43.0382C38.3005 43.4839 47.0782 40.3086 49.5587 40.5814C52.0392 40.8542 56.5324 38.1816 52.0709 37.456Z" fill="#BC5C3F"/>
<path d="M45.5381 38.3884C45.4646 38.2761 47.1567 37.8536 48.8788 37.7805C50.3404 37.7127 51.8437 37.9374 52.0291 38.2244C50.928 38.0033 49.8087 37.9024 48.6884 37.9231C47.0932 37.9908 45.6033 38.4918 45.5381 38.3884Z" fill="#EFDBD3"/>
<path d="M39.7103 40.7543C39.6852 40.8292 40.7292 40.5921 41.7347 40.1873C42.5933 39.8415 43.4301 39.3387 43.4936 39.1497C42.8901 39.5442 42.2571 39.8847 41.6011 40.1677C40.6807 40.5457 39.732 40.6866 39.7103 40.7543Z" fill="#EFDBD3"/>
<path d="M47.399 38.9322C47.4073 39.0802 47.8149 38.9964 48.321 38.9661C48.8271 38.9358 49.233 38.7878 49.2247 38.6434C49.2163 38.499 48.8088 38.5792 48.3026 38.6095C47.7965 38.6399 47.3923 38.7843 47.399 38.9322Z" fill="#EFDBD3"/>
<path d="M45.3694 39.041C45.3777 39.189 45.6784 39.1123 46.0525 39.0909C46.4267 39.0695 46.7207 38.9304 46.7207 38.7825C46.7207 38.6345 46.4117 38.7112 46.0375 38.7343C45.6634 38.7575 45.3577 38.8948 45.3694 39.041Z" fill="#EFDBD3"/>
<path d="M46.1044 40.0287C46.1127 40.1766 46.4134 40.1 46.7875 40.0768C47.1617 40.0536 47.4557 39.9181 47.4557 39.7701C47.4557 39.6222 47.1483 39.6988 46.7742 39.722C46.4 39.7452 46.096 39.8825 46.1044 40.0287Z" fill="#EFDBD3"/>
<path d="M43.7976 40.0572C43.8327 40.1998 44.1133 40.0572 44.4774 39.9645C44.8415 39.8718 45.1071 39.6686 45.0737 39.5259C45.0403 39.3833 44.758 39.5259 44.3939 39.6186C44.0298 39.7113 43.7642 39.9146 43.7976 40.0572Z" fill="#EFDBD3"/>
<path d="M41.9117 40.8434C41.9568 40.9825 42.1974 40.8327 42.5147 40.7168C42.8321 40.601 43.0543 40.3924 43.0158 40.2533C42.9774 40.1142 42.7302 40.2533 42.4129 40.3799C42.0955 40.5065 41.8666 40.7008 41.9117 40.8434Z" fill="#EFDBD3"/>
<path d="M38.5744 41.792C38.6028 41.9364 38.8584 41.8223 39.1875 41.751C39.5165 41.6796 39.7621 41.5049 39.7353 41.3605C39.7086 41.2161 39.4514 41.3302 39.1223 41.4015C38.7933 41.4728 38.5477 41.6475 38.5744 41.792Z" fill="#EFDBD3"/>
<path d="M40.2915 41.4639C40.3183 41.6083 40.492 41.5121 40.7175 41.4639C40.943 41.4158 41.1067 41.2571 41.0783 41.1073C41.0499 40.9576 40.8778 41.0592 40.6523 41.1073C40.4268 41.1555 40.2648 41.3195 40.2915 41.4639Z" fill="#EFDBD3"/>
<path d="M41.2771 41.7849C41.3105 41.9275 41.4792 41.8223 41.703 41.7599C41.9268 41.6975 42.0805 41.5353 42.0471 41.3908C42.0137 41.2464 41.845 41.3534 41.6211 41.4158C41.3973 41.4782 41.2436 41.6422 41.2771 41.7849Z" fill="#EFDBD3"/>
<path d="M49.3214 39.9057C49.2997 40.0519 49.4885 40.0251 49.7207 40.0643C49.9528 40.1036 50.1516 40.018 50.1733 39.8718C50.195 39.7256 50.0063 39.7523 49.7741 39.7131C49.5419 39.6739 49.3432 39.7595 49.3214 39.9057Z" fill="#EFDBD3"/>
<path d="M43.3533 41.1073C43.3767 41.2518 43.6356 41.1448 43.9663 41.0824C44.297 41.02 44.5476 40.8524 44.5225 40.7062C44.4975 40.56 44.2402 40.6688 43.9095 40.7312C43.5788 40.7936 43.3266 40.9611 43.3533 41.1073Z" fill="#EFDBD3"/>
<path d="M50.5358 39.2228C50.484 39.5277 50.9366 39.4885 51.4712 39.5901C52.0057 39.6917 52.4734 39.5259 52.5285 39.2228C52.5836 38.9197 52.3949 38.6737 51.8603 38.5721C51.3258 38.4705 50.5875 38.918 50.5358 39.2228Z" fill="#EFDBD3"/>
<path d="M47.895 38.0818C43.6657 37.6825 42.0571 37.7627 39.2843 39.7524C36.5116 41.7421 32.8418 42.2377 33.0205 43.4162C33.1993 44.5947 33.3546 44.2113 33.9342 44.6178C34.5138 45.0243 43.0794 41.2607 45.5732 41.373C48.067 41.4853 52.3899 38.5079 47.895 38.0818Z" fill="#BC5C3F"/>
<path d="M41.4307 39.4546C41.3522 39.3476 43.0142 38.8199 44.7213 38.6238C46.1762 38.4562 47.6912 38.581 47.895 38.8538C46.7817 38.7067 45.6573 38.6817 44.5393 38.7789C42.9591 38.9518 41.5026 39.5526 41.4307 39.4546Z" fill="#EFDBD3"/>
<path d="M35.7532 42.2091C35.7331 42.284 36.7554 41.9791 37.7426 41.5049C38.5777 41.102 39.3829 40.5457 39.4346 40.3531C38.8559 40.7879 38.2441 41.1702 37.6056 41.496C36.7036 41.9363 35.7716 42.1396 35.7532 42.2091Z" fill="#EFDBD3"/>
<path d="M43.3199 39.8718C43.3366 40.018 43.7392 39.9074 44.242 39.8433C44.7447 39.7791 45.1423 39.6079 45.1256 39.4617C45.1089 39.3155 44.7063 39.4243 44.2035 39.4885C43.7008 39.5527 43.3049 39.7256 43.3199 39.8718Z" fill="#EFDBD3"/>
<path d="M41.302 40.1178C41.3187 40.264 41.6127 40.1678 41.9852 40.1178C42.3577 40.0679 42.6533 39.9128 42.6299 39.7613C42.6066 39.6097 42.3193 39.7113 41.9468 39.7613C41.5743 39.8112 41.2853 39.9717 41.302 40.1178Z" fill="#EFDBD3"/>
<path d="M42.0922 41.0538C42.1089 41.2 42.4045 41.1037 42.777 41.0538C43.1495 41.0039 43.4452 40.8488 43.4218 40.6972C43.3984 40.5457 43.1094 40.6473 42.7369 40.6972C42.3644 40.7472 42.0771 40.9076 42.0922 41.0538Z" fill="#EFDBD3"/>
<path d="M39.7922 41.2375C39.8356 41.3783 40.1079 41.2215 40.4603 41.0984C40.8128 40.9754 41.0717 40.7615 41.0282 40.6206C40.9848 40.4798 40.7142 40.6367 40.3601 40.7597C40.006 40.8827 39.7504 41.0967 39.7922 41.2375Z" fill="#EFDBD3"/>
<path d="M37.9564 42.1468C38.0098 42.284 38.2403 42.1182 38.551 41.9809C38.8617 41.8437 39.0688 41.6244 39.017 41.4835C38.9652 41.3427 38.7331 41.5138 38.4224 41.6511C38.1117 41.7884 37.9046 42.0113 37.9564 42.1468Z" fill="#EFDBD3"/>
<path d="M34.6824 43.3199C34.7192 43.4625 34.9681 43.3306 35.2921 43.2379C35.6162 43.1452 35.85 42.9544 35.8149 42.8118C35.7799 42.6691 35.5293 42.8011 35.2053 42.8938C34.8812 42.9865 34.6474 43.1773 34.6824 43.3199Z" fill="#EFDBD3"/>
<path d="M36.3762 42.8778C36.4129 43.0204 36.5783 42.9116 36.8021 42.8474C37.0259 42.7833 37.1763 42.6174 37.1362 42.4748C37.0961 42.3322 36.9341 42.4392 36.7102 42.5033C36.4864 42.5675 36.3377 42.7351 36.3762 42.8778Z" fill="#EFDBD3"/>
<path d="M37.3784 43.1309C37.4219 43.2717 37.5822 43.1541 37.8027 43.0792C38.0232 43.0043 38.1669 42.8278 38.1234 42.6869C38.08 42.5461 37.9196 42.6638 37.6992 42.7387C37.4787 42.8135 37.34 42.9829 37.3784 43.1309Z" fill="#EFDBD3"/>
<path d="M45.2959 40.7133C45.2825 40.8613 45.4746 40.8221 45.7034 40.8453C45.9323 40.8684 46.1311 40.7704 46.1444 40.6224C46.1578 40.4744 45.9657 40.5136 45.7369 40.4905C45.508 40.4673 45.3092 40.5671 45.2959 40.7133Z" fill="#EFDBD3"/>
<path d="M39.4079 42.3143C39.4397 42.4587 39.6919 42.3339 40.0193 42.2484C40.3467 42.1628 40.5838 41.9809 40.5521 41.8365C40.5204 41.6921 40.2665 41.8187 39.9408 41.9025C39.615 41.9863 39.3745 42.1717 39.4079 42.3143Z" fill="#EFDBD3"/>
<path d="M46.4685 39.952C46.4368 40.2604 46.8861 40.1909 47.4239 40.2569C47.9618 40.3228 48.4262 40.125 48.4579 39.8165C48.4896 39.5081 48.2909 39.2817 47.753 39.2139C47.2152 39.1462 46.5019 39.6436 46.4685 39.952Z" fill="#EFDBD3"/>
<path d="M54.2422 38.6167C50.0129 38.2173 48.4044 38.2975 45.6316 40.2872C42.8588 42.2769 39.189 42.7726 39.3678 43.951C39.5465 45.1295 39.7018 44.7462 40.2814 45.1527C40.8611 45.5592 49.4266 41.7955 51.9205 41.9079C54.4143 42.0202 58.7372 39.0428 54.2422 38.6167Z" fill="#BC5C3F"/>
<path d="M47.7781 39.9895C47.6996 39.8825 49.3616 39.3548 51.0687 39.1587C52.5236 38.9911 54.0386 39.1159 54.2423 39.3887C53.1291 39.2417 52.0047 39.2166 50.8866 39.3138C49.3065 39.4867 47.8499 40.0876 47.7781 39.9895Z" fill="#EFDBD3"/>
<path d="M42.1005 42.744C42.0805 42.8189 43.1028 42.514 44.0899 42.0398C44.9251 41.6369 45.7302 41.0806 45.782 40.8881C45.2033 41.3228 44.5914 41.7051 43.953 42.0309C43.051 42.4713 42.1189 42.6745 42.1005 42.744Z" fill="#EFDBD3"/>
<path d="M49.6672 40.4066C49.6839 40.5528 50.0865 40.4423 50.5892 40.3781C51.092 40.3139 51.4895 40.1428 51.4728 39.9966C51.4561 39.8504 51.0536 39.9591 50.5508 40.0233C50.048 40.0875 49.6522 40.2604 49.6672 40.4066Z" fill="#EFDBD3"/>
<path d="M47.6493 40.6527C47.666 40.7989 47.96 40.7026 48.3325 40.6527C48.7049 40.6028 49.0006 40.4477 48.9772 40.2961C48.9538 40.1446 48.6665 40.2462 48.294 40.2961C47.9215 40.346 47.6326 40.5065 47.6493 40.6527Z" fill="#EFDBD3"/>
<path d="M48.4395 41.5887C48.4562 41.7349 48.7519 41.6386 49.1243 41.5887C49.4968 41.5388 49.7925 41.3837 49.7691 41.2322C49.7457 41.0806 49.4567 41.1822 49.0843 41.2322C48.7118 41.2821 48.4245 41.4425 48.4395 41.5887Z" fill="#EFDBD3"/>
<path d="M46.1395 41.7723C46.1829 41.9132 46.4552 41.7563 46.8076 41.6333C47.1601 41.5103 47.419 41.2963 47.3755 41.1555C47.3321 41.0146 47.0615 41.1715 46.7074 41.2945C46.3533 41.4176 46.0977 41.6315 46.1395 41.7723Z" fill="#EFDBD3"/>
<path d="M44.3038 42.6816C44.3572 42.8189 44.5878 42.6531 44.8984 42.5158C45.2091 42.3785 45.4162 42.1592 45.3645 42.0184C45.3127 41.8775 45.0805 42.0487 44.7698 42.186C44.4591 42.3232 44.252 42.5461 44.3038 42.6816Z" fill="#EFDBD3"/>
<path d="M41.0299 43.8547C41.0667 43.9974 41.3155 43.8654 41.6396 43.7727C41.9636 43.68 42.1975 43.4892 42.1624 43.3466C42.1273 43.204 41.8768 43.3359 41.5527 43.4286C41.2287 43.5213 40.9948 43.7121 41.0299 43.8547Z" fill="#EFDBD3"/>
<path d="M42.7235 43.4126C42.7603 43.5552 42.9256 43.4465 43.1495 43.3823C43.3733 43.3181 43.5236 43.1523 43.4835 43.0097C43.4434 42.867 43.2814 42.974 43.0576 43.0382C42.8338 43.1024 42.6851 43.27 42.7235 43.4126Z" fill="#EFDBD3"/>
<path d="M43.7258 43.6657C43.7692 43.8066 43.9296 43.6889 44.1501 43.614C44.3706 43.5392 44.5142 43.3626 44.4708 43.2218C44.4274 43.081 44.267 43.1986 44.0465 43.2735C43.826 43.3484 43.6874 43.5178 43.7258 43.6657Z" fill="#EFDBD3"/>
<path d="M51.6432 41.2482C51.6298 41.3962 51.8219 41.3569 52.0508 41.3801C52.2796 41.4033 52.4784 41.3052 52.4917 41.1572C52.5051 41.0093 52.313 41.0485 52.0842 41.0253C51.8553 41.0021 51.6566 41.102 51.6432 41.2482Z" fill="#EFDBD3"/>
<path d="M45.7552 42.8492C45.7869 42.9936 46.0391 42.8688 46.3665 42.7832C46.6939 42.6976 46.9311 42.5158 46.8994 42.3714C46.8676 42.227 46.6137 42.3535 46.288 42.4373C45.9623 42.5211 45.7218 42.7066 45.7552 42.8492Z" fill="#EFDBD3"/>
<path d="M52.8158 40.4869C52.7841 40.7953 53.2334 40.7258 53.7713 40.7917C54.3091 40.8577 54.7735 40.6598 54.8052 40.3514C54.8369 40.0429 54.6382 39.8165 54.1003 39.7488C53.5625 39.681 52.8492 40.1784 52.8158 40.4869Z" fill="#EFDBD3"/>
<path opacity="0.53" d="M50.5358 39.6668C46.3382 38.9839 44.728 38.9536 41.85 40.7543C38.9719 42.555 35.2638 42.8046 35.3707 43.9884C35.4776 45.1723 35.6563 44.8032 36.2058 45.2489C36.7554 45.6946 45.5314 42.5158 48.0135 42.7939C50.4957 43.072 54.9939 40.3942 50.5358 39.6668Z" fill="#994633"/>
<path d="M51.5697 40.3086C47.3737 39.6258 45.7619 39.5955 42.8838 41.3962C40.0058 43.1969 36.3077 43.4411 36.4146 44.6303C36.5215 45.8195 36.7002 45.4451 37.2498 45.8908C37.7993 46.3365 46.577 43.1612 49.0575 43.434C51.5379 43.7068 56.0312 41.0342 51.5697 40.3086Z" fill="#BC5C3F"/>
<path d="M45.0369 41.241C44.9635 41.1287 46.6555 40.7151 48.3776 40.6331C49.8392 40.5653 51.3425 40.79 51.5279 41.077C50.4268 40.8559 49.3075 40.755 48.1872 40.7757C46.592 40.8434 45.1021 41.3444 45.0369 41.241Z" fill="#EFDBD3"/>
<path d="M39.2091 43.6069C39.1841 43.6818 40.228 43.4447 41.2336 43.04C42.0921 42.6941 42.929 42.1913 42.9925 42.0023C42.389 42.3968 41.756 42.7373 41.1 43.0203C40.1796 43.3983 39.2308 43.5392 39.2091 43.6069Z" fill="#EFDBD3"/>
<path d="M46.8978 41.7848C46.9061 41.9328 47.3137 41.849 47.8198 41.8187C48.3259 41.7884 48.7318 41.6404 48.7235 41.496C48.7151 41.3516 48.3076 41.4318 47.8014 41.4621C47.2953 41.4925 46.8911 41.6369 46.8978 41.7848Z" fill="#EFDBD3"/>
<path d="M44.8682 41.8936C44.8766 42.0416 45.1773 41.9649 45.5514 41.9435C45.9256 41.9221 46.2196 41.783 46.2196 41.6351C46.2196 41.4871 45.9105 41.5638 45.5364 41.5869C45.1622 41.6101 44.8566 41.7474 44.8682 41.8936Z" fill="#EFDBD3"/>
<path d="M45.6033 42.8813C45.6116 43.0292 45.9123 42.9526 46.2864 42.9294C46.6606 42.9062 46.9546 42.7707 46.9546 42.6227C46.9546 42.4748 46.6472 42.5514 46.2731 42.5746C45.8989 42.5978 45.5949 42.7351 45.6033 42.8813Z" fill="#EFDBD3"/>
<path d="M43.2964 42.9098C43.3315 43.0524 43.6121 42.9098 43.9762 42.8171C44.3403 42.7244 44.6059 42.5212 44.5725 42.3785C44.5391 42.2359 44.2568 42.3785 43.8927 42.4712C43.5286 42.5639 43.263 42.7672 43.2964 42.9098Z" fill="#EFDBD3"/>
<path d="M41.4106 43.6961C41.4557 43.8351 41.6963 43.6854 42.0136 43.5695C42.331 43.4536 42.5532 43.245 42.5147 43.106C42.4763 42.9669 42.2291 43.106 41.9117 43.2325C41.5944 43.3591 41.3655 43.5535 41.4106 43.6961Z" fill="#EFDBD3"/>
<path d="M38.0733 44.6446C38.1017 44.789 38.3573 44.6749 38.6863 44.6035C39.0154 44.5322 39.2609 44.3575 39.2342 44.2131C39.2075 44.0687 38.9502 44.1828 38.6212 44.2541C38.2921 44.3254 38.0466 44.5001 38.0733 44.6446Z" fill="#EFDBD3"/>
<path d="M39.7905 44.3165C39.8173 44.4609 39.991 44.3647 40.2165 44.3165C40.442 44.2684 40.6057 44.1097 40.5773 43.9599C40.5489 43.8102 40.3768 43.9118 40.1513 43.9599C39.9258 44.0081 39.7638 44.1721 39.7905 44.3165Z" fill="#EFDBD3"/>
<path d="M40.7759 44.6375C40.8093 44.7801 40.978 44.6749 41.2018 44.6125C41.4256 44.5501 41.5793 44.3879 41.5459 44.2434C41.5125 44.099 41.3438 44.206 41.12 44.2684C40.8961 44.3308 40.7425 44.4948 40.7759 44.6375Z" fill="#EFDBD3"/>
<path d="M48.8203 42.7583C48.7986 42.9045 48.9874 42.8777 49.2196 42.917C49.4517 42.9562 49.6505 42.8706 49.6722 42.7244C49.6939 42.5782 49.5052 42.6049 49.273 42.5657C49.0408 42.5265 48.8421 42.6121 48.8203 42.7583Z" fill="#EFDBD3"/>
<path d="M42.8523 43.96C42.8757 44.1044 43.1346 43.9974 43.4653 43.935C43.796 43.8726 44.0466 43.705 44.0215 43.5588C43.9965 43.4126 43.7392 43.5214 43.4085 43.5838C43.0778 43.6462 42.8256 43.8138 42.8523 43.96Z" fill="#EFDBD3"/>
<path d="M50.0347 42.0754C49.9829 42.3803 50.4356 42.3411 50.9701 42.4427C51.5046 42.5443 51.9723 42.3785 52.0274 42.0754C52.0826 41.7723 51.8938 41.5263 51.3593 41.4247C50.8248 41.3231 50.0865 41.7706 50.0347 42.0754Z" fill="#EFDBD3"/>
<path d="M32.2989 39.2086C32.2989 41.1697 29.9738 43.7941 27.2878 43.2842C24.7255 42.7975 22.1582 41.6886 22.1582 39.7185C22.1582 37.7484 25.0429 34.8798 27.652 34.8798C30.2611 34.8798 32.2989 37.2403 32.2989 39.2086Z" fill="#68321F"/>
<path d="M27.652 35.5162C27.652 35.5162 24.6687 38.3171 25.1464 39.7185C25.6242 41.1198 28.3619 36.2793 27.652 35.5162Z" fill="#F4F4F4"/>
<path d="M29.1102 38.4348C29.1102 38.4348 26.3141 35.921 24.916 36.3239C23.5179 36.7268 28.3486 39.0392 29.1102 38.4348Z" fill="#F4F4F4"/>
<path opacity="0.15" d="M13.6912 36.6127C13.6912 36.6127 22.808 33.3911 25.0362 33.047C27.2645 32.7029 35.6797 33.2966 36.8957 32.8687C38.1117 32.4408 44.0699 33.0095 48.7552 33.7601C50.5141 34.0418 58.9443 34.3324 58.9443 36.3631C58.9443 38.3938 57.8853 45.4469 35.7014 43.6961C13.5175 41.9453 14.7068 41.9613 13.6912 36.6127Z" fill="#47201A"/>
<path d="M18.8793 43.0346C18.6371 43.0346 16.0664 41.2339 15.7741 40.7169C15.4818 40.1998 14.9941 36.0458 15.2379 35.7855C15.4818 35.5252 18.6321 38.3688 18.6321 38.3688C18.6321 38.3688 19.1232 43.0346 18.8793 43.0346Z" fill="#E2E2E2"/>
<path d="M24.3864 40.4869C24.3864 40.4869 19.1232 43.0292 18.8743 43.0292C18.6254 43.0292 18.6321 38.3688 18.6321 38.3688C18.6321 38.3688 24.2294 35.4948 24.4783 35.7587C24.7272 36.0226 24.4783 40.3282 24.4783 40.3282C24.477 40.3608 24.4679 40.3926 24.4518 40.4203C24.4357 40.4481 24.4132 40.471 24.3864 40.4869Z" fill="#E8EAE9"/>
<path d="M24.4784 35.7694L21.1193 33.6603C21.0649 33.627 21.0033 33.6094 20.9406 33.6094C20.8779 33.6094 20.8163 33.627 20.7619 33.6603C20.7619 33.6603 15.238 35.5234 15.238 35.7819C15.238 36.0404 18.6322 38.3688 18.6322 38.3688L24.4784 35.7694Z" fill="#EFEFEF"/>
<path d="M16.8816 35.798C16.8816 35.798 20.4161 34.1666 20.822 34.1666C20.822 34.1666 16.9518 36.0048 16.8816 35.798Z" fill="#D8D8D8"/>
<path d="M17.5497 36.5129C17.5497 36.5129 20.9355 35.058 21.323 35.058C21.323 35.058 17.6165 36.6965 17.5497 36.5129Z" fill="#D8D8D8"/>
<path d="M18.8861 37.0459C18.8861 37.0459 22.4205 35.4146 22.8264 35.4146C22.8264 35.4146 18.9562 37.2528 18.8861 37.0459Z" fill="#D8D8D8"/>
<path d="M60.5762 36.6626C60.5762 42.177 57.9036 53.5999 36.7737 53.5999C19.058 53.5999 14.4929 46.4934 13.3454 40.7632C13.297 40.5225 13.2552 40.2836 13.2185 40.0501C13.611 40.0501 13.9584 40.0501 14.2207 40.0501C14.5648 40.0501 15.1978 39.8058 15.303 39.6935C15.4083 39.5812 14.9857 39.6329 14.9523 39.451C14.8871 39.4029 14.8237 39.353 14.7619 39.3031L14.6533 39.2157L14.6065 39.1765L14.5313 39.1123C14.4963 39.0838 14.4629 39.0535 14.4295 39.0231L14.3309 38.934L14.2374 38.8449C14.1756 38.786 14.1138 38.7254 14.057 38.6666C14.0002 38.6077 13.9551 38.556 13.9066 38.5008C13.7274 38.3001 13.5658 38.0823 13.4239 37.85L13.3821 37.7787C13.32 37.672 13.2642 37.5612 13.2151 37.4471C13.1901 37.39 13.1667 37.333 13.145 37.2688C13.1333 37.2367 13.1216 37.2046 13.1116 37.1725C13.1015 37.1404 13.0898 37.1066 13.0798 37.0745C13.0379 36.9318 13.0072 36.7857 12.9879 36.6377C12.9879 36.6109 12.9879 36.586 12.9879 36.5592C12.9879 36.5325 12.9879 36.5075 12.9879 36.4826C12.9887 36.4778 12.9887 36.473 12.9879 36.4683C13.0013 36.4558 13.033 36.4683 13.0665 36.4826C13.0999 36.4968 13.1483 36.5146 13.15 36.4826C13.2018 37.374 13.6962 38.2262 14.5664 39.0178C14.685 39.1266 14.812 39.2353 14.9473 39.3423C17.1187 41.0681 21.0808 42.4784 26.1002 43.3145C26.3708 43.3591 26.6481 43.4019 26.9354 43.4447L27.5384 43.5338L27.7405 43.5606L28.1647 43.6176H28.1848L28.422 43.6479H28.4604L28.7143 43.6782L29.1135 43.7246L29.3808 43.7531C29.638 43.7816 29.8969 43.8084 30.1591 43.8333L30.9242 43.9011L31.1563 43.9207C31.3924 43.9397 31.6296 43.9575 31.8679 43.9742L32.0516 43.9867L32.7498 44.0295C33.2693 44.058 33.7955 44.0829 34.3267 44.1008H34.4369C34.8094 44.1115 35.1852 44.1222 35.5627 44.1275C35.9703 44.1346 36.3806 44.1382 36.7938 44.1382C37.2069 44.1382 37.6172 44.1346 38.0248 44.1275C38.4023 44.1275 38.7781 44.1115 39.1506 44.1008H39.2609C39.792 44.0829 40.3182 44.058 40.8377 44.0295C41.718 43.9795 42.5832 43.9136 43.4284 43.8333C43.6906 43.8084 43.9495 43.7816 44.2068 43.7531C44.8337 43.6865 45.4462 43.6111 46.0442 43.5267C46.3649 43.4827 46.6822 43.4358 46.9963 43.3858C47.1633 43.3591 47.3303 43.3341 47.4974 43.3056L47.8682 43.2432C48.087 43.2058 48.3025 43.1665 48.5179 43.1255C48.9478 43.0459 49.3676 42.9615 49.7774 42.8724L49.9678 42.8331C50.4311 42.7297 50.8832 42.6228 51.3241 42.5122C51.5246 42.4605 51.7233 42.4088 51.9188 42.3553L52.2228 42.2715L52.3798 42.227C52.6036 42.1628 52.8224 42.0986 53.0379 42.0326C54.56 41.5867 56.035 40.9743 57.4393 40.2052L57.5512 40.1303C57.7901 39.9912 58.0156 39.8468 58.2193 39.7006L58.4214 39.5598C58.54 39.4742 58.6553 39.3815 58.7639 39.2995C58.8006 39.271 58.8374 39.2424 58.8724 39.2121L58.9944 39.1087C59.0295 39.0802 59.0629 39.0499 59.0963 39.0196L59.1948 38.9304L59.2884 38.8413C59.3502 38.7825 59.412 38.7218 59.4688 38.663C59.5256 38.6042 59.5706 38.5525 59.6191 38.4972C59.7984 38.2965 59.9599 38.0787 60.1018 37.8465L60.1436 37.7751C60.2057 37.6684 60.2615 37.5577 60.3106 37.4435C60.3357 37.3865 60.3591 37.3294 60.3808 37.2652C60.3925 37.2331 60.4042 37.2011 60.4142 37.169C60.4242 37.1369 60.4359 37.103 60.4459 37.0709C60.4878 36.9283 60.5185 36.7822 60.5378 36.6341C60.5378 36.6074 60.5378 36.5824 60.5378 36.5557C60.5378 36.5289 60.5378 36.5039 60.5378 36.479C60.5378 36.454 60.5378 36.4629 60.5378 36.4558C60.5745 36.5271 60.5762 36.5949 60.5762 36.6626Z" fill="#353535"/>
<path d="M59.3886 36.4844C58.9777 40.3532 49.0074 43.45 36.7687 43.45C25.0462 43.45 15.405 40.6081 14.2524 36.9693C14.2423 36.942 14.234 36.914 14.2274 36.8855C14.1897 36.7546 14.1634 36.6204 14.1489 36.4844H12.9796C12.9796 36.5093 12.9796 36.5361 12.9796 36.561C12.9796 36.586 12.9796 36.6127 12.9796 36.6395C12.9989 36.7875 13.0296 36.9336 13.0715 37.0763C13.0815 37.1084 13.0915 37.1405 13.1032 37.1743C13.1149 37.2082 13.1249 37.2385 13.1366 37.2706C13.1583 37.3294 13.1817 37.3865 13.2068 37.4489C13.2559 37.563 13.3117 37.6738 13.3738 37.7805L13.4156 37.8518C13.5575 38.0841 13.719 38.3019 13.8983 38.5026C13.9473 38.5584 13.9974 38.6137 14.0486 38.6684C14.1054 38.729 14.1672 38.7896 14.229 38.8467L14.3226 38.9358L14.4211 39.0249C14.4545 39.0553 14.4879 39.0856 14.523 39.1141L14.5982 39.1783L14.645 39.2175L14.7535 39.3049C14.8153 39.3548 14.8788 39.4047 14.9439 39.4528L15.0959 39.5634C15.1611 39.6115 15.2296 39.6579 15.2981 39.7042C15.5102 39.8504 15.7357 39.9948 15.9662 40.1339L16.1065 40.2159C17.5108 40.985 18.9858 41.5974 20.5079 42.0434C20.7234 42.1093 20.9422 42.1735 21.166 42.2377L21.323 42.2823L21.627 42.3661C21.8224 42.4195 22.0212 42.4712 22.2217 42.5229C22.6626 42.6335 23.1136 42.7405 23.578 42.8439L23.7684 42.8831C24.1793 42.9722 24.5991 43.0566 25.0278 43.1363C25.2433 43.1773 25.4588 43.2165 25.6776 43.2539L26.0484 43.3163H26.0651L26.3057 43.3573L26.5428 43.3948L27.0623 43.4732L27.4949 43.5356L27.6971 43.5624L28.1213 43.6194H28.1531L28.3986 43.6497H28.437L28.6909 43.68L29.0901 43.7264L29.3574 43.7549C29.6146 43.7834 29.8752 43.8102 30.1358 43.8351L30.9008 43.9029L31.457 43.9475L32.0199 43.9885L32.7181 44.0313C33.2376 44.0598 33.7638 44.0847 34.2949 44.1026H34.4052C34.7777 44.1133 35.1535 44.124 35.531 44.1293C35.9386 44.1364 36.3489 44.14 36.762 44.14C37.1752 44.14 37.5855 44.1364 37.9931 44.1293C38.3706 44.1293 38.7464 44.1133 39.1189 44.1026H39.2292C39.7603 44.0847 40.2865 44.0598 40.806 44.0313C41.6862 43.9813 42.5515 43.9154 43.3967 43.8351C43.6572 43.8102 43.9178 43.7834 44.1751 43.7549C44.802 43.6884 45.4145 43.6129 46.0124 43.5285C46.3331 43.4845 46.6505 43.4376 46.9645 43.3876C47.1316 43.3609 47.2986 43.3359 47.4656 43.3074L47.8365 43.245C48.0553 43.2076 48.2708 43.1683 48.4862 43.1273C48.9161 43.0477 49.3359 42.9633 49.7457 42.8742L49.9361 42.8349C50.4004 42.7315 50.8514 42.6246 51.2924 42.514C51.4929 42.4623 51.6916 42.4106 51.8871 42.3571L52.1911 42.2733L52.3481 42.2288C52.5719 42.1646 52.7907 42.1004 53.0062 42.0344C54.5283 41.5885 56.0032 40.9761 57.4076 40.207L57.5512 40.1303C57.7901 39.9913 58.0156 39.8469 58.2194 39.7007L58.4215 39.5598C58.5401 39.4742 58.6553 39.3815 58.7639 39.2995L58.8725 39.2121L58.9944 39.1087C59.0295 39.0802 59.0629 39.0499 59.0963 39.0196L59.1948 38.9305L59.2884 38.8413C59.3502 38.7825 59.412 38.7219 59.4688 38.663C59.5256 38.6042 59.5707 38.5525 59.6191 38.4972C59.7984 38.2966 59.96 38.0787 60.1018 37.8465L60.1436 37.7752C60.2057 37.6684 60.2615 37.5577 60.3106 37.4435C60.3357 37.3865 60.3591 37.3294 60.3808 37.2653C60.3925 37.2332 60.4042 37.2011 60.4142 37.169C60.4242 37.1369 60.4359 37.103 60.4459 37.0709C60.4878 36.9283 60.5185 36.7822 60.5378 36.6341C60.5378 36.6074 60.5378 36.5824 60.5378 36.5557C60.5378 36.5289 60.5378 36.504 60.5378 36.479L59.3886 36.4844Z" fill="#444444"/>
<path d="M15.3098 39.6935C15.2046 39.8059 14.5715 40.0501 14.2274 40.0501C13.9585 40.0501 13.611 40.0501 13.2252 40.0501C11.3377 40.0109 8.4029 39.6935 8.13565 37.4132C8.11051 37.1822 8.11051 36.9489 8.13565 36.7179C8.31604 34.7978 12.542 33.0969 14.2274 33.0969C14.4422 33.0736 14.658 33.1296 14.8388 33.2556C14.6168 33.4272 14.4043 33.6123 14.2024 33.8101C13.4039 34.5945 12.9713 35.4342 12.9713 36.3061C12.9713 36.3584 12.9713 36.4101 12.9713 36.4612C12.972 36.4659 12.972 36.4707 12.9713 36.4754C12.9713 36.5004 12.9713 36.5271 12.9713 36.5521C12.9713 36.5771 12.9713 36.6038 12.9713 36.6306C12.9906 36.7786 13.0213 36.9247 13.0632 37.0674C13.0732 37.0994 13.0832 37.1333 13.0949 37.1654C13.1066 37.1975 13.1166 37.2296 13.1283 37.2617C13.15 37.3205 13.1734 37.3776 13.1985 37.44C13.2476 37.5541 13.3034 37.6649 13.3655 37.7716L13.4073 37.8429C13.5491 38.0752 13.7107 38.293 13.89 38.4937C13.939 38.5495 13.9891 38.6048 14.0403 38.6595C14.0971 38.7201 14.1589 38.7807 14.2207 38.8377L14.3143 38.9269L14.4128 39.016C14.4462 39.0463 14.4796 39.0767 14.5147 39.1052L14.5899 39.1694L14.6366 39.2086C14.6717 39.2389 14.7085 39.2674 14.7452 39.2959C14.807 39.3459 15.2213 39.4618 15.2864 39.5099C15.302 39.5178 15.3155 39.5297 15.3257 39.5445C15.3359 39.5594 15.3424 39.5767 15.3448 39.5949C15.3471 39.6132 15.3451 39.6318 15.339 39.649C15.3329 39.6662 15.3229 39.6815 15.3098 39.6935Z" fill="#444444"/>
<path d="M58.5251 39.879C58.338 40.4352 58.0323 41.8401 58.8441 41.8401C59.083 41.8401 59.3853 41.8401 59.7261 41.8401C61.7789 41.8098 65.5723 40.191 65.2783 37.2047V37.0264C65.0111 39.3138 62.0746 40.0127 60.1871 40.0572C59.7946 40.0572 59.4471 40.0572 59.1849 40.0572C58.8341 40.0501 58.6303 39.9913 58.5251 39.879Z" fill="#353535"/>
<path d="M58.0958 39.6935C58.2011 39.8058 58.8341 40.0501 59.1782 40.0501C59.4471 40.0501 59.7946 40.0501 60.1804 40.0501C62.0679 40.0108 65.0027 39.6935 65.27 37.4132C65.2951 37.1822 65.2951 36.9489 65.27 36.7179C65.0812 34.8031 60.8552 33.1022 59.1699 33.1022C58.9551 33.0789 58.7393 33.1349 58.5585 33.2609C58.7805 33.4325 58.9929 33.6176 59.1949 33.8154C59.9933 34.5998 60.426 35.4396 60.426 36.3114C60.426 36.3637 60.426 36.4154 60.426 36.4665C60.4252 36.4712 60.4252 36.476 60.426 36.4808C60.426 36.5057 60.426 36.5325 60.426 36.5574C60.426 36.5824 60.426 36.6091 60.4176 36.6359C60.3983 36.7839 60.3676 36.93 60.3257 37.0727C60.3157 37.1048 60.3057 37.1386 60.294 37.1707C60.2823 37.2028 60.2723 37.2349 60.2606 37.267C60.2389 37.3258 60.2155 37.3829 60.1904 37.4453C60.1413 37.5594 60.0855 37.6702 60.0234 37.7769L59.9816 37.8482C59.8398 38.0805 59.6782 38.2983 59.4989 38.499C59.4499 38.5548 59.3998 38.6101 59.3486 38.6648C59.2918 38.7254 59.23 38.786 59.1682 38.8431L59.0746 38.9322L58.9761 39.0213C58.9427 39.0517 58.9093 39.082 58.8742 39.1105L58.799 39.1747L58.7523 39.2139C58.7172 39.2442 58.6804 39.2727 58.6437 39.3013C58.607 39.3298 58.1676 39.4671 58.1025 39.5152C58.089 39.5249 58.0778 39.5379 58.0699 39.553C58.0619 39.5682 58.0574 39.5852 58.0568 39.6025C58.0561 39.6199 58.0593 39.6372 58.0661 39.653C58.0729 39.6688 58.0831 39.6827 58.0958 39.6935Z" fill="#444444"/>
<path d="M14.9356 39.3441C14.944 39.3797 14.9523 39.4154 14.959 39.4493C14.8938 39.4011 14.8304 39.3512 14.7686 39.3013L14.66 39.2139L14.6132 39.1747L14.5381 39.1105C14.503 39.082 14.4696 39.0517 14.4362 39.0214L14.3376 38.9322L14.2441 38.8431C14.1823 38.7843 14.1205 38.7236 14.0637 38.6648C14.0069 38.606 13.9618 38.5543 13.9134 38.499C13.7341 38.2983 13.5725 38.0805 13.4306 37.8483L13.3889 37.7769C13.3267 37.6702 13.271 37.5595 13.2218 37.4453C13.1968 37.3883 13.1734 37.3312 13.1517 37.267C13.14 37.2349 13.1283 37.2029 13.1183 37.1708C13.1082 37.1387 13.0966 37.1048 13.0865 37.0727C13.0446 36.9301 13.0139 36.784 12.9947 36.6359C12.9947 36.6092 12.9947 36.5842 12.9947 36.5575C12.9947 36.5307 12.9947 36.5058 12.9947 36.4808C12.9954 36.4761 12.9954 36.4713 12.9947 36.4665C12.9947 36.4142 12.9947 36.3625 12.9947 36.3114C12.9947 35.4396 13.4273 34.5999 14.2257 33.8154C14.4277 33.6177 14.6402 33.4325 14.8621 33.2609C15.0007 33.3822 15.0291 33.5729 14.979 33.819C14.9657 33.8885 14.9473 33.9652 14.9256 34.0454C14.8755 34.2237 14.8036 34.4234 14.7268 34.6391C14.513 35.2363 14.2508 35.9602 14.2508 36.7179C14.2508 36.7768 14.2508 36.8338 14.2508 36.8962C14.2508 36.9586 14.2508 37.0174 14.2641 37.0745C14.3443 38.0123 14.7903 38.811 14.9356 39.3441Z" fill="#444444"/>
</g>
<defs>
<filter id="filter0_d_153_1929" x="-4" y="0" width="81" height="81" filterUnits="userSpaceOnUse" color-interpolation-filters="sRGB">
<feFlood flood-opacity="0" result="BackgroundImageFix"/>
<feColorMatrix in="SourceAlpha" type="matrix" values="0 0 0 0 0 0 0 0 0 0 0 0 0 0 0 0 0 0 127 0" result="hardAlpha"/>
<feOffset dy="4"/>
<feGaussianBlur stdDeviation="2"/>
<feComposite in2="hardAlpha" operator="out"/>
<feColorMatrix type="matrix" values="0 0 0 0 0 0 0 0 0 0 0 0 0 0 0 0 0 0 0.25 0"/>
<feBlend mode="normal" in2="BackgroundImageFix" result="effect1_dropShadow_153_1929"/>
<feBlend mode="normal" in="SourceGraphic" in2="effect1_dropShadow_153_1929" result="shape"/>
</filter>
<clipPath id="clip0_153_1929">
<rect width="73" height="73" fill="white"/>
</clipPath>
</defs>
</svg>
