<svg width="47" height="46" viewBox="0 0 47 46" fill="none" xmlns="http://www.w3.org/2000/svg">
<ellipse cx="23.5" cy="23" rx="23.5" ry="23" fill="#D3EFBD"/>
<path d="M39.6293 23.5957C39.3266 24.64 38.8829 25.6274 38.3134 26.5242C37.7355 27.4511 37.0399 28.2804 36.2481 28.9866L24.5512 39.4744C24.2541 39.7503 23.8787 39.901 23.4911 39.9C23.1092 39.8935 22.7398 39.7474 22.4402 39.4845L10.7433 28.9967C9.16047 27.6014 7.98427 25.719 7.36212 23.5856C6.74131 21.4128 6.68374 19.0903 7.19594 16.8829C7.70813 14.6756 8.76949 12.6723 10.259 11.1016C11.6347 9.65993 13.358 8.6916 15.22 8.31392C17.0819 7.93623 19.0027 8.16537 20.7497 8.9736C21.8069 9.48046 22.7449 10.2501 23.4911 11.2232C24.2348 10.2472 25.1735 9.47693 26.2326 8.9736C27.9842 8.1568 29.9124 7.92308 31.7817 8.30095C33.6511 8.67882 35.3808 9.65195 36.7599 11.1016C38.2463 12.6765 39.3035 14.683 39.8108 16.8922C40.3182 19.1014 40.2553 21.4243 39.6293 23.5957Z" fill="#F19F50"/>
<path d="M23.6472 35.5045C23.3658 35.5024 23.0929 35.3969 22.871 35.2045L14.2377 27.4345C13.065 26.4055 12.1915 25.015 11.7267 23.437C11.269 21.8281 11.2275 20.1087 11.6071 18.4749C11.9866 16.8411 12.7719 15.3587 13.8732 14.197C14.8894 13.13 16.1623 12.4133 17.5377 12.1337C18.9131 11.8542 20.3319 12.0238 21.6222 12.622C22.4046 12.9945 23.0979 13.5646 23.6472 14.287C24.1959 13.5638 24.8894 12.9936 25.6722 12.622C26.9623 12.0219 28.3815 11.8513 29.7572 12.1309C31.133 12.4105 32.4059 13.1283 33.4212 14.197C34.5189 15.3567 35.3019 16.8352 35.6813 18.4645C36.0607 20.0939 36.0214 21.8087 35.5677 23.4145C35.1041 24.9892 34.236 26.3788 33.0702 27.412L24.4302 35.1745C24.2109 35.3808 23.9345 35.4973 23.6472 35.5045ZM18.8075 13.4245C17.3001 13.4275 15.8509 14.0716 14.7575 15.2245C13.8286 16.2025 13.1668 17.4517 12.848 18.8288C12.5292 20.2058 12.5664 21.6549 12.9552 23.0095C13.3411 24.3249 14.0693 25.4837 15.0477 26.3395L23.681 34.102L32.2805 26.3395C33.2557 25.4803 33.9831 24.3227 34.373 23.0095C34.7619 21.6549 34.7991 20.2058 34.4803 18.8288C34.1615 17.4517 33.4996 16.2025 32.5707 15.2245C31.728 14.342 30.6729 13.7504 29.5333 13.5214C28.3938 13.2924 27.219 13.4359 26.1515 13.9345C25.3489 14.3545 24.6633 15.0075 24.167 15.8245L23.6607 16.5745L23.1545 15.8245C22.6566 15.0137 21.9742 14.3641 21.1767 13.942C20.4238 13.6035 19.6197 13.4278 18.8075 13.4245Z" fill="#4B674E"/>
</svg>
