<svg width="73" height="73" viewBox="0 0 73 73" fill="none" xmlns="http://www.w3.org/2000/svg">
<path d="M62.1475 30.7443C62.153 31.1317 62.112 31.5183 62.0255 31.896C62.064 31.5055 62.1114 31.1257 62.1475 30.7443Z" fill="#5E422B"/>
<path d="M61.2377 33.7569C58.1893 38.6411 47.8142 42.4833 35.3826 42.8445C22.951 43.2056 12.3516 40.0224 9.00828 35.3298C10.1855 33.4453 12.4512 31.7143 15.5177 30.2795C20.3823 27.9975 27.2397 26.4577 34.883 26.2359C41.2199 26.043 47.0798 26.7804 51.7445 28.1713C56.2215 29.5118 59.6009 31.4549 61.2377 33.7569Z" fill="#4C371D"/>
<path d="M62.1481 30.6626C62.1503 30.6922 62.1509 30.7219 62.1499 30.7517C62.1139 31.1331 62.0754 31.5154 62.0279 31.9034C61.8716 32.5635 61.6052 33.1926 61.24 33.7643C59.6056 31.4616 56.2238 29.5193 51.737 28.1819C47.0723 26.7911 41.2124 26.0536 34.8755 26.2465C27.2346 26.4757 20.3748 28.0082 15.5102 30.2902C12.4437 31.7249 10.1853 33.4536 9.00076 35.3405C8.35056 34.4747 7.97119 33.4358 7.91041 32.3547C7.9048 32.3375 7.8992 32.3203 7.89439 32.3056C7.70525 26.0219 19.6963 20.5736 34.6698 20.1122C49.5362 19.6641 61.7591 24.3162 62.1212 30.5299C62.143 30.5636 62.1443 30.6094 62.1481 30.6626Z" fill="#5E422B"/>
<path d="M62.1613 31.1286C62.1627 31.1585 62.1625 31.1885 62.1607 31.2185C62.1263 31.5967 62.0862 31.9822 62.0403 32.3669C61.8851 33.0281 61.6189 33.6581 61.2532 34.2303C59.6188 31.9276 56.2362 29.9828 51.7469 28.6463C47.0855 27.2571 41.2255 26.5196 34.8879 26.71C27.2454 26.9426 20.3855 28.475 15.5209 30.757C12.4544 32.1917 10.1961 33.9204 9.01149 35.8073C8.36019 34.9421 7.98069 33.9028 7.92114 32.8215C7.91441 32.8056 7.90905 32.7892 7.90512 32.7724C7.71598 26.4887 19.7045 21.0412 34.6806 20.5791C49.5445 20.1317 61.7698 24.783 62.1294 30.9976C62.1426 31.0406 62.1533 31.0843 62.1613 31.1286Z" fill="#AC5226"/>
<path d="M62.1477 30.7279C62.1477 30.7279 62.1477 30.7279 62.1525 30.7426C62.1535 30.7129 62.1528 30.6832 62.1506 30.6535C62.137 30.6117 62.1479 30.562 62.1434 30.5145C62.1559 30.585 62.1574 30.657 62.1477 30.7279Z" fill="#5E422B"/>
<path d="M23.881 32.6748C23.8212 31.199 34.5525 30.7425 35.486 28.1272C36.4195 25.512 43.0072 24.9628 44.1834 26.7026C47.4539 31.5304 52.6157 27.9253 52.9559 28.7686C53.2962 29.612 48.9323 35.5478 46.5818 34.0087C44.2313 32.4696 36.4589 37.4069 37.4885 34.4695C38.5182 31.532 32.0058 36.9068 30.9277 34.6674C29.8496 32.428 24.1091 38.1275 23.881 32.6748Z" stroke="#E5CA76" stroke-width="2.30622" stroke-miterlimit="10"/>
<path d="M20.8591 35.7561C20.7897 33.8756 31.5195 33.3896 32.4306 30.0803C33.3417 26.7709 40.4187 25.0291 41.438 27.3882C42.4573 29.7474 50.2827 30.7847 50.6313 31.8537C50.9798 32.9227 45.9415 39.6085 43.5775 37.6361C41.2135 35.6637 33.4803 41.8633 34.4741 38.1573C35.4679 34.4512 29.011 41.2053 27.9157 38.3544C26.8203 35.5035 21.1208 42.6795 20.8591 35.7561Z" stroke="#E5CA76" stroke-width="2.59959" stroke-miterlimit="10"/>
<path d="M42.2795 35.8137C42.2158 37.2863 33.3865 36.8889 32.4086 39.418C31.4307 41.9471 25.5089 42.7877 24.8456 40.8698C24.1822 38.9519 17.8607 37.5575 17.6514 36.6905C17.4422 35.8235 22.05 30.9528 23.8394 32.6721C25.6288 34.3914 32.4038 30.0973 31.3233 32.9372C30.2428 35.777 36.0086 30.9474 36.7012 33.2636C37.3938 35.5797 42.5581 30.3644 42.2795 35.8137Z" stroke="#E5CA76" stroke-width="1.39351" stroke-miterlimit="10"/>
<path d="M54.7279 32.8696C54.6642 34.3421 43.923 33.826 42.7604 36.3473C41.5979 38.8687 34.4072 39.6281 33.5779 37.7099C32.7486 35.7918 25.0316 34.3032 24.7668 33.4326C24.502 32.5619 30.042 27.7488 32.2449 29.4938C34.4477 31.2387 42.6338 27.0282 41.3564 29.8561C40.079 32.6841 47.0345 27.9261 47.9052 30.2548C48.7759 32.5836 54.9951 27.4186 54.7279 32.8696Z" stroke="#E5CA76" stroke-width="2.30622" stroke-miterlimit="10"/>
<path d="M52.8191 36.2787C52.7554 37.7512 42.0175 37.2367 40.8516 39.7564C39.6858 42.2761 32.4992 43.0396 31.6716 41.1182C30.8439 39.1968 23.122 37.7098 22.8605 36.8408C22.5989 35.9719 28.1349 31.1546 30.3353 32.9004C32.5356 34.6461 40.7242 30.4348 39.4476 33.2652C38.171 36.0956 45.1257 31.3351 45.9956 33.6614C46.8655 35.9877 53.0863 30.8276 52.8191 36.2787Z" stroke="#E5CA76" stroke-width="2.30622" stroke-miterlimit="10"/>
<path d="M56.6534 36.532C56.5897 38.0045 45.8485 37.4883 44.6859 40.0097C43.5234 42.531 36.3287 43.2782 35.5034 41.3723C34.6781 39.4664 26.9563 37.9631 26.6923 37.0949C26.4282 36.2268 31.9675 31.4112 34.1704 33.1561C36.3732 34.901 44.5593 30.6906 43.2819 33.5185C42.0045 36.3465 48.9599 31.5884 49.8306 33.9172C50.7014 36.246 56.9222 31.0859 56.6534 36.532Z" stroke="#E5CA76" stroke-width="2.30622" stroke-miterlimit="10"/>
<path d="M57.251 34.5047C57.1874 35.9772 46.4462 35.461 45.2812 37.9832C44.1161 40.5054 36.9239 41.2517 36.1011 39.345C35.2782 37.4384 27.554 35.9358 27.2899 35.0677C27.0259 34.1995 32.5652 29.3839 34.7656 31.1296C36.966 32.8753 45.157 28.6633 43.8771 31.492C42.5973 34.3208 49.5576 29.5612 50.4283 31.8899C51.2991 34.2187 57.5182 29.0537 57.251 34.5047Z" stroke="#E5CA76" stroke-width="2.30622" stroke-miterlimit="10"/>
<path d="M58.8665 38.1921C58.8036 39.667 48.0624 39.1508 46.8999 41.6722C45.7373 44.1936 38.5426 44.9407 37.7173 43.0348C36.892 41.129 29.1702 39.6256 28.9062 38.7575C28.6422 37.8893 34.1806 33.0713 36.3835 34.8162C38.5863 36.5611 46.7724 32.3507 45.4934 35.1819C44.2143 38.013 51.1739 33.251 52.0438 35.5773C52.9137 37.9036 59.1313 32.7336 58.8665 38.1921Z" stroke="#E5CA76" stroke-width="2.30622" stroke-miterlimit="10"/>
<path d="M45.9775 33.3058C45.9138 34.7783 35.1751 34.2613 34.01 36.7835C32.845 39.3057 25.6568 40.0643 24.8299 38.1453C24.0031 36.2264 16.2804 34.7369 16.0188 33.8679C15.7573 32.999 21.2941 28.1842 23.4945 29.9299C25.6948 31.6757 33.8834 27.4644 32.606 30.2924C31.3286 33.1203 38.2865 28.3615 39.1572 30.6902C40.0279 33.019 46.2447 27.8548 45.9775 33.3058Z" stroke="#E5CA76" stroke-width="2.30622" stroke-miterlimit="10"/>
<path d="M52.0812 38.9851C52.0175 40.4576 41.2763 39.9414 40.1137 42.4628C38.9511 44.9842 31.7564 45.7313 30.9312 43.8254C30.1059 41.9196 22.3849 40.4187 22.1201 39.5481C21.8552 38.6774 27.3953 33.8643 29.5957 35.61C31.796 37.3558 39.987 33.1437 38.7072 35.9725C37.4273 38.8012 44.3877 34.0416 45.2584 36.3703C46.1291 38.6991 52.3484 33.534 52.0812 38.9851Z" stroke="#E5CA76" stroke-width="2.30622" stroke-miterlimit="10"/>
<path d="M55.5707 38.5733C55.5071 40.0458 44.7667 39.5321 43.6033 42.051C42.4399 44.5699 35.2508 45.3342 34.4207 43.4136C33.5907 41.493 25.8736 40.0044 25.6096 39.1362C25.3456 38.2681 30.8841 33.45 33.0869 35.195C35.2897 36.9399 43.4758 32.7294 42.1992 35.5598C40.9226 38.3902 47.8773 33.6298 48.7472 35.9561C49.6171 38.2824 55.8379 33.1222 55.5707 38.5733Z" stroke="#E5CA76" stroke-width="2.30622" stroke-miterlimit="10"/>
<path d="M59.016 36.107C58.9524 37.5795 48.2119 37.0658 47.0486 39.5847C45.8852 42.1036 38.6961 42.8679 37.866 40.9473C37.0359 39.0267 29.3189 37.5381 29.0549 36.6699C28.7909 35.8018 34.3294 30.9837 36.5322 32.7287C38.735 34.4736 46.9211 30.2631 45.6445 33.0935C44.3679 35.9239 51.3226 31.1634 52.1925 33.4897C53.0624 35.816 59.2832 30.6559 59.016 36.107Z" stroke="#E5CA76" stroke-width="1.53205" stroke-miterlimit="10"/>
<path d="M42.9896 36.5908C42.926 38.0633 32.1848 37.5472 31.0197 40.0693C29.8547 42.5915 22.6673 43.3526 21.8396 41.4311C21.012 39.5097 13.2933 38.0244 13.0285 37.1538C12.7637 36.2831 18.3038 31.47 20.5041 33.2157C22.7045 34.9615 30.8955 30.7494 29.6157 33.5782C28.3358 36.4069 35.2962 31.6473 36.1669 33.976C37.0376 36.3048 43.2568 31.1398 42.9896 36.5908Z" stroke="#E5CA76" stroke-width="1.53205" stroke-miterlimit="10"/>
<path d="M49.0176 32.6409C48.9548 34.1158 38.2135 33.5996 37.0502 36.1185C35.8868 38.6374 28.6977 39.4018 27.8676 37.4812C27.0375 35.5606 19.3205 34.072 19.0565 33.2038C18.7925 32.3356 24.331 27.5176 26.5338 29.2625C28.7366 31.0074 36.9227 26.797 35.6436 29.6282C34.3646 32.4594 41.3241 27.6973 42.1941 30.0236C43.064 32.3499 49.2848 27.1898 49.0176 32.6409Z" stroke="#E5CA76" stroke-width="2.30622" stroke-miterlimit="10"/>
<path d="M42.5496 29.5298C42.7241 31.3243 32.0337 32.4146 31.3054 35.6426C30.5771 38.8706 23.6017 40.949 22.457 38.7558C21.3124 36.5626 13.4462 36.0171 13.0392 35.0107C12.6322 34.0042 17.3028 27.2997 19.7688 29.0512C22.2348 30.8028 29.6203 24.4038 28.8298 28.0246C28.0392 31.6453 34.1176 24.7808 35.3653 27.4488C36.6131 30.1168 41.9049 22.9079 42.5496 29.5298Z" stroke="#E5CA76" stroke-width="1.69503" stroke-miterlimit="10"/>
<path d="M49.9135 36.1059C49.8217 37.8839 38.0402 37.329 36.7442 40.3751C35.4482 43.4211 27.5491 44.3843 26.6489 42.0652C25.7487 39.7461 17.2805 38.013 16.9972 36.969C16.7139 35.9249 22.8288 30.0816 25.2215 32.1752C27.6141 34.2687 36.6498 29.137 35.2279 32.5557C33.806 35.9745 41.4793 30.1913 42.4189 32.9897C43.3585 35.7881 50.242 29.5338 49.9135 36.1059Z" stroke="#E5CA76" stroke-width="2.64848" stroke-miterlimit="10"/>
<path d="M40.6925 35.366C40.6297 36.8409 29.8909 36.324 28.7259 38.8461C27.5608 41.3683 20.3726 42.1269 19.5458 40.2079C18.719 38.289 10.9963 36.7995 10.7347 35.9305C10.4731 35.0616 16.0091 30.2444 18.2095 31.9901C20.4099 33.7358 28.5984 29.5246 27.3218 32.355C26.0452 35.1853 33.0024 30.4241 33.8723 32.7504C34.7422 35.0767 40.9597 29.9149 40.6925 35.366Z" stroke="#E5CA76" stroke-width="2.30622" stroke-miterlimit="10"/>
<path d="M37.7598 30.2842L37.3442 29.6082L36.862 29.9047L37.2777 30.5807L37.7598 30.2842Z" fill="#43B549"/>
<path d="M37.2708 30.5769C37.3389 30.535 37.3013 30.3502 37.1869 30.1642C37.0725 29.9781 36.9246 29.8612 36.8565 29.9031C36.7884 29.945 36.8259 30.1298 36.9403 30.3158C37.0547 30.5019 37.2027 30.6187 37.2708 30.5769Z" fill="#43B549"/>
<path d="M37.7534 30.2798C37.8215 30.2379 37.784 30.0531 37.6696 29.8671C37.5552 29.681 37.4072 29.5641 37.3391 29.606C37.271 29.6479 37.3086 29.8326 37.423 30.0187C37.5374 30.2047 37.6853 30.3216 37.7534 30.2798Z" fill="#389B47"/>
<path d="M35.6574 30.5706L35.1889 29.8088L34.6473 30.1418L35.1157 30.9036L35.6574 30.5706Z" fill="#43B549"/>
<path d="M35.1064 30.903C35.1842 30.8551 35.1425 30.6458 35.0131 30.4354C34.8837 30.225 34.7158 30.0933 34.638 30.1411C34.5601 30.189 34.6019 30.3983 34.7313 30.6087C34.8606 30.8191 35.0286 30.9508 35.1064 30.903Z" fill="#43B549"/>
<path d="M35.6499 30.5692C35.7278 30.5213 35.6859 30.312 35.5566 30.1016C35.4272 29.8912 35.2593 29.7595 35.1815 29.8073C35.1037 29.8552 35.1454 30.0645 35.2748 30.2749C35.4041 30.4853 35.5721 30.617 35.6499 30.5692Z" fill="#389B47"/>
<path d="M35.4946 32.109L35.0789 31.433L34.5968 31.7295L35.0124 32.4055L35.4946 32.109Z" fill="#43B549"/>
<path d="M35.0065 32.4C35.0746 32.3581 35.0371 32.1733 34.9226 31.9873C34.8082 31.8012 34.6603 31.6844 34.5922 31.7262C34.5241 31.7681 34.5616 31.9529 34.676 32.1389C34.7905 32.325 34.9384 32.4419 35.0065 32.4Z" fill="#43B549"/>
<path d="M35.4868 32.1042C35.5549 32.0623 35.5173 31.8776 35.4029 31.6915C35.2885 31.5055 35.1406 31.3886 35.0725 31.4305C35.0044 31.4723 35.0419 31.6571 35.1563 31.8432C35.2707 32.0292 35.4187 32.1461 35.4868 32.1042Z" fill="#389B47"/>
<path d="M37.9299 33.4497L37.5143 32.7737L37.0321 33.0702L37.4477 33.7462L37.9299 33.4497Z" fill="#43B549"/>
<path d="M37.444 33.7368C37.5121 33.6949 37.4745 33.5101 37.3601 33.3241C37.2457 33.138 37.0978 33.0212 37.0297 33.063C36.9616 33.1049 36.9991 33.2897 37.1135 33.4757C37.2279 33.6618 37.3759 33.7787 37.444 33.7368Z" fill="#43B549"/>
<path d="M37.9252 33.4434C37.9933 33.4016 37.9557 33.2168 37.8413 33.0308C37.7269 32.8447 37.579 32.7278 37.5109 32.7697C37.4428 32.8116 37.4803 32.9964 37.5947 33.1824C37.7091 33.3685 37.8571 33.4853 37.9252 33.4434Z" fill="#389B47"/>
<path d="M36.8851 30.3443L36.127 30.1099L35.9598 30.6507L36.7179 30.8851L36.8851 30.3443Z" fill="#43B549"/>
<path d="M36.763 30.8797C36.7866 30.8034 36.6366 30.6891 36.4279 30.6246C36.2192 30.5601 36.0309 30.5697 36.0073 30.6461C35.9837 30.7225 36.1337 30.8367 36.3424 30.9012C36.551 30.9657 36.7393 30.9561 36.763 30.8797Z" fill="#43B549"/>
<path d="M36.9277 30.3388C36.9513 30.2625 36.8013 30.1482 36.5926 30.0837C36.384 30.0192 36.1957 30.0288 36.1721 30.1052C36.1484 30.1816 36.2985 30.2958 36.5071 30.3603C36.7158 30.4248 36.9041 30.4152 36.9277 30.3388Z" fill="#389B47"/>
<path d="M37.8383 31.0142L37.189 30.558L36.8636 31.0212L37.5128 31.4774L37.8383 31.0142Z" fill="#43B549"/>
<path d="M37.5243 31.4782C37.5703 31.4128 37.4627 31.258 37.284 31.1324C37.1052 31.0068 36.9231 30.9581 36.8771 31.0235C36.8312 31.0889 36.9388 31.2437 37.1175 31.3693C37.2962 31.4948 37.4784 31.5436 37.5243 31.4782Z" fill="#43B549"/>
<path d="M37.846 31.0166C37.8919 30.9512 37.7843 30.7964 37.6056 30.6708C37.4269 30.5453 37.2448 30.4965 37.1988 30.5619C37.1528 30.6273 37.2605 30.7822 37.4392 30.9077C37.6179 31.0333 37.8 31.0821 37.846 31.0166Z" fill="#389B47"/>
<path d="M37.2826 31.3158L36.4893 31.2975L36.4762 31.8634L37.2695 31.8817L37.2826 31.3158Z" fill="#43B549"/>
<path d="M37.2477 31.8889C37.2496 31.809 37.0741 31.7401 36.8557 31.7351C36.6374 31.7301 36.4589 31.7908 36.457 31.8707C36.4552 31.9506 36.6307 32.0195 36.849 32.0245C37.0674 32.0295 37.2459 31.9689 37.2477 31.8889Z" fill="#43B549"/>
<path d="M37.2616 31.3264C37.2634 31.2465 37.0879 31.1776 36.8696 31.1725C36.6512 31.1675 36.4727 31.2282 36.4709 31.3081C36.469 31.388 36.6445 31.4569 36.8629 31.4619C37.0812 31.467 37.2598 31.4063 37.2616 31.3264Z" fill="#389B47"/>
<path d="M38.4278 31.9385L38.0122 31.2625L37.53 31.559L37.9456 32.235L38.4278 31.9385Z" fill="#43B549"/>
<path d="M37.9412 32.2279C38.0093 32.186 37.9717 32.0012 37.8573 31.8152C37.7429 31.6291 37.595 31.5122 37.5269 31.5541C37.4588 31.596 37.4963 31.7808 37.6107 31.9668C37.7251 32.1529 37.8731 32.2697 37.9412 32.2279Z" fill="#43B549"/>
<path d="M38.4217 31.9321C38.4898 31.8902 38.4522 31.7055 38.3378 31.5194C38.2234 31.3334 38.0755 31.2165 38.0074 31.2583C37.9393 31.3002 37.9768 31.485 38.0912 31.6711C38.2056 31.8571 38.3536 31.974 38.4217 31.9321Z" fill="#389B47"/>
<path d="M38.6381 32.9317L38.7019 32.1407L38.1377 32.0952L38.0739 32.8862L38.6381 32.9317Z" fill="#43B549"/>
<path d="M38.315 32.5322C38.3326 32.3145 38.2822 32.1328 38.2025 32.1264C38.1229 32.1199 38.044 32.2912 38.0265 32.5089C38.0089 32.7266 38.0593 32.9083 38.1389 32.9147C38.2186 32.9211 38.2974 32.7499 38.315 32.5322Z" fill="#43B549"/>
<path d="M38.8769 32.5798C38.8945 32.3621 38.8441 32.1804 38.7645 32.174C38.6848 32.1675 38.6059 32.3388 38.5884 32.5565C38.5708 32.7742 38.6212 32.9559 38.7009 32.9623C38.7805 32.9688 38.8594 32.7975 38.8769 32.5798Z" fill="#389B47"/>
<path d="M39.2964 31.8181L39.3147 31.0248L38.7488 31.0118L38.7305 31.8051L39.2964 31.8181Z" fill="#43B549"/>
<path d="M38.8549 31.3996C38.86 31.1812 38.7992 31.0027 38.7193 31.0009C38.6394 30.999 38.5705 31.1745 38.5655 31.3929C38.5605 31.6113 38.6212 31.7898 38.7011 31.7916C38.781 31.7935 38.8499 31.6179 38.8549 31.3996Z" fill="#43B549"/>
<path d="M39.4202 31.4135C39.4253 31.1951 39.3646 31.0166 39.2846 31.0148C39.2047 31.0129 39.1358 31.1884 39.1308 31.4068C39.1258 31.6251 39.1865 31.8036 39.2664 31.8055C39.3463 31.8073 39.4152 31.6318 39.4202 31.4135Z" fill="#389B47"/>
<path d="M39.1578 30.8563L38.7422 30.1804L38.26 30.4769L38.6756 31.1528L39.1578 30.8563Z" fill="#43B549"/>
<path d="M38.669 31.1464C38.7371 31.1045 38.6996 30.9197 38.5852 30.7337C38.4707 30.5476 38.3228 30.4308 38.2547 30.4726C38.1866 30.5145 38.2241 30.6993 38.3386 30.8853C38.453 31.0714 38.6009 31.1883 38.669 31.1464Z" fill="#43B549"/>
<path d="M39.1501 30.8531C39.2182 30.8112 39.1806 30.6264 39.0662 30.4404C38.9518 30.2543 38.8039 30.1374 38.7358 30.1793C38.6677 30.2212 38.7052 30.406 38.8196 30.592C38.934 30.7781 39.082 30.8949 39.1501 30.8531Z" fill="#389B47"/>
<path d="M34.3884 30.4955L33.7667 29.8527L33.3096 30.2947L33.9314 30.9375L34.3884 30.4955Z" fill="#43B549"/>
<path d="M33.9182 30.935C33.9838 30.8715 33.8979 30.6761 33.7262 30.4986C33.5545 30.3211 33.3621 30.2287 33.2964 30.2922C33.2307 30.3557 33.3167 30.5511 33.4884 30.7286C33.6601 30.9061 33.8525 30.9985 33.9182 30.935Z" fill="#43B549"/>
<path d="M34.3774 30.4907C34.443 30.4272 34.3571 30.2318 34.1854 30.0543C34.0137 29.8768 33.8212 29.7844 33.7556 29.8479C33.6899 29.9114 33.7758 30.1068 33.9475 30.2843C34.1193 30.4618 34.3117 30.5542 34.3774 30.4907Z" fill="#389B47"/>
<path d="M33.0104 31.9749L32.5947 31.2989L32.1125 31.5954L32.5282 32.2714L33.0104 31.9749Z" fill="#43B549"/>
<path d="M32.5229 32.2649C32.591 32.2231 32.5535 32.0383 32.4391 31.8522C32.3247 31.6662 32.1767 31.5493 32.1086 31.5912C32.0405 31.6331 32.0781 31.8178 32.1925 32.0039C32.3069 32.1899 32.4548 32.3068 32.5229 32.2649Z" fill="#43B549"/>
<path d="M33.0034 31.9691C33.0715 31.9272 33.034 31.7424 32.9196 31.5564C32.8052 31.3703 32.6572 31.2535 32.5891 31.2953C32.521 31.3372 32.5586 31.522 32.673 31.708C32.7874 31.8941 32.9353 32.011 33.0034 31.9691Z" fill="#389B47"/>
<path d="M33.2162 33.0556L32.8006 32.3796L32.3184 32.6761L32.734 33.3521L33.2162 33.0556Z" fill="#43B549"/>
<path d="M32.7267 33.3462C32.7948 33.3043 32.7573 33.1196 32.6429 32.9335C32.5285 32.7475 32.3805 32.6306 32.3124 32.6725C32.2443 32.7143 32.2819 32.8991 32.3963 33.0852C32.5107 33.2712 32.6586 33.3881 32.7267 33.3462Z" fill="#43B549"/>
<path d="M33.2093 33.0491C33.2774 33.0072 33.2398 32.8225 33.1254 32.6364C33.011 32.4504 32.8631 32.3335 32.795 32.3753C32.7269 32.4172 32.7644 32.602 32.8788 32.788C32.9932 32.9741 33.1412 33.091 33.2093 33.0491Z" fill="#389B47"/>
<path d="M34.9641 33.816L34.5484 33.1401L34.0662 33.4366L34.4819 34.1125L34.9641 33.816Z" fill="#43B549"/>
<path d="M34.4789 34.1071C34.547 34.0652 34.5095 33.8805 34.3951 33.6944C34.2807 33.5083 34.1327 33.3915 34.0646 33.4333C33.9965 33.4752 34.0341 33.66 34.1485 33.846C34.2629 34.0321 34.4108 34.149 34.4789 34.1071Z" fill="#43B549"/>
<path d="M34.9571 33.8121C35.0252 33.7702 34.9876 33.5855 34.8732 33.3994C34.7588 33.2134 34.6109 33.0965 34.5428 33.1383C34.4747 33.1802 34.5122 33.365 34.6266 33.5511C34.741 33.7371 34.889 33.854 34.9571 33.8121Z" fill="#389B47"/>
<path d="M34.4716 31.2077L33.6172 30.9435L33.4293 31.551L34.2837 31.8152L34.4716 31.2077Z" fill="#43B549"/>
<path d="M34.332 31.8091C34.359 31.7219 34.1896 31.592 33.9537 31.519C33.7177 31.4461 33.5046 31.4577 33.4776 31.545C33.4506 31.6322 33.62 31.7621 33.8559 31.8351C34.0919 31.9081 34.305 31.8964 34.332 31.8091Z" fill="#43B549"/>
<path d="M34.5167 31.201C34.5437 31.1137 34.3743 30.9838 34.1384 30.9109C33.9025 30.8379 33.6893 30.8495 33.6623 30.9368C33.6353 31.0241 33.8047 31.154 34.0407 31.2269C34.2766 31.2999 34.4898 31.2883 34.5167 31.201Z" fill="#389B47"/>
<path d="M33.433 30.9515L32.7012 30.4374L32.3357 30.9577L33.0674 31.4718L33.433 30.9515Z" fill="#43B549"/>
<path d="M33.081 31.4752C33.1336 31.4004 33.0123 31.2247 32.8103 31.0827C32.6082 30.9408 32.4018 30.8863 32.3493 30.961C32.2968 31.0358 32.418 31.2115 32.6201 31.3535C32.8221 31.4954 33.0285 31.5499 33.081 31.4752Z" fill="#43B549"/>
<path d="M33.4466 30.9548C33.4991 30.88 33.3778 30.7043 33.1758 30.5623C32.9737 30.4204 32.7673 30.3659 32.7148 30.4406C32.6623 30.5154 32.7835 30.6911 32.9856 30.8331C33.1876 30.975 33.394 31.0295 33.4466 30.9548Z" fill="#389B47"/>
<path d="M34.336 32.2375L33.5427 32.2192L33.5296 32.7851L34.3229 32.8034L34.336 32.2375Z" fill="#43B549"/>
<path d="M34.3027 32.8101C34.3046 32.7302 34.1291 32.6613 33.9107 32.6563C33.6923 32.6513 33.5139 32.7119 33.512 32.7919C33.5102 32.8718 33.6857 32.9407 33.904 32.9457C34.1224 32.9507 34.3009 32.89 34.3027 32.8101Z" fill="#43B549"/>
<path d="M34.3166 32.2449C34.3185 32.165 34.143 32.0961 33.9246 32.0911C33.7063 32.0861 33.5278 32.1468 33.5259 32.2267C33.5241 32.3066 33.6996 32.3755 33.9179 32.3805C34.1363 32.3856 34.3148 32.3248 34.3166 32.2449Z" fill="#389B47"/>
<path d="M36.2101 33.0071L35.7416 32.2453L35.2 32.5784L35.6685 33.3402L36.2101 33.0071Z" fill="#43B549"/>
<path d="M35.6642 33.3355C35.7421 33.2877 35.7003 33.0783 35.5709 32.8679C35.4416 32.6576 35.2736 32.5258 35.1958 32.5737C35.118 32.6215 35.1597 32.8309 35.2891 33.0412C35.4185 33.2516 35.5864 33.3834 35.6642 33.3355Z" fill="#43B549"/>
<path d="M36.2044 33.0009C36.2822 32.953 36.2404 32.7437 36.111 32.5333C35.9817 32.3229 35.8137 32.1912 35.7359 32.239C35.6581 32.2869 35.6999 32.4962 35.8292 32.7066C35.9586 32.917 36.1265 33.0487 36.2044 33.0009Z" fill="#389B47"/>
<path d="M36.361 33.8797L36.4248 33.0888L35.8606 33.0433L35.7968 33.8342L36.361 33.8797Z" fill="#43B549"/>
<path d="M36.0365 33.4799C36.054 33.2622 36.0037 33.0805 35.924 33.0741C35.8443 33.0677 35.7655 33.2389 35.7479 33.4566C35.7304 33.6743 35.7807 33.856 35.8604 33.8625C35.9401 33.8689 36.0189 33.6976 36.0365 33.4799Z" fill="#43B549"/>
<path d="M36.6013 33.5251C36.6188 33.3074 36.5685 33.1258 36.4888 33.1193C36.4091 33.1129 36.3303 33.2842 36.3127 33.5019C36.2952 33.7196 36.3455 33.9013 36.4252 33.9077C36.5049 33.9141 36.5837 33.7428 36.6013 33.5251Z" fill="#389B47"/>
<path d="M38.0973 31.3788L38.1173 30.488L37.484 30.4738L37.464 31.3645L38.0973 31.3788Z" fill="#43B549"/>
<path d="M36.6991 32.4023C36.7048 32.1554 36.6354 31.9536 36.544 31.9514C36.4527 31.9493 36.374 32.1478 36.3683 32.3947C36.3626 32.6416 36.432 32.8434 36.5234 32.8456C36.6147 32.8477 36.6934 32.6492 36.6991 32.4023Z" fill="#43B549"/>
<path d="M37.3335 32.4185C37.3392 32.1716 37.2698 31.9698 37.1785 31.9676C37.0871 31.9655 37.0084 32.164 37.0027 32.4109C36.9971 32.6578 37.0665 32.8596 37.1578 32.8617C37.2492 32.8638 37.3278 32.6654 37.3335 32.4185Z" fill="#389B47"/>
<path d="M36.1272 31.5615L35.7115 30.8856L35.2294 31.1821L35.645 31.858L36.1272 31.5615Z" fill="#43B549"/>
<path d="M35.6372 31.8538C35.7053 31.812 35.6677 31.6272 35.5533 31.4412C35.4389 31.2551 35.291 31.1382 35.2229 31.1801C35.1548 31.222 35.1923 31.4067 35.3067 31.5928C35.4211 31.7788 35.5691 31.8957 35.6372 31.8538Z" fill="#43B549"/>
<path d="M36.1199 31.5567C36.188 31.5148 36.1505 31.33 36.0361 31.144C35.9217 30.9579 35.7737 30.841 35.7057 30.8829C35.6376 30.9248 35.6751 31.1096 35.7895 31.2956C35.9039 31.4817 36.0518 31.5985 36.1199 31.5567Z" fill="#389B47"/>
<path d="M30.7607 29.7195C30.3503 31.963 28.7779 32.4186 27.0022 32.0922C25.2265 31.7658 23.9162 30.782 24.3274 28.541C24.7386 26.2999 26.6999 24.0103 28.4772 24.3334C30.2545 24.6565 31.1637 27.4784 30.7607 29.7195Z" fill="#FCEFCE"/>
<path d="M28.1494 31.6828C29.2148 31.3355 29.7969 30.1902 29.4495 29.1248C29.1022 28.0594 27.9569 27.4773 26.8915 27.8247C25.8261 28.172 25.244 29.3173 25.5913 30.3827C25.9387 31.4481 27.084 32.0302 28.1494 31.6828Z" fill="#F6C048"/>
<path d="M23.3922 29.4331C24.0989 31.6006 22.9184 32.7494 21.1974 33.2996C19.4765 33.8498 17.8588 33.5997 17.1644 31.4282C16.4701 29.2567 17.127 26.3103 18.8504 25.7593C20.5739 25.2082 22.701 27.2714 23.3922 29.4331Z" fill="#FCEFCE"/>
<path d="M21.19 32.9268C22.2554 32.5795 22.8375 31.4342 22.4901 30.3687C22.1428 29.3033 20.9975 28.7213 19.932 29.0686C18.8666 29.416 18.2846 30.5613 18.6319 31.6267C18.9793 32.6921 20.1245 33.2742 21.19 32.9268Z" fill="#F6C048"/>
<path d="M51.0607 31.7191C49.6198 31.4874 48.143 31.6442 46.7828 32.1732C42.7534 33.7398 40.4506 37.5002 41.6408 40.5839C41.8387 41.1567 42.179 41.6699 42.6298 42.075C43.0805 42.4802 43.6269 42.7642 44.2175 42.9001C42.7933 42.7011 41.6881 41.9631 41.1135 40.4839C39.9174 37.4076 42.2162 33.6431 46.2554 32.0733C47.7859 31.478 49.4595 31.3547 51.0607 31.7191Z" fill="#896929"/>
<path d="M49.793 41.8653C47.7041 42.6795 45.7707 43.1033 44.2296 42.8961C43.639 42.7602 43.0926 42.4762 42.6419 42.071C42.1911 41.6659 41.8508 41.1527 41.6529 40.5799C40.4569 37.5035 42.7581 33.7382 46.7949 32.1692C48.1551 31.6402 49.6318 31.4834 51.0728 31.7152C53.3345 32.2229 55.219 33.6502 55.9352 35.4965C57.1189 38.5769 53.8224 40.2987 49.793 41.8653Z" fill="#E0B762"/>
<path d="M43.5486 37.3465C44.172 34.5306 47.079 32.6068 50.0342 33.057C52.4039 33.4126 53.9226 35.5274 53.4255 37.7801C53.0262 39.5823 51.1536 40.8181 49.2706 40.5294C47.7526 40.3012 46.779 38.9494 47.0999 37.5072C47.2446 36.9355 47.5971 36.4384 48.0886 36.1127C48.5802 35.7871 49.1755 35.6563 49.7582 35.746C49.9814 35.7714 50.1967 35.8432 50.3904 35.9569C50.584 36.0706 50.7517 36.2236 50.8827 36.406C51.0136 36.5885 51.1049 36.7963 51.1506 37.0162C51.1963 37.236 51.1955 37.4631 51.1481 37.6826C51.0552 38.0482 50.8294 38.3661 50.5147 38.5743C50.2 38.7824 49.8191 38.8659 49.4462 38.8084C49.3039 38.7914 49.1666 38.7451 49.0431 38.6723C48.9196 38.5995 48.8126 38.5017 48.7289 38.3854C48.6452 38.269 48.5866 38.1364 48.5568 37.9962C48.5271 37.8559 48.5268 37.711 48.5561 37.5707C48.6149 37.3363 48.7591 37.1324 48.9605 36.9988C49.1619 36.8653 49.4059 36.8117 49.6447 36.8487C49.7361 36.859 49.8244 36.8883 49.9038 36.9348C49.9833 36.9812 50.0521 37.0438 50.1059 37.1184C50.1597 37.1931 50.1973 37.2782 50.2162 37.3682C50.2351 37.4583 50.235 37.5513 50.2158 37.6413" stroke="#E5CA76" stroke-width="0.554144" stroke-miterlimit="10" stroke-linecap="round"/>
<path d="M42.1479 33.7931C40.7069 33.5614 39.2302 33.7181 37.87 34.2472C33.8381 35.8146 31.5377 39.5742 32.728 42.6578C32.9261 43.2305 33.2667 43.7434 33.7178 44.148C34.1689 44.5527 34.7156 44.8359 35.3063 44.9708C33.8829 44.7743 32.7778 44.0363 32.2006 42.5579C31.0046 39.4816 33.3033 35.7171 37.3426 34.1473C38.8731 33.552 40.5467 33.4287 42.1479 33.7931Z" fill="#896929"/>
<path d="M40.8779 43.94C39.0833 44.6393 37.4041 45.0509 35.9885 45.0203C35.7637 45.0143 35.5392 44.9968 35.3162 44.9676C34.7253 44.8319 34.1786 44.5482 33.7274 44.1431C33.2763 43.7381 32.9355 43.225 32.737 42.6522C31.5435 39.575 33.843 35.813 37.8798 34.244C39.2396 33.7145 40.716 33.5569 42.157 33.7874C42.7514 33.9194 43.3286 34.1199 43.8769 34.3848C45.3444 35.0917 46.4944 36.2175 47.0168 37.5696C48.2046 40.6459 44.9098 42.3726 40.8779 43.94Z" fill="#E0B762"/>
<path opacity="0.58" d="M42.8349 44.5716C40.746 45.3859 38.8126 45.8097 37.2715 45.6025C36.8132 45.4942 36.3802 45.2984 35.9961 45.026C37.4116 45.0566 39.0908 44.6451 40.8855 43.9457C44.9174 42.3784 48.213 40.6541 47.0145 37.5786C46.4921 36.2264 45.3421 35.1007 43.8746 34.3938L44.1074 34.4239C46.3698 34.9342 48.2543 36.3615 48.9705 38.2078C50.1592 41.2783 46.8627 43.0001 42.8349 44.5716Z" fill="#C0964B"/>
<path d="M34.6359 39.4204C35.2561 36.6028 38.1639 34.6815 41.1215 35.1309C43.4937 35.4857 45.0124 37.6005 44.5129 39.854C44.116 41.6554 42.2557 42.8872 40.3579 42.6034C40.0095 42.5636 39.6732 42.4514 39.3707 42.2738C39.0682 42.0962 38.8063 41.8573 38.6017 41.5724C38.3971 41.2874 38.2545 40.9628 38.183 40.6195C38.1115 40.2761 38.1126 39.9215 38.1864 39.5786C38.3321 39.0076 38.6851 38.5113 39.1766 38.1862C39.6682 37.8611 40.2631 37.7306 40.8455 37.8199C41.0685 37.8451 41.2837 37.9167 41.4773 38.0301C41.6709 38.1436 41.8386 38.2964 41.9695 38.4786C42.1003 38.6609 42.1916 38.8685 42.2372 39.0882C42.2829 39.3079 42.282 39.5347 42.2347 39.754C42.1422 40.12 41.9165 40.4383 41.6017 40.6465C41.2869 40.8548 40.9057 40.938 40.5328 40.8798C40.3906 40.8626 40.2534 40.816 40.1302 40.743C40.0069 40.67 39.9001 40.5722 39.8167 40.4557C39.7332 40.3393 39.6748 40.2068 39.6453 40.0666C39.6158 39.9264 39.6157 39.7816 39.6451 39.6414C39.7049 39.4076 39.8496 39.2044 40.051 39.0714C40.2524 38.9385 40.496 38.8851 40.7345 38.9219C40.8258 38.9324 40.9139 38.962 40.9931 39.0086C41.0723 39.0553 41.1409 39.1179 41.1944 39.1927C41.248 39.2674 41.2853 39.3524 41.304 39.4424C41.3227 39.5324 41.3224 39.6253 41.3031 39.7152" stroke="#E5CA76" stroke-width="0.554144" stroke-miterlimit="10" stroke-linecap="round"/>
<path d="M62.0255 31.896C61.1657 39.2068 59.075 46.8781 50.617 51.0467C42.2689 55.1605 30.2766 56.2022 19.7583 50.6245C10.5825 45.7538 7.98737 35.1842 7.90128 32.3685L7.89568 32.3513C7.95646 33.4324 8.33586 34.4713 8.98605 35.3371C12.322 40.032 22.9148 43.2283 35.3604 42.8517C47.806 42.475 58.1843 38.6428 61.2154 33.7641C61.5891 33.1917 61.863 32.56 62.0255 31.896Z" fill="#5E422B"/>
<path d="M15.9656 37.3652L15.945 38.0108C15.945 38.0108 16.6918 37.7999 18.2835 37.5202C19.8752 37.2405 22.1886 37.465 22.1886 37.465C22.1886 37.465 22.6835 37.1486 22.5714 36.7964C22.4593 36.4442 17.2883 36.711 15.9656 37.3652Z" fill="#D2A432"/>
<path d="M15.9566 37.6128L15.777 38.3293C15.777 38.3293 16.5246 38.1209 18.1155 37.8387C19.7063 37.5566 22.0205 37.7835 22.0205 37.7835L22.526 37.1158C22.526 37.1158 17.2802 36.9611 15.9566 37.6128Z" fill="#E2B73C"/>
<path d="M17.2143 38.8856L17.1521 39.5285C17.1521 39.5285 17.9157 39.3692 19.5173 39.195C21.1189 39.0208 23.4157 39.4111 23.4157 39.4111C23.4157 39.4111 23.93 39.1292 23.8425 38.7608C23.755 38.3924 18.579 38.3265 17.2143 38.8856Z" fill="#D2A432"/>
<path d="M17.1889 39.1331L16.9586 39.8362C16.9586 39.8362 17.7223 39.6769 19.3239 39.5027C20.9255 39.3285 23.2247 39.718 23.2247 39.718L23.7741 39.0849C23.7741 39.0849 18.5535 38.574 17.1889 39.1331Z" fill="#E2B73C"/>
<path d="M19.3976 37.494L19.23 38.1305C19.23 38.1305 19.9985 38.1029 21.6196 38.1969C23.2407 38.291 25.4352 39.0599 25.4352 39.0599C25.4352 39.0599 25.993 38.878 25.9645 38.4904C25.936 38.1027 20.8367 37.1717 19.3976 37.494Z" fill="#D2A432"/>
<path d="M19.3324 37.7355L19.0012 38.3872C19.0012 38.3872 19.7697 38.3596 21.3883 38.4545C23.007 38.5493 25.204 39.3174 25.204 39.3174L25.8466 38.787C25.8466 38.787 20.7641 37.4155 19.3324 37.7355Z" fill="#E2B73C"/>
<path d="M19.0149 39.1467L18.8432 39.7709C18.8432 39.7709 19.6118 39.7432 21.2304 39.8381C22.849 39.9329 25.0452 40.6986 25.0452 40.6986C25.0452 40.6986 25.6031 40.5167 25.5729 40.1323C25.5427 39.7479 20.4524 38.8194 19.0149 39.1467Z" fill="#D2A432"/>
<path d="M18.9587 39.3826L18.6274 40.0343C18.6274 40.0343 19.396 40.0067 21.0146 40.1015C22.6332 40.1964 24.8294 40.962 24.8294 40.962L25.4729 40.4341C25.4729 40.4341 20.3879 39.0634 18.9587 39.3826Z" fill="#E2B73C"/>
<path d="M17.9136 35.7269L17.7419 36.3511C17.7419 36.3511 18.5105 36.3234 20.1291 36.4183C21.7477 36.5131 23.9447 37.2812 23.9447 37.2812C23.9447 37.2812 24.5026 37.0993 24.4716 36.7125C24.4406 36.3257 19.3527 35.4045 17.9136 35.7269Z" fill="#D2A432"/>
<path d="M17.8456 35.9692L17.5144 36.6209C17.5144 36.6209 18.2829 36.5933 19.9015 36.6882C21.5202 36.783 23.7172 37.5511 23.7172 37.5511L24.3599 37.0208C24.3599 37.0208 19.2872 35.646 17.8456 35.9692Z" fill="#E2B73C"/>
<path d="M15.2568 37.7512L15.0851 38.3754C15.0851 38.3754 15.8537 38.3478 17.4723 38.4426C19.0909 38.5375 21.2879 39.3056 21.2879 39.3056C21.2879 39.3056 21.8458 39.1237 21.8148 38.7369C21.7838 38.35 16.691 37.4305 15.2568 37.7512Z" fill="#D2A432"/>
<path d="M15.1906 37.9903L14.8594 38.6421C14.8594 38.6421 15.6279 38.6144 17.2465 38.7093C18.8652 38.8041 21.0622 39.5722 21.0622 39.5722L21.7049 39.0419C21.7049 39.0419 16.6273 37.6687 15.1906 37.9903Z" fill="#E2B73C"/>
</svg>
