<svg width="352" height="57" viewBox="0 0 352 57" fill="none" xmlns="http://www.w3.org/2000/svg">
<mask id="path-1-inside-1_754_1571" fill="white">
<path fill-rule="evenodd" clip-rule="evenodd" d="M9.75307 33.4564C4.1763 32.0618 0 26.3574 0 19.5324C0 11.6624 5.55317 5.28243 12.4034 5.28243C14.3973 5.28243 16.2814 5.82299 17.9506 6.78353C20.1343 2.71321 24.0499 0 28.5171 0C32.3538 0 35.7837 2.00139 38.0588 5.14503C39.8219 4.03893 41.8445 3.41025 43.9948 3.41025C50.845 3.41025 56.3982 9.79019 56.3982 17.6602C56.3982 24.5715 52.1157 30.3335 46.4331 31.635V39.5C46.4331 43.9183 42.8514 47.5 38.4331 47.5H17.7531C13.3348 47.5 9.75307 43.9183 9.75307 39.5V33.4564Z"/>
</mask>
<path fill-rule="evenodd" clip-rule="evenodd" d="M9.75307 33.4564C4.1763 32.0618 0 26.3574 0 19.5324C0 11.6624 5.55317 5.28243 12.4034 5.28243C14.3973 5.28243 16.2814 5.82299 17.9506 6.78353C20.1343 2.71321 24.0499 0 28.5171 0C32.3538 0 35.7837 2.00139 38.0588 5.14503C39.8219 4.03893 41.8445 3.41025 43.9948 3.41025C50.845 3.41025 56.3982 9.79019 56.3982 17.6602C56.3982 24.5715 52.1157 30.3335 46.4331 31.635V39.5C46.4331 43.9183 42.8514 47.5 38.4331 47.5H17.7531C13.3348 47.5 9.75307 43.9183 9.75307 39.5V33.4564Z" fill="#FFE9AD"/>
<path d="M9.75307 33.4564H11.7531V31.8949L10.2383 31.5161L9.75307 33.4564ZM17.9506 6.78353L16.9531 8.51701L18.739 9.54467L19.713 7.72903L17.9506 6.78353ZM38.0588 5.14503L36.4387 6.31762L37.5361 7.83399L39.1217 6.83922L38.0588 5.14503ZM46.4331 31.635L45.9866 29.6855L44.4331 30.0413V31.635H46.4331ZM10.2383 31.5161C5.69732 30.3806 2 25.5988 2 19.5324H-2C-2 27.1161 2.65529 33.743 9.26787 35.3966L10.2383 31.5161ZM2 19.5324C2 12.4973 6.90938 7.28243 12.4034 7.28243V3.28243C4.19696 3.28243 -2 10.8275 -2 19.5324H2ZM12.4034 7.28243C14.0281 7.28243 15.5703 7.72127 16.9531 8.51701L18.9481 5.05005C16.9925 3.92471 14.7666 3.28243 12.4034 3.28243V7.28243ZM19.713 7.72903C21.611 4.19131 24.9104 2 28.5171 2V-2C23.1894 -2 18.6576 1.23511 16.1882 5.83803L19.713 7.72903ZM28.5171 2C31.6212 2 34.4828 3.61518 36.4387 6.31762L39.679 3.97244C37.0846 0.387604 33.0865 -2 28.5171 -2V2ZM39.1217 6.83922C40.5866 5.92018 42.2438 5.41025 43.9948 5.41025V1.41025C41.4451 1.41025 39.0572 2.15768 36.996 3.45084L39.1217 6.83922ZM43.9948 5.41025C49.4888 5.41025 54.3982 10.6251 54.3982 17.6602H58.3982C58.3982 8.9553 52.2012 1.41025 43.9948 1.41025V5.41025ZM54.3982 17.6602C54.3982 23.8059 50.6068 28.6273 45.9866 29.6855L46.8796 33.5845C53.6245 32.0398 58.3982 25.337 58.3982 17.6602H54.3982ZM44.4331 31.635V39.5H48.4331V31.635H44.4331ZM44.4331 39.5C44.4331 42.8137 41.7468 45.5 38.4331 45.5V49.5C43.9559 49.5 48.4331 45.0229 48.4331 39.5H44.4331ZM38.4331 45.5H17.7531V49.5H38.4331V45.5ZM17.7531 45.5C14.4394 45.5 11.7531 42.8137 11.7531 39.5H7.75307C7.75307 45.0229 12.2302 49.5 17.7531 49.5V45.5ZM11.7531 39.5V33.4564H7.75307V39.5H11.7531Z" fill="#FFE9AD" mask="url(#path-1-inside-1_754_1571)"/>
<line x1="12.0252" y1="51.1284" x2="44.585" y2="51.1284" stroke="#FFE9AD" stroke-width="2" stroke-linecap="round"/>
<line x1="12.0252" y1="56" x2="44.585" y2="56" stroke="#FFE9AD" stroke-width="2" stroke-linecap="round"/>
<mask id="path-5-inside-2_754_1571" fill="white">
<path fill-rule="evenodd" clip-rule="evenodd" d="M83.6535 33.4564C78.0767 32.0618 73.9004 26.3574 73.9004 19.5324C73.9004 11.6624 79.4536 5.28243 86.3038 5.28243C88.2978 5.28243 90.1818 5.82299 91.851 6.78352C94.0347 2.71321 97.9503 0 102.418 0C106.254 0 109.684 2.00141 111.959 5.14508C113.722 4.03895 115.745 3.41025 117.895 3.41025C124.746 3.41025 130.299 9.79019 130.299 17.6602C130.299 24.5715 126.016 30.3336 120.334 31.635V39.5C120.334 43.9183 116.752 47.5 112.334 47.5H91.6535C87.2352 47.5 83.6535 43.9183 83.6535 39.5V33.4564Z"/>
</mask>
<path fill-rule="evenodd" clip-rule="evenodd" d="M83.6535 33.4564C78.0767 32.0618 73.9004 26.3574 73.9004 19.5324C73.9004 11.6624 79.4536 5.28243 86.3038 5.28243C88.2978 5.28243 90.1818 5.82299 91.851 6.78352C94.0347 2.71321 97.9503 0 102.418 0C106.254 0 109.684 2.00141 111.959 5.14508C113.722 4.03895 115.745 3.41025 117.895 3.41025C124.746 3.41025 130.299 9.79019 130.299 17.6602C130.299 24.5715 126.016 30.3336 120.334 31.635V39.5C120.334 43.9183 116.752 47.5 112.334 47.5H91.6535C87.2352 47.5 83.6535 43.9183 83.6535 39.5V33.4564Z" fill="#FFDF86"/>
<path d="M83.6535 33.4564H85.6535V31.8949L84.1387 31.5161L83.6535 33.4564ZM91.851 6.78352L90.8535 8.517L92.6394 9.54465L93.6134 7.72902L91.851 6.78352ZM111.959 5.14508L110.339 6.31766L111.437 7.83406L113.022 6.83926L111.959 5.14508ZM120.334 31.635L119.887 29.6855L118.334 30.0413V31.635H120.334ZM84.1387 31.5161C79.5977 30.3806 75.9004 25.5988 75.9004 19.5324H71.9004C71.9004 27.116 76.5557 33.743 83.1683 35.3966L84.1387 31.5161ZM75.9004 19.5324C75.9004 12.4973 80.8098 7.28243 86.3038 7.28243V3.28243C78.0974 3.28243 71.9004 10.8275 71.9004 19.5324H75.9004ZM86.3038 7.28243C87.9285 7.28243 89.4707 7.72127 90.8535 8.517L92.8486 5.05004C90.893 3.92471 88.667 3.28243 86.3038 3.28243V7.28243ZM93.6134 7.72902C95.5114 4.19131 98.8108 2 102.418 2V-2C97.0898 -2 92.5581 1.23511 90.0887 5.83802L93.6134 7.72902ZM102.418 2C105.522 2 108.383 3.61519 110.339 6.31766L113.579 3.97249C110.985 0.387629 106.987 -2 102.418 -2V2ZM113.022 6.83926C114.487 5.92019 116.144 5.41025 117.895 5.41025V1.41025C115.346 1.41025 112.958 2.1577 110.896 3.4509L113.022 6.83926ZM117.895 5.41025C123.389 5.41025 128.299 10.6251 128.299 17.6602H132.299C132.299 8.9553 126.102 1.41025 117.895 1.41025V5.41025ZM128.299 17.6602C128.299 23.8059 124.507 28.6274 119.887 29.6855L120.78 33.5845C127.525 32.0399 132.299 25.3371 132.299 17.6602H128.299ZM118.334 31.635V39.5H122.334V31.635H118.334ZM118.334 39.5C118.334 42.8137 115.647 45.5 112.334 45.5V49.5C117.856 49.5 122.334 45.0229 122.334 39.5H118.334ZM112.334 45.5H91.6535V49.5H112.334V45.5ZM91.6535 45.5C88.3398 45.5 85.6535 42.8137 85.6535 39.5H81.6535C81.6535 45.0229 86.1306 49.5 91.6535 49.5V45.5ZM85.6535 39.5V33.4564H81.6535V39.5H85.6535Z" fill="#FFDF86" mask="url(#path-5-inside-2_754_1571)"/>
<line x1="85.9257" y1="51.1284" x2="118.485" y2="51.1284" stroke="#FFDF86" stroke-width="2" stroke-linecap="round"/>
<line x1="85.9257" y1="56" x2="118.485" y2="56" stroke="#FFDF86" stroke-width="2" stroke-linecap="round"/>
<mask id="path-9-inside-3_754_1571" fill="white">
<path fill-rule="evenodd" clip-rule="evenodd" d="M305.355 33.4564C299.778 32.0618 295.602 26.3574 295.602 19.5324C295.602 11.6624 301.155 5.28243 308.005 5.28243C309.999 5.28243 311.883 5.823 313.552 6.78354C315.736 2.71322 319.652 0 324.119 0C327.956 0 331.385 2.00139 333.661 5.14503C335.424 4.03893 337.446 3.41025 339.597 3.41025C346.447 3.41025 352 9.79019 352 17.6602C352 24.5715 347.717 30.3335 342.035 31.635V39.5C342.035 43.9183 338.453 47.5 334.035 47.5H313.355C308.937 47.5 305.355 43.9183 305.355 39.5V33.4564Z"/>
</mask>
<path fill-rule="evenodd" clip-rule="evenodd" d="M305.355 33.4564C299.778 32.0618 295.602 26.3574 295.602 19.5324C295.602 11.6624 301.155 5.28243 308.005 5.28243C309.999 5.28243 311.883 5.823 313.552 6.78354C315.736 2.71322 319.652 0 324.119 0C327.956 0 331.385 2.00139 333.661 5.14503C335.424 4.03893 337.446 3.41025 339.597 3.41025C346.447 3.41025 352 9.79019 352 17.6602C352 24.5715 347.717 30.3335 342.035 31.635V39.5C342.035 43.9183 338.453 47.5 334.035 47.5H313.355C308.937 47.5 305.355 43.9183 305.355 39.5V33.4564Z" fill="#BF4E49"/>
<path d="M305.355 33.4564H307.355V31.8949L305.84 31.5161L305.355 33.4564ZM313.552 6.78354L312.555 8.51702L314.341 9.54469L315.315 7.72904L313.552 6.78354ZM333.661 5.14503L332.04 6.31762L333.138 7.83399L334.724 6.83922L333.661 5.14503ZM342.035 31.635L341.588 29.6855L340.035 30.0413V31.635H342.035ZM305.84 31.5161C301.299 30.3806 297.602 25.5988 297.602 19.5324H293.602C293.602 27.1161 298.257 33.743 304.87 35.3967L305.84 31.5161ZM297.602 19.5324C297.602 12.4973 302.511 7.28243 308.005 7.28243V3.28243C299.799 3.28243 293.602 10.8275 293.602 19.5324H297.602ZM308.005 7.28243C309.63 7.28243 311.172 7.72128 312.555 8.51702L314.55 5.05007C312.594 3.92472 310.368 3.28243 308.005 3.28243V7.28243ZM315.315 7.72904C317.213 4.19132 320.512 2 324.119 2V-2C318.791 -2 314.259 1.23512 311.79 5.83805L315.315 7.72904ZM324.119 2C327.223 2 330.085 3.61518 332.04 6.31762L335.281 3.97243C332.686 0.387603 328.688 -2 324.119 -2V2ZM334.724 6.83922C336.188 5.92018 337.846 5.41025 339.597 5.41025V1.41025C337.047 1.41025 334.659 2.15768 332.598 3.45084L334.724 6.83922ZM339.597 5.41025C345.091 5.41025 350 10.6251 350 17.6602H354C354 8.9553 347.803 1.41025 339.597 1.41025V5.41025ZM350 17.6602C350 23.8059 346.209 28.6273 341.588 29.6855L342.481 33.5845C349.226 32.0398 354 25.337 354 17.6602H350ZM340.035 31.635V39.5H344.035V31.635H340.035ZM340.035 39.5C340.035 42.8137 337.349 45.5 334.035 45.5V49.5C339.558 49.5 344.035 45.0229 344.035 39.5H340.035ZM334.035 45.5H313.355V49.5H334.035V45.5ZM313.355 45.5C310.041 45.5 307.355 42.8137 307.355 39.5H303.355C303.355 45.0229 307.832 49.5 313.355 49.5V45.5ZM307.355 39.5V33.4564H303.355V39.5H307.355Z" fill="#BF4E49" mask="url(#path-9-inside-3_754_1571)"/>
<line x1="307.627" y1="51.1284" x2="340.187" y2="51.1284" stroke="#BF4E49" stroke-width="2" stroke-linecap="round"/>
<line x1="307.627" y1="56" x2="340.187" y2="56" stroke="#BF4E49" stroke-width="2" stroke-linecap="round"/>
<mask id="path-13-inside-4_754_1571" fill="white">
<path fill-rule="evenodd" clip-rule="evenodd" d="M157.554 33.4564C151.977 32.0618 147.801 26.3575 147.801 19.5324C147.801 11.6624 153.354 5.28243 160.204 5.28243C162.198 5.28243 164.082 5.82303 165.752 6.78362C167.935 2.71325 171.851 0 176.318 0C180.155 0 183.585 2.00139 185.86 5.14503C187.623 4.03893 189.645 3.41025 191.796 3.41025C198.646 3.41025 204.199 9.79019 204.199 17.6602C204.199 24.5715 199.917 30.3336 194.234 31.635V39.5C194.234 43.9183 190.652 47.5 186.234 47.5H165.554C161.136 47.5 157.554 43.9183 157.554 39.5V33.4564Z"/>
</mask>
<path fill-rule="evenodd" clip-rule="evenodd" d="M157.554 33.4564C151.977 32.0618 147.801 26.3575 147.801 19.5324C147.801 11.6624 153.354 5.28243 160.204 5.28243C162.198 5.28243 164.082 5.82303 165.752 6.78362C167.935 2.71325 171.851 0 176.318 0C180.155 0 183.585 2.00139 185.86 5.14503C187.623 4.03893 189.645 3.41025 191.796 3.41025C198.646 3.41025 204.199 9.79019 204.199 17.6602C204.199 24.5715 199.917 30.3336 194.234 31.635V39.5C194.234 43.9183 190.652 47.5 186.234 47.5H165.554C161.136 47.5 157.554 43.9183 157.554 39.5V33.4564Z" fill="#F4BD51"/>
<path d="M157.554 33.4564H159.554V31.895L158.039 31.5162L157.554 33.4564ZM165.752 6.78362L164.754 8.51708L166.54 9.54479L167.514 7.7291L165.752 6.78362ZM185.86 5.14503L184.24 6.31762L185.337 7.83399L186.923 6.83922L185.86 5.14503ZM194.234 31.635L193.787 29.6855L192.234 30.0413V31.635H194.234ZM158.039 31.5162C153.498 30.3806 149.801 25.5988 149.801 19.5324H145.801C145.801 27.1161 150.456 33.7431 157.069 35.3967L158.039 31.5162ZM149.801 19.5324C149.801 12.4973 154.71 7.28243 160.204 7.28243V3.28243C151.998 3.28243 145.801 10.8275 145.801 19.5324H149.801ZM160.204 7.28243C161.829 7.28243 163.371 7.7213 164.754 8.51708L166.749 5.05015C164.793 3.92475 162.567 3.28243 160.204 3.28243V7.28243ZM167.514 7.7291C169.412 4.19134 172.711 2 176.318 2V-2C170.99 -2 166.459 1.23516 163.989 5.83813L167.514 7.7291ZM176.318 2C179.422 2 182.284 3.61518 184.24 6.31762L187.48 3.97244C184.886 0.387604 180.887 -2 176.318 -2V2ZM186.923 6.83922C188.388 5.92018 190.045 5.41025 191.796 5.41025V1.41025C189.246 1.41025 186.858 2.15768 184.797 3.45084L186.923 6.83922ZM191.796 5.41025C197.29 5.41025 202.199 10.6251 202.199 17.6602H206.199C206.199 8.9553 200.002 1.41025 191.796 1.41025V5.41025ZM202.199 17.6602C202.199 23.8059 198.408 28.6274 193.787 29.6855L194.68 33.5845C201.425 32.0399 206.199 25.3371 206.199 17.6602H202.199ZM192.234 31.635V39.5H196.234V31.635H192.234ZM192.234 39.5C192.234 42.8137 189.548 45.5 186.234 45.5V49.5C191.757 49.5 196.234 45.0229 196.234 39.5H192.234ZM186.234 45.5H165.554V49.5H186.234V45.5ZM165.554 45.5C162.24 45.5 159.554 42.8137 159.554 39.5H155.554C155.554 45.0229 160.031 49.5 165.554 49.5V45.5ZM159.554 39.5V33.4564H155.554V39.5H159.554Z" fill="#F4BD51" mask="url(#path-13-inside-4_754_1571)"/>
<line x1="159.826" y1="51.1284" x2="192.386" y2="51.1284" stroke="#F4BD51" stroke-width="2" stroke-linecap="round"/>
<line x1="159.826" y1="56" x2="192.386" y2="56" stroke="#F4BD51" stroke-width="2" stroke-linecap="round"/>
<mask id="path-17-inside-5_754_1571" fill="white">
<path fill-rule="evenodd" clip-rule="evenodd" d="M231.454 33.4564C225.878 32.0617 221.701 26.3574 221.701 19.5324C221.701 11.6624 227.255 5.28243 234.105 5.28243C236.099 5.28243 237.983 5.82298 239.652 6.7835C241.836 2.7132 245.751 0 250.218 0C254.055 0 257.485 2.00139 259.76 5.14503C261.523 4.03893 263.546 3.41025 265.696 3.41025C272.546 3.41025 278.1 9.79019 278.1 17.6602C278.1 24.5715 273.817 30.3335 268.134 31.635V39.5C268.134 43.9183 264.553 47.5 260.134 47.5H239.454C235.036 47.5 231.454 43.9183 231.454 39.5V33.4564Z"/>
</mask>
<path fill-rule="evenodd" clip-rule="evenodd" d="M231.454 33.4564C225.878 32.0617 221.701 26.3574 221.701 19.5324C221.701 11.6624 227.255 5.28243 234.105 5.28243C236.099 5.28243 237.983 5.82298 239.652 6.7835C241.836 2.7132 245.751 0 250.218 0C254.055 0 257.485 2.00139 259.76 5.14503C261.523 4.03893 263.546 3.41025 265.696 3.41025C272.546 3.41025 278.1 9.79019 278.1 17.6602C278.1 24.5715 273.817 30.3335 268.134 31.635V39.5C268.134 43.9183 264.553 47.5 260.134 47.5H239.454C235.036 47.5 231.454 43.9183 231.454 39.5V33.4564Z" fill="#F19F50"/>
<path d="M231.454 33.4564H233.454V31.8949L231.94 31.5161L231.454 33.4564ZM239.652 6.7835L238.655 8.51699L240.44 9.54463L241.414 7.729L239.652 6.7835ZM259.76 5.14503L258.14 6.31762L259.237 7.83399L260.823 6.83922L259.76 5.14503ZM268.134 31.635L267.688 29.6855L266.134 30.0413V31.635H268.134ZM231.94 31.5161C227.399 30.3805 223.701 25.5988 223.701 19.5324H219.701C219.701 27.116 224.357 33.743 230.969 35.3966L231.94 31.5161ZM223.701 19.5324C223.701 12.4973 228.611 7.28243 234.105 7.28243V3.28243C225.898 3.28243 219.701 10.8275 219.701 19.5324H223.701ZM234.105 7.28243C235.729 7.28243 237.272 7.72126 238.655 8.51699L240.65 5.05001C238.694 3.9247 236.468 3.28243 234.105 3.28243V7.28243ZM241.414 7.729C243.312 4.1913 246.612 2 250.218 2V-2C244.891 -2 240.359 1.2351 237.89 5.838L241.414 7.729ZM250.218 2C253.323 2 256.184 3.61518 258.14 6.31762L261.38 3.97243C258.786 0.387603 254.788 -2 250.218 -2V2ZM260.823 6.83922C262.288 5.92018 263.945 5.41025 265.696 5.41025V1.41025C263.147 1.41025 260.759 2.15768 258.697 3.45084L260.823 6.83922ZM265.696 5.41025C271.19 5.41025 276.1 10.6251 276.1 17.6602H280.1C280.1 8.9553 273.903 1.41025 265.696 1.41025V5.41025ZM276.1 17.6602C276.1 23.8059 272.308 28.6273 267.688 29.6855L268.581 33.5845C275.326 32.0398 280.1 25.337 280.1 17.6602H276.1ZM266.134 31.635V39.5H270.134V31.635H266.134ZM266.134 39.5C266.134 42.8137 263.448 45.5 260.134 45.5V49.5C265.657 49.5 270.134 45.0229 270.134 39.5H266.134ZM260.134 45.5H239.454V49.5H260.134V45.5ZM239.454 45.5C236.141 45.5 233.454 42.8137 233.454 39.5H229.454C229.454 45.0229 233.932 49.5 239.454 49.5V45.5ZM233.454 39.5V33.4564H229.454V39.5H233.454Z" fill="#F19F50" mask="url(#path-17-inside-5_754_1571)"/>
<line x1="233.727" y1="51.1284" x2="266.286" y2="51.1284" stroke="#F19F50" stroke-width="2" stroke-linecap="round"/>
<line x1="233.727" y1="56" x2="266.286" y2="56" stroke="#F19F50" stroke-width="2" stroke-linecap="round"/>
</svg>
