<svg width="318" height="262" viewBox="0 0 318 262" fill="none" xmlns="http://www.w3.org/2000/svg">
<path d="M168.418 205.533C169.063 204.443 170.362 204.02 171.319 204.587L248.422 250.274C249.379 250.842 249.631 252.184 248.986 253.273L245.48 259.19C244.835 260.279 243.536 260.703 242.579 260.136L165.476 214.448C164.519 213.881 164.267 212.538 164.912 211.449L168.418 205.533Z" fill="#FFECD4"/>
<path fill-rule="evenodd" clip-rule="evenodd" d="M277.058 114.254C258.441 103.222 233.476 110.942 221.296 131.497L215.228 141.736L215.312 124.777C215.34 119.141 210.99 114.945 205.597 115.406C200.204 115.867 195.809 120.81 195.781 126.447L195.543 174.958L176.253 207.511L243.672 247.46L288.714 171.446C300.894 150.891 295.676 125.285 277.058 114.254Z" fill="#F19F50"/>
<path fill-rule="evenodd" clip-rule="evenodd" d="M210.108 116.39C210.006 116.976 209.861 117.566 209.673 118.155L195.403 162.808L195.691 126.569C195.736 120.96 200.109 116.029 205.458 115.554C207.147 115.404 208.732 115.716 210.108 116.39Z" fill="#AC5226"/>
<path d="M148.833 205.53C148.187 204.44 146.888 204.017 145.931 204.584L68.8266 250.273C67.8697 250.84 67.6171 252.182 68.2625 253.272L71.7683 259.188C72.4137 260.277 73.7127 260.7 74.6696 260.133L151.774 214.445C152.731 213.878 152.984 212.535 152.339 211.446L148.833 205.53Z" fill="#FFECD4"/>
<path fill-rule="evenodd" clip-rule="evenodd" d="M40.193 114.255C58.8107 103.223 83.7766 110.942 95.956 131.496L102.023 141.735L101.94 124.776C101.912 119.14 106.262 114.944 111.655 115.405C117.049 115.866 121.443 120.809 121.471 126.445L121.708 174.956L140.997 207.508L73.5766 247.458L28.5356 171.446C16.3562 150.892 21.5754 125.286 40.193 114.255Z" fill="#F19F50"/>
<path fill-rule="evenodd" clip-rule="evenodd" d="M107.144 116.389C107.247 116.975 107.391 117.565 107.579 118.154L121.848 162.806L121.561 126.567C121.516 120.959 117.144 116.028 111.794 115.553C110.105 115.403 108.52 115.715 107.144 116.389Z" fill="#AC5226"/>
<path d="M145.505 119.529L145.181 121.038L138.577 119.557L139.4 126.301L137.837 126.44L137.246 119.723L131.157 122.664L130.496 121.208L136.736 118.504L131.98 113.548L133.145 112.535L137.683 117.591L140.912 111.642L142.279 112.427L138.732 118.256L145.505 119.529ZM137.199 106.371L134.65 107.529L133.508 105.016L136.057 103.858L137.199 106.371ZM152.858 99.2563L150.309 100.415L149.168 97.9017L151.717 96.7435L152.858 99.2563ZM129.562 92.7527C130.339 94.4644 132.299 95.1996 133.974 94.4385C135.686 93.6609 136.421 91.7012 135.644 89.9896C134.883 88.3144 132.906 87.5427 131.195 88.3204C129.519 89.0815 128.801 91.0775 129.562 92.7527ZM114.67 85.5035C113.176 86.1819 111.558 85.9068 111.028 84.7415C110.532 83.6489 111.356 82.1759 112.85 81.4976C114.343 80.8192 115.995 81.1671 116.491 82.2596C117.02 83.425 116.163 84.8252 114.67 85.5035ZM115.348 86.9966C117.824 85.8715 119.132 83.432 118.239 81.4654C117.362 79.5353 114.664 78.9158 112.188 80.0409C109.711 81.166 108.403 83.6055 109.28 85.5357C110.174 87.5022 112.872 88.1217 115.348 86.9966ZM128.694 42.0071C127.226 42.9668 125.846 44.443 124.555 46.4357C123.252 48.404 122.28 50.8083 121.637 53.6486C120.981 56.5241 120.911 59.0455 121.427 61.2129L119.898 61.9078C118.521 60.1022 116.735 58.5559 114.539 57.2689C112.343 55.9818 110.025 55.102 107.584 54.6292C105.119 54.1675 102.833 54.1958 100.725 54.7141L100.03 53.1845C101.169 52.4035 102.221 51.3984 103.185 50.1693C104.139 48.9159 104.961 47.5025 105.652 45.9291C106.319 44.3667 106.827 42.7447 107.176 41.063C107.664 38.5273 107.669 36.1527 107.191 33.939L108.72 33.2441C109.605 34.4824 110.786 35.6302 112.262 36.6876C113.727 37.7207 115.294 38.5905 116.962 39.297C118.63 40.0036 120.26 40.464 121.851 40.6784C124.286 41.0076 126.335 40.9407 127.999 40.4775L128.694 42.0071ZM127.588 41.8943L127.356 41.3845C126.039 41.8367 124.688 42.216 123.304 42.5225C121.885 42.8158 120.547 43.0285 119.289 43.1607C118.02 43.2686 116.939 43.2762 116.048 43.1833C115.211 42.5674 114.34 41.7772 113.433 40.8126C112.515 39.8237 111.641 38.7708 110.812 37.654C109.971 36.5128 109.272 35.4247 108.713 34.3895L108.204 34.6211C108.592 35.7335 108.945 36.9937 109.262 38.4018C109.544 39.7967 109.756 41.165 109.897 42.5069C110.014 43.8598 110.025 45.0118 109.93 45.963C109.389 46.7066 108.672 47.5153 107.781 48.3891C106.854 49.2497 105.837 50.1069 104.731 50.9608C103.59 51.8014 102.416 52.5692 101.209 53.2642L101.44 53.774C102.625 53.3527 103.898 52.9943 105.257 52.6988C106.582 52.3901 107.89 52.1763 109.184 52.0573C110.477 51.9384 111.641 51.922 112.676 52.0083C113.466 52.5867 114.327 53.3526 115.258 54.3062C116.165 55.2708 117.051 56.3182 117.916 57.4483C118.756 58.5894 119.479 59.6963 120.083 60.769L120.593 60.5374C120.159 59.3875 119.794 58.1328 119.498 56.7732C119.203 55.4137 118.99 54.0751 118.86 52.7576C118.73 51.44 118.708 50.2637 118.794 49.2286C119.362 48.4144 120.133 47.5659 121.109 46.6833C122.049 45.7875 123.09 44.9192 124.231 44.0786C125.348 43.249 126.467 42.5209 127.588 41.8943Z" fill="#FFECD4"/>
<path d="M170.171 168.581L169.846 170.09L163.242 168.609L164.065 175.353L162.502 175.491L161.911 168.774L155.823 171.716L155.161 170.259L161.402 167.556L156.645 162.599L157.811 161.587L162.348 166.642L165.577 160.694L166.944 161.479L163.398 167.308L170.171 168.581ZM161.864 155.423L159.315 156.581L158.173 154.068L160.723 152.91L161.864 155.423ZM177.524 148.308L174.975 149.466L173.833 146.953L176.382 145.795L177.524 148.308ZM154.227 141.805C155.005 143.516 156.964 144.251 158.64 143.49C160.351 142.713 161.087 140.753 160.309 139.041C159.548 137.366 157.572 136.595 155.86 137.372C154.185 138.133 153.466 140.129 154.227 141.805Z" fill="#FFECD4"/>
<path d="M178.53 120.116L177.219 120.932L173.693 115.155L169.417 120.434L168.231 119.407L172.649 114.313L166.302 111.981L166.889 110.493L173.171 113.1L173.428 106.235L174.966 106.369L174.486 113.146L181.006 111.332L181.392 112.86L174.737 114.363L178.53 120.116ZM182.215 104.998L179.61 103.971L180.623 101.403L183.227 102.431L182.215 104.998ZM198.215 111.31L195.61 110.282L196.623 107.715L199.228 108.742L198.215 111.31ZM186.696 90.0416C186.006 91.7904 186.839 93.7103 188.551 94.3855C190.3 95.0754 192.22 94.2417 192.91 92.4929C193.585 90.7812 192.766 88.8242 191.017 88.1343C189.305 87.4591 187.371 88.3299 186.696 90.0416ZM181.555 74.2967C180.029 73.6948 179.102 72.34 179.571 71.1492C180.012 70.033 181.644 69.6018 183.169 70.2036C184.695 70.8054 185.593 72.2347 185.153 73.351C184.683 74.5417 183.08 74.8985 181.555 74.2967ZM180.953 75.8222C183.483 76.8204 186.146 76.0649 186.939 74.0556C187.717 72.0835 186.287 69.7134 183.757 68.7152C181.226 67.7171 178.563 68.4726 177.785 70.4447C176.993 72.454 178.423 74.8241 180.953 75.8222ZM222.572 54.1424C220.862 53.7544 218.842 53.7888 216.512 54.2456C214.191 54.6775 211.787 55.6497 209.298 57.162C206.775 58.6893 204.914 60.3917 203.714 62.2693L202.152 61.6528C202.492 59.4079 202.362 57.0489 201.761 54.5758C201.16 52.1027 200.181 49.8246 198.824 47.7413C197.443 45.6483 195.833 44.0243 193.995 42.8693L194.612 41.3065C195.965 41.5824 197.419 41.6398 198.973 41.4789C200.537 41.2932 202.124 40.9018 203.736 40.3049C205.323 39.6981 206.842 38.9357 208.293 38.0176C210.455 36.6059 212.166 34.9587 213.425 33.0759L214.987 33.6924C214.712 35.1892 214.708 36.8357 214.974 38.632C215.25 40.4035 215.713 42.1345 216.365 43.8249C217.017 45.5154 217.819 47.007 218.771 48.2999C220.226 50.2787 221.699 51.7053 223.189 52.5796L222.572 54.1424ZM221.885 53.2692L222.09 52.7482C220.849 52.1154 219.638 51.4081 218.455 50.6263C217.258 49.81 216.175 48.9956 215.205 48.1832C214.245 47.3459 213.489 46.5746 212.936 45.8691C212.797 44.8397 212.76 43.6638 212.823 42.3414C212.895 40.9941 213.045 39.6341 213.271 38.2613C213.507 36.8637 213.803 35.6045 214.159 34.4837L213.638 34.2782C213.109 35.3305 212.448 36.4603 211.656 37.6673C210.85 38.8398 210.013 39.9432 209.147 40.9773C208.255 42.0016 207.435 42.8102 206.685 43.4031C205.774 43.5312 204.695 43.5785 203.447 43.5448C202.184 43.4765 200.861 43.3417 199.478 43.1403C198.081 42.9043 196.713 42.5939 195.374 42.2091L195.168 42.7301C196.295 43.2892 197.437 43.9547 198.595 44.7267C199.737 45.464 200.801 46.2562 201.785 47.1033C202.77 47.9503 203.591 48.7758 204.248 49.5799C204.381 50.5498 204.429 51.7009 204.391 53.0332C204.328 54.3556 204.191 55.7205 203.98 57.1279C203.744 58.5255 203.45 59.8144 203.099 60.9946L203.62 61.2001C204.145 60.0884 204.793 58.9538 205.565 57.7963C206.337 56.6388 207.151 55.5554 208.008 54.5461C208.865 53.5367 209.695 52.7033 210.499 52.0458C211.479 51.8877 212.625 51.8525 213.938 51.9403C215.236 51.9936 216.583 52.1382 217.981 52.3742C219.354 52.6004 220.655 52.8987 221.885 53.2692Z" fill="#FFECD4"/>
</svg>
