<svg width="73" height="73" viewBox="0 0 73 73" fill="none" xmlns="http://www.w3.org/2000/svg">
<path d="M66.4125 40.9325C66.4125 45.4608 52.9985 51.1587 36.4594 51.1587C19.9203 51.1587 6.48889 45.4608 6.48889 40.9325C6.48889 36.4042 19.9029 32.7378 36.4419 32.7378C52.981 32.7378 66.4125 36.4067 66.4125 40.9325Z" fill="#342849"/>
<path d="M66.4125 40.5533C66.4125 44.8723 52.9985 49.4646 36.4594 49.4646C19.9203 49.4646 6.48889 44.8723 6.48889 40.5533C6.48889 36.2343 19.9029 32.7378 36.4419 32.7378C52.981 32.7378 66.4125 36.2368 66.4125 40.5533Z" fill="#443B63"/>
<path d="M34.5574 30.6891C34.5252 30.7571 34.4777 30.8169 34.4185 30.864C34.3592 30.9111 34.2899 30.9442 34.2157 30.9608C34.1416 30.9775 34.0645 30.9772 33.9905 30.9599C33.9165 30.9427 33.8474 30.909 33.7886 30.8615L26.3178 24.4864C26.2499 24.4317 26.1978 24.3603 26.1668 24.2793C26.1358 24.1984 26.1269 24.1109 26.1411 24.0255C26.1552 23.9401 26.1919 23.86 26.2475 23.793C26.3031 23.7261 26.3755 23.6748 26.4576 23.6443L26.7272 23.5433C26.6548 23.6454 26.6243 23.7708 26.6419 23.8942C26.6595 24.0175 26.7239 24.1297 26.822 24.2082L34.2928 30.5832C34.3687 30.6432 34.4606 30.68 34.5574 30.6891V30.6891Z" fill="#F4BD51"/>
<path d="M34.6372 21.2583L34.6048 30.4502C34.6117 30.535 34.5954 30.6201 34.5574 30.6965C34.4606 30.6873 34.3687 30.6505 34.2928 30.5906L26.822 24.2082C26.7239 24.1297 26.6595 24.0175 26.6419 23.8942C26.6243 23.7708 26.6548 23.6454 26.7271 23.5433L33.9658 20.8347C34.0382 20.8082 34.1159 20.7986 34.1927 20.8068C34.2695 20.8149 34.3434 20.8405 34.4085 20.8815C34.4735 20.9226 34.5281 20.978 34.5678 21.0433C34.6075 21.1087 34.6313 21.1823 34.6372 21.2583V21.2583Z" fill="#FFCA55"/>
<path d="M23.9116 40.5606C23.8902 40.6327 23.8525 40.6991 23.8012 40.7546C23.7499 40.81 23.6864 40.8532 23.6156 40.8808C23.5448 40.9083 23.4685 40.9196 23.3926 40.9136C23.3167 40.9076 23.2432 40.8846 23.1777 40.8463L14.7984 35.6901C14.7221 35.647 14.6588 35.5848 14.6147 35.5098C14.5707 35.4347 14.5475 35.3496 14.5475 35.2629C14.5475 35.1762 14.5707 35.091 14.6147 35.016C14.6588 34.941 14.7221 34.8788 14.7984 34.8357L15.048 34.6953C14.9925 34.8075 14.9823 34.9362 15.0194 35.0555C15.0564 35.1748 15.138 35.2757 15.2477 35.338L23.632 40.4917C23.7163 40.5413 23.8135 40.5653 23.9116 40.5606Z" fill="#F4BD51"/>
<path d="M22.5113 31.2309L23.9191 40.317C23.9409 40.3976 23.9409 40.4825 23.9191 40.5632C23.8183 40.5686 23.7182 40.5437 23.632 40.4918L15.2527 35.3381C15.143 35.2758 15.0614 35.1749 15.0244 35.0556C14.9873 34.9363 14.9975 34.8075 15.053 34.6954L21.7724 30.9083C21.8406 30.8692 21.9171 30.8467 21.9958 30.8424C22.0745 30.8382 22.1531 30.8523 22.2252 30.8838C22.2973 30.9153 22.3608 30.9631 22.4105 31.0234C22.4602 31.0838 22.4947 31.1548 22.5113 31.2309Z" fill="#FFCA55"/>
<path d="M16.9899 42.6512C17.0629 42.6727 17.1399 42.6774 17.215 42.665C17.2901 42.6526 17.3613 42.6234 17.4232 42.5797C17.4851 42.536 17.536 42.4789 17.5721 42.4127C17.6082 42.3466 17.6285 42.2732 17.6314 42.1981L17.7487 32.4546C17.7525 32.3678 17.733 32.2816 17.6921 32.2047C17.6512 32.1278 17.5904 32.0629 17.5159 32.0167C17.4414 31.9704 17.3558 31.9444 17.2678 31.9414C17.1798 31.9383 17.0926 31.9582 17.0149 31.9991L16.7653 32.132C16.8901 32.1468 17.0047 32.2075 17.0862 32.302C17.1676 32.3965 17.2099 32.5178 17.2046 32.6417L17.0898 42.3853C17.0847 42.4819 17.0499 42.5747 16.9899 42.6512V42.6512Z" fill="#F4BD51"/>
<path d="M9.78123 36.4584L16.7703 42.5281C16.8295 42.586 16.9024 42.6283 16.9824 42.6513C17.0406 42.5741 17.0737 42.4814 17.0773 42.3853L17.1921 32.6418C17.1974 32.5179 17.1551 32.3965 17.0737 32.302C16.9922 32.2076 16.8776 32.1469 16.7528 32.1321L9.90354 35.6705C9.83347 35.7061 9.77295 35.7576 9.72693 35.8207C9.68091 35.8839 9.65069 35.9568 9.63876 36.0337C9.62683 36.1106 9.63352 36.1891 9.65828 36.263C9.68305 36.3368 9.72518 36.4038 9.78123 36.4584Z" fill="#F4BD51"/>
<path d="M36.4494 41.9495C41.9457 41.9495 46.4013 40.9529 46.4013 39.7235C46.4013 38.4942 41.9457 37.4976 36.4494 37.4976C30.9531 37.4976 26.4975 38.4942 26.4975 39.7235C26.4975 40.9529 30.9531 41.9495 36.4494 41.9495Z" fill="#D6D4DD"/>
<path d="M28.1025 40.2012C28.0703 40.2692 28.0228 40.329 27.9636 40.3761C27.9044 40.4232 27.8351 40.4563 27.7609 40.4729C27.6867 40.4896 27.6097 40.4893 27.5357 40.472C27.4616 40.4548 27.3926 40.4211 27.3337 40.3735L19.863 34.001C19.7944 33.9463 19.7418 33.8748 19.7104 33.7936C19.6789 33.7124 19.6699 33.6244 19.6841 33.5386C19.6983 33.4528 19.7352 33.3723 19.7912 33.3051C19.8472 33.238 19.9202 33.1867 20.0027 33.1564L20.2723 33.0554C20.2 33.1575 20.1695 33.2829 20.1871 33.4063C20.2047 33.5296 20.269 33.6418 20.3672 33.7203L27.838 40.0953C27.9138 40.1553 28.0058 40.1921 28.1025 40.2012V40.2012Z" fill="#F4BD51"/>
<path d="M28.1824 30.7703L28.1499 39.9623C28.1569 40.0471 28.1405 40.1322 28.1025 40.2086C28.0058 40.1994 27.9138 40.1626 27.8379 40.1027L20.3671 33.7203C20.269 33.6418 20.2047 33.5296 20.1871 33.4062C20.1695 33.2829 20.1999 33.1575 20.2723 33.0554L27.511 30.3468C27.5834 30.3203 27.661 30.3107 27.7379 30.3188C27.8147 30.327 27.8885 30.3526 27.9536 30.3936C28.0187 30.4347 28.0732 30.4901 28.1129 30.5554C28.1526 30.6208 28.1764 30.6944 28.1824 30.7703Z" fill="#FFCA55"/>
<path d="M18.6023 43.6214C18.5882 43.6951 18.5571 43.7646 18.5116 43.8247C18.4661 43.8847 18.4072 43.9337 18.3395 43.9679C18.2719 44.0021 18.1972 44.0206 18.1212 44.022C18.0452 44.0234 17.9699 44.0077 17.9009 43.976L9.06729 39.6176C8.98748 39.5818 8.91865 39.5258 8.86774 39.4553C8.81683 39.3849 8.78563 39.3025 8.77728 39.2163C8.76893 39.1302 8.78372 39.0434 8.82017 38.9648C8.85663 38.8861 8.91345 38.8182 8.98492 38.7681L9.23453 38.6056C9.18954 38.721 9.19024 38.849 9.23649 38.9639C9.28273 39.0789 9.37114 39.1725 9.48414 39.2261L18.3203 43.5845C18.4087 43.6235 18.5067 43.6364 18.6023 43.6214V43.6214Z" fill="#F4BD51"/>
<path d="M16.3235 34.4638L18.5899 43.38C18.6171 43.4594 18.6214 43.5446 18.6024 43.6263C18.5068 43.6412 18.4088 43.6284 18.3204 43.5893L9.48421 39.2236C9.37121 39.17 9.2828 39.0764 9.23655 38.9614C9.19031 38.8464 9.18961 38.7185 9.2346 38.6031L15.5572 34.2102C15.6214 34.165 15.6955 34.1355 15.7735 34.124C15.8515 34.1126 15.9311 34.1195 16.0059 34.1442C16.0807 34.169 16.1484 34.2108 16.2036 34.2664C16.2588 34.3219 16.2999 34.3896 16.3235 34.4638Z" fill="#FFCA55"/>
<path d="M49.9208 40.0806C49.9352 40.1544 49.9665 40.2239 50.0123 40.2839C50.0582 40.344 50.1173 40.3928 50.1853 40.4268C50.2532 40.4608 50.3281 40.479 50.4043 40.48C50.4805 40.481 50.5559 40.4648 50.6247 40.4327L59.4559 36.0743C59.5359 36.0382 59.6049 35.9818 59.6557 35.9108C59.7065 35.8399 59.7374 35.757 59.7453 35.6705C59.7531 35.584 59.7377 35.4969 59.7004 35.4182C59.6632 35.3395 59.6055 35.2719 59.5332 35.2223L59.2961 35.0598C59.3411 35.1753 59.3404 35.3032 59.2942 35.4182C59.2479 35.5331 59.1595 35.6267 59.0465 35.6803L50.2054 40.0412C50.1165 40.0815 50.0175 40.0952 49.9208 40.0806Z" fill="#F4BD51"/>
<path d="M52.2023 30.9205L49.9358 39.8367C49.9097 39.9162 49.9046 40.0009 49.9208 40.0829C50.0176 40.0976 50.1165 40.0839 50.2054 40.0435L59.039 35.6827C59.152 35.6291 59.2404 35.5355 59.2867 35.4205C59.3329 35.3056 59.3336 35.1776 59.2887 35.0622L52.9686 30.6669C52.9044 30.6217 52.8302 30.5922 52.7522 30.5807C52.6742 30.5692 52.5946 30.5762 52.5198 30.6009C52.4451 30.6256 52.3773 30.6675 52.3221 30.7231C52.2669 30.7786 52.2258 30.8463 52.2023 30.9205V30.9205Z" fill="#FFCA55"/>
<path d="M45.1258 39.5068C45.158 39.5748 45.2055 39.6346 45.2648 39.6817C45.324 39.7288 45.3933 39.7619 45.4675 39.7786C45.5416 39.7952 45.6187 39.7949 45.6927 39.7776C45.7667 39.7604 45.8358 39.7267 45.8946 39.6792L53.3654 33.2992C53.4339 33.2446 53.4866 33.173 53.518 33.0918C53.5494 33.0106 53.5585 32.9226 53.5443 32.8368C53.5301 32.7511 53.4931 32.6705 53.4372 32.6034C53.3812 32.5362 53.3082 32.4849 53.2256 32.4546L52.9561 32.366C53.0284 32.4681 53.0589 32.5934 53.0413 32.7168C53.0237 32.8402 52.9593 32.9524 52.8612 33.0308L45.3904 39.3935C45.3154 39.4561 45.2234 39.4955 45.1258 39.5068V39.5068Z" fill="#F4BD51"/>
<path d="M45.0459 30.0686L45.0784 39.2606C45.0714 39.3454 45.0878 39.4304 45.1258 39.5068C45.2226 39.4977 45.3145 39.4609 45.3904 39.4009L52.8612 33.0259C52.9593 32.9475 53.0236 32.8353 53.0412 32.7119C53.0588 32.5885 53.0284 32.4632 52.956 32.3611L45.7174 29.6525C45.6455 29.626 45.5684 29.6163 45.4922 29.624C45.4159 29.6317 45.3424 29.6567 45.2775 29.6969C45.2125 29.7372 45.1578 29.7916 45.1177 29.8561C45.0775 29.9206 45.053 29.9933 45.0459 30.0686V30.0686Z" fill="#FFCA55"/>
<path d="M39.4747 41.1319C39.4897 41.2061 39.5218 41.2758 39.5685 41.3357C39.6152 41.3956 39.6753 41.4441 39.7441 41.4775C39.8129 41.5108 39.8885 41.5281 39.9652 41.5279C40.0418 41.5278 40.1174 41.5102 40.1861 41.4766L49.0197 37.1183C49.1002 37.0821 49.1694 37.0254 49.2204 36.9542C49.2714 36.8829 49.3023 36.7995 49.3099 36.7126C49.3176 36.6257 49.3016 36.5383 49.2638 36.4595C49.226 36.3806 49.1676 36.3131 49.0946 36.2638L48.845 36.1013C48.89 36.2168 48.8893 36.3447 48.843 36.4597C48.7968 36.5746 48.7084 36.6682 48.5954 36.7218L39.7567 41.0925C39.6686 41.1324 39.5706 41.1461 39.4747 41.1319Z" fill="#F4BD51"/>
<path d="M41.7536 31.972L39.4872 40.8882C39.4645 40.9687 39.4645 41.0538 39.4872 41.1344C39.5831 41.1486 39.6811 41.1349 39.7692 41.095L48.6029 36.7342C48.7159 36.6806 48.8043 36.587 48.8505 36.472C48.8968 36.357 48.8975 36.2291 48.8525 36.1136L42.5199 31.7208C42.4559 31.6756 42.3819 31.646 42.3041 31.6343C42.2262 31.6227 42.1467 31.6294 42.0719 31.6539C41.9972 31.6784 41.9294 31.72 41.8741 31.7753C41.8188 31.8305 41.7775 31.8979 41.7536 31.972Z" fill="#FFCA55"/>
<path d="M20.8788 44.2468C20.911 44.3148 20.9585 44.3746 21.0177 44.4217C21.0769 44.4688 21.1463 44.502 21.2204 44.5186C21.2946 44.5352 21.3716 44.5349 21.4457 44.5177C21.5197 44.5005 21.5888 44.4668 21.6476 44.4192L29.1184 38.0466C29.1869 37.992 29.2395 37.9204 29.271 37.8392C29.3024 37.758 29.3115 37.67 29.2973 37.5843C29.2831 37.4985 29.2461 37.4179 29.1901 37.3508C29.1342 37.2837 29.0612 37.2323 28.9786 37.202L28.704 37.1011C28.7764 37.2032 28.8068 37.3285 28.7892 37.4519C28.7716 37.5753 28.7073 37.6875 28.6092 37.7659L21.1434 44.1409C21.0675 44.2009 20.9755 44.2377 20.8788 44.2468Z" fill="#F4BD51"/>
<path d="M20.799 34.8283L20.8315 44.0202C20.8245 44.105 20.8409 44.1901 20.8789 44.2665C20.9757 44.2573 21.0676 44.2206 21.1435 44.1606L28.6143 37.7659C28.7124 37.6874 28.7767 37.5752 28.7943 37.4519C28.8119 37.3285 28.7815 37.2031 28.7091 37.101L21.4705 34.3924C21.3971 34.3657 21.3184 34.3564 21.2407 34.3651C21.163 34.3739 21.0885 34.4006 21.0231 34.443C20.9578 34.4854 20.9035 34.5424 20.8645 34.6093C20.8256 34.6762 20.8032 34.7512 20.799 34.8283V34.8283Z" fill="#F4BD51"/>
<path d="M22.5712 45.2564C22.6452 45.2381 22.7141 45.2034 22.7724 45.1548C22.8307 45.1062 22.8769 45.0451 22.9075 44.9762C22.9381 44.9072 22.9523 44.8322 22.9489 44.757C22.9456 44.6818 22.9248 44.6084 22.8882 44.5423L17.946 36.1087C17.9045 36.0322 17.8433 35.9679 17.7685 35.9222C17.6937 35.8766 17.608 35.8512 17.5201 35.8487C17.4322 35.8462 17.3452 35.8667 17.2679 35.908C17.1906 35.9493 17.1257 36.0101 17.0798 36.0841L16.9276 36.3303C17.0434 36.2798 17.1743 36.2746 17.2939 36.3157C17.4135 36.3569 17.5127 36.4413 17.5715 36.552L22.5163 44.9806C22.5614 45.0653 22.5804 45.1611 22.5712 45.2564V45.2564Z" fill="#F4BD51"/>
<path d="M13.1684 43.5623L22.3266 45.2564C22.4083 45.2782 22.4945 45.2782 22.5762 45.2564C22.5854 45.1611 22.5664 45.0653 22.5213 44.9806L17.5715 36.5519C17.5119 36.4422 17.4123 36.3588 17.2928 36.3186C17.1733 36.2784 17.0428 36.2843 16.9276 36.3353L12.8664 42.8236C12.8247 42.8894 12.7993 42.9641 12.7925 43.0415C12.7856 43.1189 12.7973 43.1967 12.8268 43.2688C12.8562 43.3408 12.9025 43.4049 12.9619 43.456C13.0213 43.507 13.0921 43.5434 13.1684 43.5623V43.5623Z" fill="#F4BD51"/>
<path d="M22.9107 45.7218C22.8785 45.7898 22.8309 45.8496 22.7717 45.8967C22.7125 45.9438 22.6432 45.9769 22.569 45.9936C22.4948 46.0102 22.4178 46.0099 22.3438 45.9927C22.2697 45.9754 22.2007 45.9417 22.1419 45.8942L14.6711 39.5216C14.6025 39.467 14.5499 39.3954 14.5185 39.3142C14.4871 39.233 14.478 39.145 14.4922 39.0592C14.5064 38.9734 14.5433 38.8929 14.5993 38.8258C14.6553 38.7586 14.7283 38.7073 14.8108 38.677L15.0804 38.576C15.0081 38.6782 14.9776 38.8035 14.9952 38.9269C15.0128 39.0503 15.0772 39.1625 15.1753 39.2409L22.6461 45.6159C22.7219 45.6759 22.8139 45.7127 22.9107 45.7218V45.7218Z" fill="#F4BD51"/>
<path d="M22.9905 36.291L22.963 45.483C22.97 45.5677 22.9536 45.6528 22.9156 45.7292C22.8189 45.7201 22.7269 45.6833 22.651 45.6233L15.1753 39.2409C15.0771 39.1625 15.0128 39.0502 14.9952 38.9269C14.9776 38.8035 15.008 38.6781 15.0804 38.576L22.3191 35.8675C22.3915 35.8409 22.4692 35.8314 22.546 35.8395C22.6228 35.8476 22.6966 35.8732 22.7617 35.9142C22.8268 35.9553 22.8813 36.0107 22.921 36.0761C22.9607 36.1414 22.9845 36.215 22.9905 36.291Z" fill="#FFCA55"/>
<path d="M46.4013 32.036C46.4013 33.2672 41.9458 34.2521 36.4494 34.2521C30.953 34.2521 26.4975 33.2672 26.4975 32.036H46.4013Z" fill="#D6D4DD"/>
<path d="M46.4013 32.0359C46.4013 33.2671 41.9458 34.2521 36.4494 34.2521C30.953 34.2521 26.4975 33.2671 26.4975 32.0359C26.4975 30.8048 30.953 29.8198 36.4494 29.8198C41.9458 29.8198 46.4013 30.8072 46.4013 32.0359Z" fill="#B6B4C1"/>
<path d="M46.4014 31.9892C46.4026 32.0048 46.4026 32.0204 46.4014 32.036H45.8847C45.9014 31.9894 45.9099 31.9402 45.9096 31.8907C45.9096 30.7703 41.6663 29.8593 36.4519 29.8593C31.2376 29.8593 26.9943 30.7703 26.9943 31.8907C26.994 31.9402 27.0025 31.9894 27.0192 32.036H26.5C26.4988 32.0204 26.4988 32.0048 26.5 31.9892C26.5 30.6768 30.9556 29.613 36.4519 29.613C41.9483 29.613 46.4014 30.6768 46.4014 31.9892Z" fill="#C4C2CC"/>
<path d="M32.6379 28.0322C31.3125 28.0889 28.2672 29.8962 28.2672 30.2927C28.2672 30.6891 26.52 32.2946 27.164 32.9274C27.808 33.5602 27.2563 35.0376 29.8273 34.88C29.8273 34.88 31.5596 36.1752 32.6379 35.8157C33.7162 35.4562 36.397 35.1509 36.397 35.1509C36.4973 35.3706 36.6656 35.5532 36.8777 35.6727C37.0899 35.7921 37.3349 35.8422 37.5777 35.8157C38.4463 35.7295 42.0981 35.8305 42.2478 34.6806C42.2478 34.6806 43.5957 35.1287 44.2222 34.6806C44.8488 34.2324 45.2931 33.0751 45.3804 32.4152C45.5726 30.9797 43.2862 28.867 42.0706 29.7288C41.5265 30.1129 40.7502 28.0642 38.2366 28.5222C35.7231 28.9802 34.8245 27.9337 32.6379 28.0322Z" fill="#6BA546"/>
<path d="M45.8821 32.036C45.5377 33.0899 41.4466 33.9197 36.4494 33.9197C31.4522 33.9197 27.3612 33.0899 27.0167 32.036H26.5C26.6023 33.3238 31.0179 34.3605 36.4494 34.3605C41.8809 34.3605 46.2965 33.3238 46.3988 32.036H45.8821Z" fill="#C4C2CC"/>
<path d="M46.4013 32.036V39.721H26.4975V32.036C26.4975 32.036 26.4975 34.2521 36.4494 34.2521C46.4013 34.2521 46.4013 32.036 46.4013 32.036Z" fill="#D6D4DD"/>
<path d="M30.3864 30.9057C30.3864 31.1323 30.2691 31.152 30.0369 31.152C29.8048 31.152 29.6201 31.1372 29.6201 30.9057C29.6201 30.6743 29.8073 30.5782 30.0369 30.5782C30.2666 30.5782 30.3864 30.6767 30.3864 30.9057Z" fill="#EA471B"/>
<path d="M32.0688 32.196C32.0688 32.425 31.949 32.4423 31.7193 32.4423C31.4897 32.4423 31.3025 32.4275 31.3025 32.196C31.3025 31.9646 31.4897 31.8685 31.7193 31.8685C31.949 31.8685 32.0688 31.9695 32.0688 32.196Z" fill="#EA471B"/>
<path d="M33.9459 30.369C33.9459 30.5069 33.8635 30.5118 33.6963 30.5118C33.529 30.5118 33.4042 30.5118 33.4042 30.3641C33.4042 30.2164 33.534 30.1671 33.6963 30.1671C33.8585 30.1671 33.9459 30.2311 33.9459 30.369Z" fill="#EA471B"/>
<path d="M36.5867 32.787C36.5867 33.0136 36.4694 33.021 36.2398 33.021C36.0101 33.021 35.8204 33.0062 35.8204 32.7747C35.8204 32.5433 36.0076 32.4472 36.2398 32.4472C36.2869 32.4397 36.3351 32.4432 36.3805 32.4576C36.4259 32.4719 36.4672 32.4967 36.5011 32.5299C36.5349 32.563 36.5603 32.6036 36.5752 32.6483C36.5901 32.693 36.5941 32.7405 36.5867 32.787Z" fill="#EA471B"/>
<path d="M35.6232 30.0242C35.6232 30.1596 35.5409 30.167 35.3736 30.167C35.2064 30.167 35.0816 30.167 35.0816 30.0193C35.0816 29.8715 35.2114 29.8198 35.3736 29.8198C35.5359 29.8198 35.6232 29.8863 35.6232 30.0242Z" fill="#EA471B"/>
<path d="M35.0516 31.4032C34.9268 31.4623 34.8594 31.5337 34.802 31.4327C34.7446 31.3318 34.7222 31.2481 34.8495 31.1865C34.9768 31.1249 35.1864 31.0535 35.2663 31.2382C35.3462 31.4229 35.1789 31.3441 35.0516 31.4032Z" fill="#F4DED9"/>
<path d="M31.2576 30.3764C31.1178 30.3616 31.023 30.3764 31.0354 30.2779C31.0479 30.1794 31.0679 30.0785 31.2077 30.0932C31.3474 30.108 31.5646 30.1573 31.5347 30.3543C31.5047 30.5512 31.3949 30.3961 31.2576 30.3764Z" fill="#F4DED9"/>
<path d="M34.3876 29.5514C34.2503 29.5367 34.1555 29.5514 34.168 29.4529C34.1805 29.3545 34.2004 29.2535 34.3377 29.2707C34.475 29.288 34.6971 29.3323 34.6672 29.517C34.6372 29.7016 34.5274 29.5662 34.3876 29.5514Z" fill="#F4DED9"/>
<path d="M32.291 28.6158C32.1512 28.601 32.0563 28.6158 32.0688 28.5173C32.0813 28.4188 32.1013 28.3178 32.2386 28.3326C32.3758 28.3474 32.598 28.3966 32.568 28.5936C32.5381 28.7906 32.4283 28.6306 32.291 28.6158Z" fill="#F4DED9"/>
<path d="M33.1272 32.9619C32.9899 32.9471 32.8951 32.9619 32.9075 32.8634C32.92 32.7649 32.94 32.6664 33.0773 32.6812C33.2146 32.6959 33.4367 32.7427 33.4068 32.9422C33.3768 33.1416 33.267 32.9791 33.1272 32.9619Z" fill="#F4DED9"/>
<path d="M38.8781 31.9745C38.7383 31.9573 38.6435 31.9745 38.656 31.8735C38.6684 31.7726 38.6884 31.6766 38.8257 31.6913C38.963 31.7061 39.1851 31.7529 39.1552 31.9523C39.1252 32.1518 39.0154 31.9893 38.8781 31.9745Z" fill="#F4DED9"/>
<path d="M39.587 29.5514C39.4472 29.5367 39.3524 29.5514 39.3649 29.4529C39.3773 29.3545 39.3973 29.2535 39.5346 29.2707C39.6719 29.288 39.894 29.3323 39.8641 29.517C39.8341 29.7016 39.7243 29.5662 39.587 29.5514Z" fill="#F4DED9"/>
<path d="M37.3231 29.9307C37.1833 29.916 37.0884 29.9307 37.1009 29.8323C37.1134 29.7338 37.1334 29.6353 37.2731 29.65C37.4129 29.6648 37.6326 29.7116 37.6001 29.911C37.5677 30.1105 37.4603 29.9455 37.3231 29.9307Z" fill="#F4DED9"/>
<path d="M42.3252 32.2945C42.3252 32.5235 42.2054 32.5408 41.9758 32.5408C41.7461 32.5408 41.5589 32.526 41.5589 32.2945C41.5589 32.0631 41.7461 31.967 41.9758 31.967C42.0218 31.96 42.0688 31.9635 42.1132 31.9772C42.1576 31.9909 42.1983 32.0145 42.232 32.0461C42.2658 32.0777 42.2917 32.1166 42.3079 32.1596C42.324 32.2027 42.33 32.2488 42.3252 32.2945V32.2945Z" fill="#EA471B"/>
<path d="M34.0432 29.0196C34.0432 29.1969 33.2444 28.9851 32.5455 28.9851C31.8466 28.9851 31.7568 29.192 31.7568 29.0147C31.7568 28.8374 32.3109 28.7684 33.0048 28.7684C33.6987 28.7684 34.0432 28.8423 34.0432 29.0196Z" fill="#61993D"/>
<path d="M30.9506 31.2702C30.9506 31.0929 32.2136 31.3071 33.2969 31.3071C34.3802 31.3071 34.5449 31.1003 34.5449 31.2776C34.5449 31.4549 33.6688 31.5238 32.588 31.5238C31.5072 31.5238 30.9506 31.4499 30.9506 31.2702Z" fill="#61993D"/>
<path d="M38.2716 29.8814C38.2716 29.7041 39.0978 29.9159 39.8042 29.9159C40.5106 29.9159 40.6179 29.7091 40.6179 29.8863C40.6179 30.0636 40.0463 30.1326 39.3399 30.1326C38.6335 30.1326 38.2716 30.0587 38.2716 29.8814Z" fill="#61993D"/>
<path d="M37.9621 33.1047C37.9421 32.9299 39.2101 33.0087 40.2984 32.8954C41.3867 32.7821 41.519 32.5581 41.5464 32.7354C41.5739 32.9126 40.7003 33.0801 39.6244 33.1934C38.5486 33.3066 37.982 33.2918 37.9621 33.1047Z" fill="#61993D"/>
<path d="M42.0157 31.0585C42.0157 31.1964 41.9333 31.2013 41.7661 31.2013C41.5989 31.2013 41.4741 31.2013 41.4741 31.0536C41.4741 30.9058 41.6039 30.8566 41.7661 30.8566C41.9283 30.8566 42.0157 30.9206 42.0157 31.0585Z" fill="#EA471B"/>
<path d="M38.656 32.196C38.656 32.425 38.5362 32.4423 38.3065 32.4423C38.0769 32.4423 37.8897 32.4275 37.8897 32.196C37.8897 31.9646 38.0769 31.8685 38.3065 31.8685C38.5362 31.8685 38.656 31.9695 38.656 32.196Z" fill="#EA471B"/>
<path d="M39.1028 30.6547C39.1028 30.7876 39.0354 30.7926 38.9006 30.7926C38.7658 30.7926 38.651 30.7926 38.651 30.6497C38.651 30.5069 38.7583 30.4577 38.9006 30.4577C38.9279 30.4536 38.9557 30.4558 38.982 30.4642C39.0082 30.4727 39.0321 30.487 39.0518 30.5061C39.0714 30.5253 39.0862 30.5487 39.0951 30.5744C39.1039 30.6002 39.1066 30.6277 39.1028 30.6547V30.6547Z" fill="#EA471B"/>
<path d="M36.7315 31.1692C36.7315 31.3022 36.6616 31.3071 36.5268 31.3071C36.392 31.3071 36.2772 31.3071 36.2772 31.1643C36.2772 31.0215 36.387 30.9722 36.5268 30.9722C36.5542 30.9683 36.5821 30.9705 36.6084 30.979C36.6348 30.9874 36.6588 31.0017 36.6786 31.0207C36.6984 31.0398 36.7135 31.0631 36.7227 31.0889C36.7318 31.1146 36.7348 31.1421 36.7315 31.1692V31.1692Z" fill="#EA471B"/>
<path d="M38.8107 29.187C38.8107 29.3249 38.7259 29.3298 38.5611 29.3298C38.3964 29.3298 38.2666 29.3298 38.2666 29.1821C38.2666 29.0344 38.3989 28.9851 38.5611 28.9851C38.7234 28.9851 38.8107 29.0491 38.8107 29.187Z" fill="#EA471B"/>
<path d="M27.8579 46.6477C27.8437 46.7214 27.8127 46.7909 27.7671 46.8509C27.7216 46.911 27.6628 46.96 27.5951 46.9942C27.5274 47.0284 27.4528 47.0469 27.3767 47.0483C27.3007 47.0497 27.2254 47.0339 27.1565 47.0023L18.3228 42.6439C18.2429 42.6075 18.1742 42.5509 18.1236 42.4798C18.0731 42.4088 18.0424 42.3258 18.0348 42.2393C18.0272 42.1528 18.0429 42.0659 18.0804 41.9873C18.1178 41.9087 18.1756 41.8413 18.248 41.7919L18.4826 41.6294C18.4376 41.7448 18.4383 41.8728 18.4846 41.9877C18.5308 42.1027 18.6192 42.1963 18.7322 42.2499L27.5684 46.6107C27.659 46.6512 27.7598 46.6641 27.8579 46.6477Z" fill="#F4BD51"/>
<path d="M25.5765 37.4901L27.8429 46.4014C27.8709 46.4805 27.8761 46.5658 27.8579 46.6476C27.7622 46.6626 27.6642 46.6497 27.5758 46.6107L18.7397 42.2499C18.6267 42.1962 18.5383 42.1027 18.492 41.9877C18.4458 41.8727 18.4451 41.7448 18.4901 41.6293L24.8126 37.2365C24.8768 37.1918 24.9507 37.1627 25.0284 37.1515C25.1061 37.1403 25.1854 37.1474 25.2598 37.1721C25.3342 37.1968 25.4017 37.2385 25.4567 37.2937C25.5117 37.349 25.5527 37.4163 25.5765 37.4901Z" fill="#FFCA55"/>
<path d="M30.6709 47.1106C30.6387 47.1786 30.5912 47.2384 30.532 47.2855C30.4728 47.3326 30.4035 47.3657 30.3293 47.3824C30.2551 47.399 30.1781 47.3987 30.1041 47.3814C30.03 47.3642 29.961 47.3305 29.9022 47.283L22.4314 40.9104C22.3628 40.8557 22.3102 40.7842 22.2788 40.703C22.2474 40.6218 22.2383 40.5338 22.2525 40.448C22.2667 40.3622 22.3036 40.2817 22.3596 40.2146C22.4156 40.1474 22.4886 40.0961 22.5711 40.0658L22.8382 39.9648C22.7661 40.0672 22.7361 40.1928 22.7542 40.3162C22.7722 40.4396 22.8371 40.5516 22.9356 40.6297L30.4064 47.0047C30.4822 47.0647 30.5742 47.1015 30.6709 47.1106V47.1106Z" fill="#F4BD51"/>
<path d="M30.7509 37.6797L30.7184 46.8717C30.7244 46.9564 30.7081 47.0412 30.671 47.1179C30.5742 47.1088 30.4823 47.072 30.4064 47.012L22.9356 40.6296C22.8371 40.5515 22.7723 40.4395 22.7542 40.3161C22.7361 40.1927 22.7662 40.0672 22.8383 39.9648L30.0769 37.2562C30.1495 37.2292 30.2274 37.2192 30.3046 37.2271C30.3817 37.235 30.4559 37.2605 30.5213 37.3016C30.5867 37.3427 30.6415 37.3983 30.6814 37.4639C30.7212 37.5295 30.745 37.6034 30.7509 37.6797Z" fill="#FFCA55"/>
<path d="M56.8899 43.156C56.9041 43.2297 56.9351 43.2992 56.9806 43.3593C57.0262 43.4193 57.085 43.4683 57.1527 43.5025C57.2203 43.5367 57.295 43.5552 57.371 43.5566C57.4471 43.558 57.5224 43.5423 57.5913 43.5106L66.4249 39.1522C66.5056 39.1163 66.5751 39.0598 66.6263 38.9887C66.6775 38.9175 66.7087 38.8342 66.7166 38.7473C66.7244 38.6603 66.7087 38.5729 66.6711 38.4939C66.6335 38.4149 66.5752 38.3472 66.5023 38.2978L66.2527 38.1353C66.2977 38.2507 66.297 38.3786 66.2508 38.4936C66.2045 38.6086 66.1161 38.7022 66.0031 38.7558L57.1744 43.1166C57.0856 43.157 56.9866 43.1707 56.8899 43.156V43.156Z" fill="#F4BD51"/>
<path d="M59.1713 33.996L56.9099 42.9122C56.8838 42.9917 56.8786 43.0765 56.8949 43.1585C56.9916 43.1731 57.0906 43.1594 57.1795 43.1191L66.0081 38.7681C66.1211 38.7145 66.2095 38.6209 66.2558 38.5059C66.302 38.391 66.3027 38.263 66.2577 38.1476L59.9351 33.7449C59.8712 33.7002 59.7974 33.671 59.7199 33.6596C59.6423 33.6483 59.5631 33.6551 59.4887 33.6796C59.4144 33.704 59.3469 33.7454 59.2917 33.8004C59.2366 33.8554 59.1953 33.9224 59.1713 33.996V33.996Z" fill="#FFCA55"/>
<path d="M52.8637 42.6759C52.8959 42.7439 52.9434 42.8037 53.0027 42.8508C53.0619 42.8979 53.1312 42.931 53.2054 42.9477C53.2795 42.9643 53.3566 42.964 53.4306 42.9468C53.5046 42.9295 53.5737 42.8958 53.6325 42.8483L61.1033 36.4757C61.1718 36.4211 61.2245 36.3495 61.2559 36.2683C61.2873 36.1871 61.2964 36.0991 61.2822 36.0133C61.268 35.9275 61.231 35.847 61.1751 35.7799C61.1191 35.7127 61.0461 35.6614 60.9635 35.6311L60.694 35.5302C60.7663 35.6323 60.7968 35.7576 60.7792 35.881C60.7616 36.0044 60.6972 36.1166 60.5991 36.195L53.1283 42.57C53.0524 42.63 52.9605 42.6668 52.8637 42.6759Z" fill="#F4BD51"/>
<path d="M52.7838 33.245L52.8163 42.437C52.8093 42.5218 52.8257 42.6068 52.8637 42.6832C52.9605 42.6741 53.0524 42.6373 53.1283 42.5773L60.5991 36.2023C60.6972 36.1239 60.7615 36.0117 60.7791 35.8883C60.7967 35.7649 60.7663 35.6396 60.6939 35.5375L53.4553 32.8289C53.3834 32.8024 53.3063 32.7927 53.2301 32.8004C53.1538 32.8081 53.0803 32.8331 53.0154 32.8733C52.9504 32.9136 52.8957 32.968 52.8556 33.0325C52.8154 33.0969 52.7909 33.1697 52.7838 33.245V33.245Z" fill="#F4BD51"/>
<path d="M46.9255 42.8704C46.9577 42.9383 47.0052 42.9982 47.0644 43.0453C47.1236 43.0924 47.193 43.1255 47.2671 43.1421C47.3413 43.1588 47.4184 43.1584 47.4924 43.1412C47.5664 43.124 47.6355 43.0903 47.6943 43.0427L55.1626 36.6702C55.2311 36.6155 55.2838 36.544 55.3152 36.4628C55.3466 36.3815 55.3557 36.2936 55.3415 36.2078C55.3273 36.122 55.2903 36.0415 55.2344 35.9743C55.1784 35.9072 55.1054 35.8559 55.0228 35.8256L54.7532 35.7246C54.8256 35.8267 54.8561 35.9521 54.8385 36.0754C54.8209 36.1988 54.7565 36.311 54.6584 36.3894L47.1951 42.7645C47.1178 42.8253 47.024 42.8622 46.9255 42.8704V42.8704Z" fill="#F4BD51"/>
<path d="M46.8506 33.4395L46.8831 42.6315C46.8761 42.7163 46.8925 42.8013 46.9305 42.8777C47.0273 42.8686 47.1192 42.8318 47.1951 42.7718L54.6634 36.3894C54.7615 36.311 54.8258 36.1988 54.8434 36.0754C54.861 35.952 54.8306 35.8267 54.7582 35.7246L47.5196 33.016C47.4473 32.9899 47.3699 32.9807 47.2934 32.9891C47.2169 32.9974 47.1434 33.0231 47.0786 33.0641C47.0139 33.1051 46.9596 33.1603 46.92 33.2254C46.8805 33.2906 46.8567 33.3638 46.8506 33.4395V33.4395Z" fill="#F4BD51"/>
<path d="M42.6821 46.1183C42.7143 46.1863 42.7619 46.2461 42.8211 46.2932C42.8803 46.3403 42.9496 46.3734 43.0238 46.39C43.098 46.4067 43.175 46.4064 43.249 46.3891C43.3231 46.3719 43.3921 46.3382 43.4509 46.2907L50.9192 39.9181C50.9878 39.8634 51.0404 39.7919 51.0718 39.7107C51.1032 39.6295 51.1123 39.5415 51.0981 39.4557C51.0839 39.3699 51.047 39.2894 50.991 39.2222C50.935 39.1551 50.862 39.1038 50.7795 39.0735L50.5099 38.9725C50.5822 39.0746 50.6127 39.2 50.5951 39.3234C50.5775 39.4467 50.5131 39.5589 50.415 39.6374L42.9442 46.0124C42.8691 46.0719 42.778 46.1087 42.6821 46.1183V46.1183Z" fill="#F4BD51"/>
<path d="M42.5998 36.6874L42.6323 45.8794C42.6253 45.9642 42.6417 46.0493 42.6797 46.1256C42.7764 46.1165 42.8684 46.0797 42.9443 46.0198L50.42 39.6373C50.5182 39.5589 50.5825 39.4467 50.6001 39.3233C50.6177 39.2 50.5873 39.0746 50.5149 38.9725L43.2762 36.2639C43.2036 36.2364 43.1254 36.2261 43.0479 36.2338C42.9704 36.2414 42.8959 36.2668 42.8301 36.308C42.7644 36.3492 42.7094 36.4049 42.6694 36.4708C42.6294 36.5367 42.6056 36.6109 42.5998 36.6874V36.6874Z" fill="#F4BD51"/>
<path d="M55.1626 42.9393C55.1948 43.0073 55.2423 43.0671 55.3015 43.1142C55.3607 43.1613 55.4301 43.1945 55.5042 43.2111C55.5784 43.2277 55.6554 43.2274 55.7295 43.2102C55.8035 43.193 55.8726 43.1593 55.9314 43.1117L63.3997 36.7391C63.4682 36.6845 63.5208 36.6129 63.5523 36.5317C63.5837 36.4505 63.5928 36.3625 63.5786 36.2768C63.5644 36.191 63.5274 36.1104 63.4714 36.0433C63.4155 35.9762 63.3425 35.9248 63.2599 35.8945L62.9903 35.7936C63.0627 35.8957 63.0931 36.021 63.0755 36.1444C63.0579 36.2678 62.9936 36.38 62.8955 36.4584L55.4122 42.8335C55.3405 42.8908 55.2541 42.9275 55.1626 42.9393V42.9393Z" fill="#F4BD51"/>
<path d="M55.0727 33.5085L55.1052 42.7079C55.0982 42.7927 55.1146 42.8777 55.1526 42.9541C55.2494 42.945 55.3413 42.9082 55.4172 42.8482L62.9005 36.4584C62.9986 36.38 63.0629 36.2678 63.0805 36.1444C63.0981 36.021 63.0677 35.8957 62.9953 35.7936L55.7567 33.085C55.6836 33.056 55.6046 33.0446 55.5261 33.0515C55.4477 33.0585 55.3721 33.0836 55.3054 33.1249C55.2387 33.1662 55.1828 33.2225 55.1424 33.2892C55.102 33.3558 55.0781 33.431 55.0727 33.5085Z" fill="#FFCA55"/>
<path d="M49.9208 45.5347C49.9349 45.6087 49.9659 45.6785 50.0116 45.7388C50.0574 45.7991 50.1165 45.8483 50.1845 45.8825C50.2524 45.9168 50.3275 45.9352 50.4038 45.9364C50.4801 45.9375 50.5557 45.9214 50.6247 45.8892L59.4559 41.5309C59.5359 41.4947 59.6049 41.4383 59.6557 41.3674C59.7065 41.2965 59.7374 41.2136 59.7453 41.127C59.7531 41.0405 59.7377 40.9535 59.7004 40.8748C59.6632 40.7961 59.6055 40.7285 59.5332 40.6789L59.2836 40.5139C59.3293 40.6297 59.329 40.7582 59.2827 40.8737C59.2364 40.9893 59.1476 41.0833 59.034 41.1369L50.2004 45.4953C50.113 45.5347 50.0159 45.5483 49.9208 45.5347Z" fill="#F4BD51"/>
<path d="M52.1973 36.3747L49.9208 45.2909C49.8948 45.3704 49.8896 45.4551 49.9059 45.5371C50.0026 45.5518 50.1015 45.5381 50.1904 45.4977L59.0241 41.1393C59.1377 41.0857 59.2265 40.9917 59.2728 40.8762C59.3191 40.7606 59.3194 40.6321 59.2737 40.5164L52.9636 36.1235C52.8995 36.0783 52.8256 36.0487 52.7477 36.037C52.6699 36.0254 52.5903 36.0321 52.5156 36.0566C52.4409 36.0811 52.3731 36.1227 52.3178 36.178C52.2624 36.2332 52.2211 36.3006 52.1973 36.3747Z" fill="#FFCA55"/>
<path d="M46.2316 46.6476C46.2638 46.7156 46.3113 46.7754 46.3705 46.8225C46.4297 46.8696 46.499 46.9027 46.5732 46.9193C46.6474 46.936 46.7244 46.9357 46.7985 46.9184C46.8725 46.9012 46.9415 46.8675 47.0004 46.82L54.4712 40.4474C54.5397 40.3927 54.5923 40.3212 54.6237 40.24C54.6552 40.1588 54.6642 40.0708 54.65 39.985C54.6358 39.8992 54.5989 39.8187 54.5429 39.7515C54.4869 39.6844 54.414 39.6331 54.3314 39.6028L54.0618 39.5018C54.1342 39.6039 54.1646 39.7293 54.147 39.8527C54.1294 39.976 54.0651 40.0882 53.9669 40.1667L46.4962 46.5417C46.4203 46.6017 46.3283 46.6385 46.2316 46.6476V46.6476Z" fill="#F4BD51"/>
<path d="M46.1517 37.2044L46.1767 46.4013C46.1697 46.4861 46.1861 46.5712 46.2241 46.6476C46.3209 46.6385 46.4128 46.6017 46.4887 46.5417L53.9595 40.1667C54.0576 40.0882 54.122 39.976 54.1396 39.8527C54.1572 39.7293 54.1267 39.6039 54.0543 39.5018L46.8157 36.7932C46.7446 36.7682 46.6687 36.7595 46.5937 36.7676C46.5187 36.7757 46.4465 36.8005 46.3826 36.84C46.3187 36.8796 46.2647 36.933 46.2248 36.9961C46.1848 37.0592 46.1598 37.1304 46.1517 37.2044V37.2044Z" fill="#FFCA55"/>
<path d="M33.791 47.3297C33.8232 47.3977 33.8708 47.4575 33.93 47.5046C33.9892 47.5517 34.0585 47.5848 34.1327 47.6015C34.2069 47.6181 34.2839 47.6178 34.3579 47.6006C34.432 47.5833 34.501 47.5497 34.5598 47.5021L42.0306 41.1295C42.0992 41.0749 42.1518 41.0033 42.1832 40.9221C42.2146 40.8409 42.2237 40.7529 42.2095 40.6671C42.1953 40.5814 42.1584 40.5008 42.1024 40.4337C42.0464 40.3665 41.9734 40.3152 41.8909 40.2849L41.6213 40.184C41.6936 40.2861 41.7241 40.4114 41.7065 40.5348C41.6889 40.6582 41.6245 40.7704 41.5264 40.8488L34.0556 47.2238C33.9798 47.2838 33.8878 47.3206 33.791 47.3297V47.3297Z" fill="#F4BD51"/>
<path d="M33.7112 37.8989L33.7437 47.0909C33.7368 47.1757 33.7531 47.2608 33.7911 47.3371C33.8879 47.328 33.9798 47.2912 34.0557 47.2313L41.5265 40.8562C41.6246 40.7778 41.689 40.6656 41.7066 40.5422C41.7242 40.4189 41.6937 40.2935 41.6213 40.1914L34.3827 37.4828C34.3108 37.4564 34.2338 37.4466 34.1575 37.4543C34.0812 37.4621 34.0077 37.487 33.9428 37.5273C33.8778 37.5675 33.8232 37.622 33.783 37.6864C33.7429 37.7509 33.7183 37.8236 33.7112 37.8989Z" fill="#FFCA55"/>
<path d="M39.9365 47.0465C39.9687 47.1145 40.0162 47.1743 40.0754 47.2214C40.1346 47.2685 40.2039 47.3016 40.2781 47.3183C40.3523 47.3349 40.4293 47.3346 40.5033 47.3174C40.5774 47.3001 40.6464 47.2665 40.7053 47.2189L48.176 40.8463C48.2446 40.7917 48.2972 40.7201 48.3286 40.6389C48.3601 40.5577 48.3691 40.4697 48.3549 40.3839C48.3407 40.2982 48.3038 40.2176 48.2478 40.1505C48.1918 40.0833 48.1189 40.032 48.0363 40.0017L47.7667 39.9008C47.8391 40.0029 47.8695 40.1282 47.8519 40.2516C47.8343 40.375 47.77 40.4872 47.6718 40.5656L40.211 46.9406C40.1324 47.0024 40.0367 47.0393 39.9365 47.0465V47.0465Z" fill="#F4BD51"/>
<path d="M39.8666 37.6156L39.899 46.8076C39.8921 46.8924 39.9085 46.9775 39.9464 47.0539C40.0432 47.0447 40.1352 47.0079 40.211 46.948L47.6743 40.5656C47.7725 40.4871 47.8368 40.3749 47.8544 40.2515C47.872 40.1282 47.8416 40.0028 47.7692 39.9007L40.5305 37.1921C40.4585 37.167 40.3816 37.1585 40.3058 37.1673C40.2299 37.1761 40.1571 37.202 40.093 37.2429C40.0289 37.2838 39.9751 37.3387 39.9359 37.4033C39.8966 37.4679 39.8729 37.5406 39.8666 37.6156Z" fill="#FFCA55"/>
<path d="M27.9727 46.2266C27.9762 46.3018 27.997 46.3752 28.0337 46.4412C28.0704 46.5072 28.122 46.564 28.1844 46.6073C28.2468 46.6506 28.3185 46.6792 28.3939 46.6908C28.4692 46.7025 28.5463 46.697 28.6192 46.6748L37.987 43.5919C38.0722 43.5679 38.1493 43.522 38.2105 43.4589C38.2717 43.3958 38.3148 43.3178 38.3354 43.2328C38.356 43.1479 38.3533 43.059 38.3276 42.9754C38.3019 42.8919 38.2541 42.8165 38.1892 42.7571L37.977 42.5626C38.0044 42.6842 37.9841 42.8114 37.9202 42.9188C37.8563 43.0261 37.7535 43.1056 37.6326 43.1413L28.2598 46.2291C28.1659 46.256 28.0661 46.2551 27.9727 46.2266Z" fill="#F4BD51"/>
<path d="M31.5421 37.4779L28.0226 45.9878C27.9839 46.0639 27.9667 46.149 27.9727 46.234C28.0663 46.2617 28.1661 46.2617 28.2598 46.234L37.6276 43.1462C37.7485 43.1106 37.8513 43.0311 37.9152 42.9237C37.9791 42.8163 37.9994 42.6891 37.972 42.5675L32.3359 37.335C32.2789 37.2816 32.2099 37.2421 32.1345 37.2199C32.0592 37.1977 31.9796 37.1934 31.9022 37.2073C31.8248 37.2213 31.7519 37.253 31.6893 37.3C31.6267 37.347 31.5763 37.408 31.5421 37.4779Z" fill="#FFCA55"/>
</svg>
