<svg width="47" height="47" viewBox="0 0 47 47" fill="none" xmlns="http://www.w3.org/2000/svg">
<path d="M23.5 7.34375H17.625C16.8138 7.34375 16.1562 8.00133 16.1562 8.8125V38.1875C16.1562 38.9987 16.8138 39.6562 17.625 39.6562H23.5C24.3112 39.6562 24.9688 38.9987 24.9688 38.1875V8.8125C24.9688 8.00133 24.3112 7.34375 23.5 7.34375Z" fill="#4B674E" stroke="#012622" stroke-width="2" stroke-linecap="round" stroke-linejoin="round"/>
<path d="M16.1562 32.3125H24.9688" stroke="#012622" stroke-width="2" stroke-linecap="round" stroke-linejoin="round"/>
<path d="M32.2273 6.86309L26.5286 8.39059C25.7417 8.60149 25.2749 9.41032 25.4858 10.1971L33.1233 38.6909C33.3342 39.4777 34.143 39.9446 34.9298 39.7337L40.6286 38.2062C41.4154 37.9953 41.8823 37.1865 41.6714 36.3996L34.0339 7.9059C33.823 7.11907 33.0141 6.65218 32.2273 6.86309Z" fill="#4B674E" stroke="#012622" stroke-width="2.00848" stroke-linecap="round" stroke-linejoin="round"/>
<path d="M31.4313 32.9L39.95 30.6051" stroke="#012622" stroke-width="2" stroke-linecap="round" stroke-linejoin="round"/>
<path d="M26.8781 15.8625L35.3969 13.5859" stroke="#012622" stroke-width="2" stroke-linecap="round" stroke-linejoin="round"/>
<path d="M13.3438 7H7.46875C6.65758 7 6 7.65758 6 8.46875V37.8438C6 38.6549 6.65758 39.3125 7.46875 39.3125H13.3438C14.1549 39.3125 14.8125 38.6549 14.8125 37.8438V8.46875C14.8125 7.65758 14.1549 7 13.3438 7Z" fill="#4B674E" stroke="#012622" stroke-width="2" stroke-linecap="round" stroke-linejoin="round"/>
<path d="M6 15H14.8125" stroke="#012622" stroke-width="2" stroke-linecap="round" stroke-linejoin="round"/>
</svg>
