<svg width="42" height="41" viewBox="0 0 42 41" fill="none" xmlns="http://www.w3.org/2000/svg">
<path d="M35.5435 40H24.2247V30.2707V29.2707H23.2247H18.0358H17.0358V30.2707V40H6.45824C6.22165 40 5.97572 39.7944 5.97572 39.4672V25.3994V24.3994H4.97572H2.96505C1.91307 24.3994 1 23.5041 1 22.3339C1 21.7761 1.21627 21.2456 1.58952 20.8596C1.5896 20.8595 1.58968 20.8594 1.58977 20.8593L20.6724 1.1445L20.6733 1.14354C20.7194 1.09576 20.7724 1.05971 20.8282 1.03576C20.884 1.01184 20.9426 1 21.0009 1C21.0592 1 21.1177 1.01184 21.1735 1.03576C21.2294 1.05971 21.2823 1.09576 21.3284 1.14354L21.3294 1.1445L40.412 20.8593C41.1954 21.6693 41.1955 22.9952 40.4152 23.8051L40.4137 23.8067C40.0451 24.191 39.55 24.3994 39.0367 24.3994H37.026H36.026V25.3994V39.4672C36.026 39.7944 35.7801 40 35.5435 40Z" fill="#4B674E" stroke="#012622" stroke-width="2"/>
</svg>
