<svg width="375" height="70" viewBox="0 0 375 70" fill="none" xmlns="http://www.w3.org/2000/svg">
<rect width="375" height="70" rx="35" fill="#D3EFBD"/>
<path d="M233.724 17.8196L234.5 18.7723L235.276 17.8196C237.929 14.56 241.557 13.0324 244.905 13.0005C248.264 12.9685 251.27 14.431 252.831 17.0751C254.384 19.7047 254.655 23.7595 251.994 29.2078C249.387 34.5481 244.002 41.1224 234.5 48.7227C224.998 41.1231 219.613 34.5492 217.006 29.2091C214.345 23.761 214.616 19.7061 216.169 17.0763C217.73 14.4319 220.736 12.9692 224.095 13.0009C227.443 13.0326 231.071 14.56 233.724 17.8196Z" fill="#4B674E" stroke="#012622" stroke-width="2"/>
<path d="M63.5435 49H52.2247V39.2707V38.2707H51.2247H46.0358H45.0358V39.2707V49H34.4582C34.2217 49 33.9757 48.7944 33.9757 48.4672V34.3994V33.3994H32.9757H30.965C29.9131 33.3994 29 32.5041 29 31.3339C29 30.7761 29.2163 30.2456 29.5895 29.8596C29.5896 29.8595 29.5897 29.8594 29.5898 29.8593L48.6724 10.1445L48.6733 10.1435C48.7194 10.0958 48.7724 10.0597 48.8282 10.0358C48.884 10.0118 48.9426 10 49.0009 10C49.0592 10 49.1177 10.0118 49.1735 10.0358C49.2294 10.0597 49.2823 10.0958 49.3284 10.1435L49.3294 10.1445L68.412 29.8593C69.1954 30.6693 69.1955 31.9952 68.4152 32.8051L68.4137 32.8067C68.0451 33.191 67.55 33.3994 67.0367 33.3994H65.026H64.026V34.3994V48.4672C64.026 48.7944 63.7801 49 63.5435 49Z" fill="#4B674E" stroke="#012622" stroke-width="2"/>
<path d="M339.612 41.1174L339.158 41.6629C339.149 41.6725 339.14 41.6822 339.131 41.6921C339.081 41.7439 339.027 41.8006 338.963 41.8698L338.96 41.8733C338.576 42.2898 338.185 42.6838 337.779 43.053C337.698 43.1263 337.62 43.1926 337.531 43.2681C337.49 43.3032 337.446 43.3404 337.399 43.3811L337.398 43.382C337.003 43.7223 336.597 44.0454 336.181 44.3503L335.877 44.5642C332.698 46.8 328.904 48 325.016 48C321.127 48 317.334 46.8 314.154 44.5642L313.829 44.3356C313.422 44.0374 313.024 43.7186 312.634 43.382L312.633 43.3811C312.58 43.3361 312.534 43.2967 312.49 43.2601C312.405 43.1875 312.333 43.1263 312.254 43.055L312.252 43.0529C311.848 42.6862 311.457 42.2913 311.072 41.8733L311.069 41.8698C311.002 41.7978 310.947 41.7404 310.897 41.6889C310.894 41.6856 310.891 41.6824 310.888 41.6791L310.413 41.1139C307.564 37.7196 306.001 33.4311 306 29.0009L306 29.0002C305.997 25.9516 306.73 22.9472 308.135 20.241C309.54 17.5349 311.577 15.2066 314.073 13.4533C316.57 11.7 319.452 10.5731 322.476 10.1682C325.501 9.76324 328.579 10.0921 331.449 11.1269C334.319 12.1618 336.898 13.8721 338.967 16.1132C341.035 18.3543 342.533 21.0602 343.334 24.002C344.135 26.9438 344.215 30.035 343.567 33.0141C342.919 35.9933 341.563 38.7727 339.612 41.1174ZM312.588 41.7437L312.582 42.1968L312.918 42.5C316.237 45.4885 320.547 47.1422 325.014 47.1422C329.482 47.1422 333.791 45.4885 337.11 42.5L337.447 42.1968L337.441 41.7437C337.413 39.605 336.543 37.5637 335.02 36.0612C333.497 34.5587 331.443 33.7159 329.304 33.7148H329.303H320.726H320.725C318.585 33.7159 316.532 34.5587 315.009 36.0612C313.486 37.5637 312.616 39.605 312.588 41.7437ZM329.144 17.8254C327.921 17.0093 326.484 16.5737 325.014 16.5737C323.043 16.5737 321.153 17.3561 319.759 18.749C318.364 20.142 317.581 22.0314 317.581 24.0016C317.581 25.4709 318.017 26.9071 318.834 28.1287C319.651 29.3502 320.812 30.3021 322.17 30.8642C323.528 31.4263 325.023 31.5734 326.464 31.2868C327.906 31.0003 329.23 30.293 330.27 29.2542C331.31 28.2155 332.018 26.8919 332.305 25.4509C332.591 24.0099 332.444 22.5162 331.882 21.1588C331.319 19.8015 330.366 18.6414 329.144 17.8254Z" fill="#4B674E" stroke="#012622" stroke-width="2"/>
<rect x="207" y="54" width="54" height="10" rx="5" fill="#F6A90A"/>
<path d="M312.938 63V54.9H315.658C316.145 54.9 316.545 54.9933 316.858 55.18C317.171 55.36 317.405 55.6267 317.558 55.98C317.711 56.3267 317.788 56.75 317.788 57.25C317.788 57.8767 317.685 58.3567 317.478 58.69C317.271 59.0167 316.991 59.2433 316.638 59.37C316.285 59.4967 315.888 59.56 315.448 59.56H314.728V63H312.938ZM314.728 58.31H315.328C315.548 58.31 315.715 58.27 315.828 58.19C315.941 58.11 316.015 57.99 316.048 57.83C316.088 57.67 316.108 57.4667 316.108 57.22C316.108 57.0133 316.091 56.8333 316.058 56.68C316.031 56.52 315.961 56.3933 315.848 56.3C315.735 56.2067 315.558 56.16 315.318 56.16H314.728V58.31ZM318.581 63V57.22H320.211V58.18C320.397 57.8467 320.584 57.5933 320.771 57.42C320.957 57.24 321.184 57.15 321.451 57.15C321.504 57.15 321.551 57.1533 321.591 57.16C321.631 57.16 321.667 57.1667 321.701 57.18V58.8C321.627 58.7667 321.544 58.74 321.451 58.72C321.364 58.6933 321.271 58.68 321.171 58.68C320.984 58.68 320.811 58.73 320.651 58.83C320.491 58.93 320.344 59.0667 320.211 59.24V63H318.581ZM324.289 63.1C323.876 63.1 323.516 63.03 323.209 62.89C322.909 62.75 322.676 62.54 322.509 62.26C322.349 61.98 322.269 61.63 322.269 61.21V59.01C322.269 58.59 322.349 58.24 322.509 57.96C322.676 57.68 322.909 57.47 323.209 57.33C323.516 57.19 323.876 57.12 324.289 57.12C324.702 57.12 325.059 57.19 325.359 57.33C325.666 57.47 325.902 57.68 326.069 57.96C326.236 58.24 326.319 58.59 326.319 59.01V61.21C326.319 61.63 326.236 61.98 326.069 62.26C325.902 62.54 325.666 62.75 325.359 62.89C325.059 63.03 324.702 63.1 324.289 63.1ZM324.299 62.02C324.406 62.02 324.489 61.9933 324.549 61.94C324.609 61.88 324.649 61.8 324.669 61.7C324.696 61.5933 324.709 61.4667 324.709 61.32V58.9C324.709 58.7533 324.696 58.63 324.669 58.53C324.649 58.4233 324.609 58.3433 324.549 58.29C324.489 58.23 324.406 58.2 324.299 58.2C324.192 58.2 324.109 58.23 324.049 58.29C323.989 58.3433 323.946 58.4233 323.919 58.53C323.892 58.63 323.879 58.7533 323.879 58.9V61.32C323.879 61.4667 323.892 61.5933 323.919 61.7C323.946 61.8 323.989 61.88 324.049 61.94C324.109 61.9933 324.192 62.02 324.299 62.02ZM327.403 63V58.32H326.853V57.22H327.403V56.79C327.403 56.4433 327.446 56.1433 327.533 55.89C327.626 55.6367 327.783 55.44 328.003 55.3C328.23 55.16 328.543 55.09 328.943 55.09C329.05 55.09 329.16 55.0967 329.273 55.11C329.393 55.1167 329.516 55.13 329.643 55.15V56.26C329.61 56.2533 329.573 56.25 329.533 56.25C329.493 56.2433 329.453 56.24 329.413 56.24C329.3 56.24 329.206 56.2733 329.133 56.34C329.066 56.4067 329.033 56.5367 329.033 56.73V57.22H331.723V63H330.113V58.32H329.033V63H327.403ZM330.213 56.24V55.11H331.723V56.24H330.213ZM332.801 63V54.9H334.421V63H332.801ZM337.365 63.1C336.945 63.1 336.585 63.0267 336.285 62.88C335.985 62.7267 335.755 62.5067 335.595 62.22C335.435 61.9267 335.355 61.5767 335.355 61.17V59.05C335.355 58.6367 335.435 58.2867 335.595 58C335.755 57.7133 335.985 57.4967 336.285 57.35C336.592 57.1967 336.952 57.12 337.365 57.12C337.792 57.12 338.145 57.1933 338.425 57.34C338.712 57.4867 338.925 57.7033 339.065 57.99C339.212 58.2767 339.285 58.63 339.285 59.05V60.21H336.965V61.32C336.965 61.4667 336.982 61.5867 337.015 61.68C337.048 61.7733 337.095 61.84 337.155 61.88C337.215 61.92 337.285 61.94 337.365 61.94C337.445 61.94 337.515 61.9233 337.575 61.89C337.642 61.85 337.692 61.79 337.725 61.71C337.765 61.63 337.785 61.52 337.785 61.38V60.77H339.285V61.33C339.285 61.9167 339.115 62.36 338.775 62.66C338.435 62.9533 337.965 63.1 337.365 63.1ZM336.965 59.45H337.785V58.87C337.785 58.7167 337.765 58.5967 337.725 58.51C337.692 58.4233 337.642 58.3633 337.575 58.33C337.515 58.2967 337.442 58.28 337.355 58.28C337.275 58.28 337.205 58.3 337.145 58.34C337.092 58.38 337.048 58.45 337.015 58.55C336.982 58.6433 336.965 58.78 336.965 58.96V59.45Z" fill="#012622"/>
<path d="M312.938 63V54.9H315.658C316.145 54.9 316.545 54.9933 316.858 55.18C317.171 55.36 317.405 55.6267 317.558 55.98C317.711 56.3267 317.788 56.75 317.788 57.25C317.788 57.8767 317.685 58.3567 317.478 58.69C317.271 59.0167 316.991 59.2433 316.638 59.37C316.285 59.4967 315.888 59.56 315.448 59.56H314.728V63H312.938ZM314.728 58.31H315.328C315.548 58.31 315.715 58.27 315.828 58.19C315.941 58.11 316.015 57.99 316.048 57.83C316.088 57.67 316.108 57.4667 316.108 57.22C316.108 57.0133 316.091 56.8333 316.058 56.68C316.031 56.52 315.961 56.3933 315.848 56.3C315.735 56.2067 315.558 56.16 315.318 56.16H314.728V58.31ZM318.581 63V57.22H320.211V58.18C320.397 57.8467 320.584 57.5933 320.771 57.42C320.957 57.24 321.184 57.15 321.451 57.15C321.504 57.15 321.551 57.1533 321.591 57.16C321.631 57.16 321.667 57.1667 321.701 57.18V58.8C321.627 58.7667 321.544 58.74 321.451 58.72C321.364 58.6933 321.271 58.68 321.171 58.68C320.984 58.68 320.811 58.73 320.651 58.83C320.491 58.93 320.344 59.0667 320.211 59.24V63H318.581ZM324.289 63.1C323.876 63.1 323.516 63.03 323.209 62.89C322.909 62.75 322.676 62.54 322.509 62.26C322.349 61.98 322.269 61.63 322.269 61.21V59.01C322.269 58.59 322.349 58.24 322.509 57.96C322.676 57.68 322.909 57.47 323.209 57.33C323.516 57.19 323.876 57.12 324.289 57.12C324.702 57.12 325.059 57.19 325.359 57.33C325.666 57.47 325.902 57.68 326.069 57.96C326.236 58.24 326.319 58.59 326.319 59.01V61.21C326.319 61.63 326.236 61.98 326.069 62.26C325.902 62.54 325.666 62.75 325.359 62.89C325.059 63.03 324.702 63.1 324.289 63.1ZM324.299 62.02C324.406 62.02 324.489 61.9933 324.549 61.94C324.609 61.88 324.649 61.8 324.669 61.7C324.696 61.5933 324.709 61.4667 324.709 61.32V58.9C324.709 58.7533 324.696 58.63 324.669 58.53C324.649 58.4233 324.609 58.3433 324.549 58.29C324.489 58.23 324.406 58.2 324.299 58.2C324.192 58.2 324.109 58.23 324.049 58.29C323.989 58.3433 323.946 58.4233 323.919 58.53C323.892 58.63 323.879 58.7533 323.879 58.9V61.32C323.879 61.4667 323.892 61.5933 323.919 61.7C323.946 61.8 323.989 61.88 324.049 61.94C324.109 61.9933 324.192 62.02 324.299 62.02ZM327.403 63V58.32H326.853V57.22H327.403V56.79C327.403 56.4433 327.446 56.1433 327.533 55.89C327.626 55.6367 327.783 55.44 328.003 55.3C328.23 55.16 328.543 55.09 328.943 55.09C329.05 55.09 329.16 55.0967 329.273 55.11C329.393 55.1167 329.516 55.13 329.643 55.15V56.26C329.61 56.2533 329.573 56.25 329.533 56.25C329.493 56.2433 329.453 56.24 329.413 56.24C329.3 56.24 329.206 56.2733 329.133 56.34C329.066 56.4067 329.033 56.5367 329.033 56.73V57.22H331.723V63H330.113V58.32H329.033V63H327.403ZM330.213 56.24V55.11H331.723V56.24H330.213ZM332.801 63V54.9H334.421V63H332.801ZM337.365 63.1C336.945 63.1 336.585 63.0267 336.285 62.88C335.985 62.7267 335.755 62.5067 335.595 62.22C335.435 61.9267 335.355 61.5767 335.355 61.17V59.05C335.355 58.6367 335.435 58.2867 335.595 58C335.755 57.7133 335.985 57.4967 336.285 57.35C336.592 57.1967 336.952 57.12 337.365 57.12C337.792 57.12 338.145 57.1933 338.425 57.34C338.712 57.4867 338.925 57.7033 339.065 57.99C339.212 58.2767 339.285 58.63 339.285 59.05V60.21H336.965V61.32C336.965 61.4667 336.982 61.5867 337.015 61.68C337.048 61.7733 337.095 61.84 337.155 61.88C337.215 61.92 337.285 61.94 337.365 61.94C337.445 61.94 337.515 61.9233 337.575 61.89C337.642 61.85 337.692 61.79 337.725 61.71C337.765 61.63 337.785 61.52 337.785 61.38V60.77H339.285V61.33C339.285 61.9167 339.115 62.36 338.775 62.66C338.435 62.9533 337.965 63.1 337.365 63.1ZM336.965 59.45H337.785V58.87C337.785 58.7167 337.765 58.5967 337.725 58.51C337.692 58.4233 337.642 58.3633 337.575 58.33C337.515 58.2967 337.442 58.28 337.355 58.28C337.275 58.28 337.205 58.3 337.145 58.34C337.092 58.38 337.048 58.45 337.015 58.55C336.982 58.6433 336.965 58.78 336.965 58.96V59.45Z" fill="#012622"/>
<path d="M211.528 63L211.668 54.9H213.588L214.478 59.61L215.438 54.9H217.288L217.428 63H216.158L216.008 57.61L215.068 63H213.938L212.938 57.57L212.818 63H211.528ZM218.669 64.68V63.55C218.876 63.55 219.046 63.5367 219.179 63.51C219.319 63.4833 219.422 63.4333 219.489 63.36C219.562 63.2867 219.599 63.1867 219.599 63.06C219.599 62.9467 219.579 62.81 219.539 62.65C219.499 62.4833 219.449 62.2967 219.389 62.09L218.029 57.22H219.559L220.289 60.56L220.839 57.22H222.379L221.049 63.14C220.962 63.54 220.826 63.85 220.639 64.07C220.452 64.2967 220.222 64.4533 219.949 64.54C219.682 64.6333 219.379 64.68 219.039 64.68H218.669ZM225.64 63V54.9H227.87C228.417 54.9 228.89 54.96 229.29 55.08C229.69 55.2 230 55.4167 230.22 55.73C230.447 56.0367 230.56 56.4733 230.56 57.04C230.56 57.3733 230.533 57.67 230.48 57.93C230.427 58.19 230.327 58.4167 230.18 58.61C230.04 58.7967 229.837 58.9533 229.57 59.08L230.68 63H228.83L227.94 59.37H227.43V63H225.64ZM227.43 58.34H227.93C228.183 58.34 228.38 58.2967 228.52 58.21C228.66 58.1167 228.757 57.9867 228.81 57.82C228.87 57.6467 228.9 57.44 228.9 57.2C228.9 56.8533 228.837 56.5833 228.71 56.39C228.583 56.1967 228.35 56.1 228.01 56.1H227.43V58.34ZM233.436 63.1C233.016 63.1 232.656 63.0267 232.356 62.88C232.056 62.7267 231.826 62.5067 231.666 62.22C231.506 61.9267 231.426 61.5767 231.426 61.17V59.05C231.426 58.6367 231.506 58.2867 231.666 58C231.826 57.7133 232.056 57.4967 232.356 57.35C232.663 57.1967 233.023 57.12 233.436 57.12C233.863 57.12 234.216 57.1933 234.496 57.34C234.783 57.4867 234.996 57.7033 235.136 57.99C235.283 58.2767 235.356 58.63 235.356 59.05V60.21H233.036V61.32C233.036 61.4667 233.053 61.5867 233.086 61.68C233.119 61.7733 233.166 61.84 233.226 61.88C233.286 61.92 233.356 61.94 233.436 61.94C233.516 61.94 233.586 61.9233 233.646 61.89C233.713 61.85 233.763 61.79 233.796 61.71C233.836 61.63 233.856 61.52 233.856 61.38V60.77H235.356V61.33C235.356 61.9167 235.186 62.36 234.846 62.66C234.506 62.9533 234.036 63.1 233.436 63.1ZM233.036 59.45H233.856V58.87C233.856 58.7167 233.836 58.5967 233.796 58.51C233.763 58.4233 233.713 58.3633 233.646 58.33C233.586 58.2967 233.513 58.28 233.426 58.28C233.346 58.28 233.276 58.3 233.216 58.34C233.163 58.38 233.119 58.45 233.086 58.55C233.053 58.6433 233.036 58.78 233.036 58.96V59.45ZM238.123 63.1C237.703 63.1 237.343 63.0233 237.043 62.87C236.75 62.7167 236.523 62.4967 236.363 62.21C236.203 61.9233 236.123 61.5767 236.123 61.17V59.05C236.123 58.6367 236.203 58.2867 236.363 58C236.523 57.7133 236.75 57.4967 237.043 57.35C237.343 57.1967 237.703 57.12 238.123 57.12C238.537 57.12 238.887 57.1833 239.173 57.31C239.467 57.4367 239.69 57.63 239.843 57.89C239.997 58.1433 240.073 58.4667 240.073 58.86V59.47H238.503V58.81C238.503 58.6567 238.487 58.54 238.453 58.46C238.427 58.3733 238.383 58.3133 238.323 58.28C238.27 58.2467 238.203 58.23 238.123 58.23C238.043 58.23 237.977 58.2533 237.923 58.3C237.87 58.34 237.83 58.41 237.803 58.51C237.777 58.6033 237.763 58.7367 237.763 58.91V61.31C237.763 61.57 237.793 61.7467 237.853 61.84C237.92 61.9333 238.013 61.98 238.133 61.98C238.22 61.98 238.29 61.9633 238.343 61.93C238.397 61.89 238.437 61.83 238.463 61.75C238.49 61.6633 238.503 61.55 238.503 61.41V60.64H240.073V61.34C240.073 61.7267 239.993 62.0533 239.833 62.32C239.68 62.58 239.457 62.7767 239.163 62.91C238.877 63.0367 238.53 63.1 238.123 63.1ZM240.931 63V57.22H242.561V63H240.931ZM240.921 56.24V55.11H242.561V56.24H240.921ZM243.568 64.9V57.22H245.198V57.64C245.391 57.4667 245.598 57.3367 245.818 57.25C246.038 57.1633 246.248 57.12 246.448 57.12C246.668 57.12 246.854 57.1633 247.008 57.25C247.168 57.3367 247.298 57.46 247.398 57.62C247.498 57.7733 247.571 57.9533 247.618 58.16C247.664 58.3667 247.688 58.5867 247.688 58.82V61.31C247.688 61.67 247.638 61.9833 247.538 62.25C247.444 62.5167 247.304 62.7267 247.118 62.88C246.931 63.0267 246.701 63.1 246.428 63.1C246.221 63.1 246.011 63.0533 245.798 62.96C245.591 62.86 245.391 62.7267 245.198 62.56V64.9H243.568ZM245.628 62.05C245.734 62.05 245.818 62.02 245.878 61.96C245.938 61.9 245.981 61.8233 246.008 61.73C246.041 61.63 246.058 61.52 246.058 61.4V58.7C246.058 58.5867 246.044 58.4867 246.018 58.4C245.991 58.3067 245.948 58.2333 245.888 58.18C245.828 58.1267 245.751 58.1 245.658 58.1C245.571 58.1 245.488 58.12 245.408 58.16C245.334 58.1933 245.264 58.24 245.198 58.3V61.9C245.271 61.9467 245.341 61.9833 245.408 62.01C245.481 62.0367 245.554 62.05 245.628 62.05ZM250.506 63.1C250.086 63.1 249.726 63.0267 249.426 62.88C249.126 62.7267 248.896 62.5067 248.736 62.22C248.576 61.9267 248.496 61.5767 248.496 61.17V59.05C248.496 58.6367 248.576 58.2867 248.736 58C248.896 57.7133 249.126 57.4967 249.426 57.35C249.733 57.1967 250.093 57.12 250.506 57.12C250.933 57.12 251.286 57.1933 251.566 57.34C251.853 57.4867 252.066 57.7033 252.206 57.99C252.353 58.2767 252.426 58.63 252.426 59.05V60.21H250.106V61.32C250.106 61.4667 250.123 61.5867 250.156 61.68C250.19 61.7733 250.236 61.84 250.296 61.88C250.356 61.92 250.426 61.94 250.506 61.94C250.586 61.94 250.656 61.9233 250.716 61.89C250.783 61.85 250.833 61.79 250.866 61.71C250.906 61.63 250.926 61.52 250.926 61.38V60.77H252.426V61.33C252.426 61.9167 252.256 62.36 251.916 62.66C251.576 62.9533 251.106 63.1 250.506 63.1ZM250.106 59.45H250.926V58.87C250.926 58.7167 250.906 58.5967 250.866 58.51C250.833 58.4233 250.783 58.3633 250.716 58.33C250.656 58.2967 250.583 58.28 250.496 58.28C250.416 58.28 250.346 58.3 250.286 58.34C250.233 58.38 250.19 58.45 250.156 58.55C250.123 58.6433 250.106 58.78 250.106 58.96V59.45ZM255.094 63.1C254.587 63.1 254.164 62.9867 253.824 62.76C253.49 62.5333 253.217 62.1633 253.004 61.65L254.114 61.16C254.22 61.42 254.344 61.6267 254.484 61.78C254.63 61.9267 254.79 62 254.964 62C255.09 62 255.184 61.9733 255.244 61.92C255.31 61.8667 255.344 61.7933 255.344 61.7C255.344 61.5467 255.284 61.4067 255.164 61.28C255.05 61.1533 254.844 60.9667 254.544 60.72L254.124 60.37C253.817 60.11 253.574 59.86 253.394 59.62C253.22 59.3733 253.134 59.07 253.134 58.71C253.134 58.3967 253.214 58.12 253.374 57.88C253.54 57.64 253.76 57.4533 254.034 57.32C254.307 57.1867 254.6 57.12 254.914 57.12C255.387 57.12 255.784 57.25 256.104 57.51C256.424 57.77 256.647 58.1367 256.774 58.61L255.724 59.09C255.684 58.9633 255.627 58.8367 255.554 58.71C255.48 58.5833 255.39 58.4767 255.284 58.39C255.184 58.3033 255.074 58.26 254.954 58.26C254.847 58.26 254.76 58.29 254.694 58.35C254.634 58.41 254.604 58.49 254.604 58.59C254.604 58.7167 254.674 58.8533 254.814 59C254.96 59.1467 255.16 59.3233 255.414 59.53L255.824 59.89C255.99 60.03 256.154 60.18 256.314 60.34C256.474 60.5 256.604 60.6767 256.704 60.87C256.81 61.0633 256.864 61.2833 256.864 61.53C256.864 61.8633 256.78 62.15 256.614 62.39C256.447 62.6233 256.227 62.8 255.954 62.92C255.687 63.04 255.4 63.1 255.094 63.1Z" fill="#FCEFCE"/>
<path d="M126.665 63.12C126.052 63.12 125.565 63.01 125.205 62.79C124.852 62.5633 124.602 62.25 124.455 61.85C124.308 61.4433 124.235 60.9667 124.235 60.42V57.5C124.235 56.94 124.308 56.46 124.455 56.06C124.602 55.6533 124.852 55.34 125.205 55.12C125.565 54.9 126.052 54.79 126.665 54.79C127.265 54.79 127.732 54.89 128.065 55.09C128.405 55.2833 128.645 55.5567 128.785 55.91C128.925 56.2633 128.995 56.67 128.995 57.13V57.83H127.245V57.02C127.245 56.86 127.235 56.7067 127.215 56.56C127.202 56.4133 127.155 56.2933 127.075 56.2C126.995 56.1 126.858 56.05 126.665 56.05C126.478 56.05 126.338 56.1 126.245 56.2C126.158 56.3 126.102 56.4267 126.075 56.58C126.055 56.7267 126.045 56.8833 126.045 57.05V60.86C126.045 61.04 126.058 61.2067 126.085 61.36C126.118 61.5067 126.178 61.6267 126.265 61.72C126.358 61.8067 126.492 61.85 126.665 61.85C126.852 61.85 126.985 61.8033 127.065 61.71C127.145 61.61 127.195 61.4833 127.215 61.33C127.235 61.1767 127.245 61.02 127.245 60.86V60.01H128.995V60.71C128.995 61.17 128.925 61.5833 128.785 61.95C128.652 62.31 128.415 62.5967 128.075 62.81C127.742 63.0167 127.272 63.12 126.665 63.12ZM131.79 63.1C131.377 63.1 131.017 63.03 130.71 62.89C130.41 62.75 130.177 62.54 130.01 62.26C129.85 61.98 129.77 61.63 129.77 61.21V59.01C129.77 58.59 129.85 58.24 130.01 57.96C130.177 57.68 130.41 57.47 130.71 57.33C131.017 57.19 131.377 57.12 131.79 57.12C132.203 57.12 132.56 57.19 132.86 57.33C133.167 57.47 133.403 57.68 133.57 57.96C133.737 58.24 133.82 58.59 133.82 59.01V61.21C133.82 61.63 133.737 61.98 133.57 62.26C133.403 62.54 133.167 62.75 132.86 62.89C132.56 63.03 132.203 63.1 131.79 63.1ZM131.8 62.02C131.907 62.02 131.99 61.9933 132.05 61.94C132.11 61.88 132.15 61.8 132.17 61.7C132.197 61.5933 132.21 61.4667 132.21 61.32V58.9C132.21 58.7533 132.197 58.63 132.17 58.53C132.15 58.4233 132.11 58.3433 132.05 58.29C131.99 58.23 131.907 58.2 131.8 58.2C131.693 58.2 131.61 58.23 131.55 58.29C131.49 58.3433 131.447 58.4233 131.42 58.53C131.393 58.63 131.38 58.7533 131.38 58.9V61.32C131.38 61.4667 131.393 61.5933 131.42 61.7C131.447 61.8 131.49 61.88 131.55 61.94C131.61 61.9933 131.693 62.02 131.8 62.02ZM135.744 63.1C135.511 63.1 135.311 63.0433 135.144 62.93C134.984 62.81 134.864 62.6467 134.784 62.44C134.704 62.2333 134.664 62.0033 134.664 61.75V57.22H136.294V61.56C136.294 61.7 136.317 61.81 136.364 61.89C136.417 61.9633 136.507 62 136.634 62C136.707 62 136.784 61.9833 136.864 61.95C136.944 61.91 137.027 61.8667 137.114 61.82V57.22H138.734V63H137.114V62.47C136.907 62.6633 136.687 62.8167 136.454 62.93C136.227 63.0433 135.991 63.1 135.744 63.1ZM139.783 63V57.22H141.413V58.18C141.6 57.8467 141.786 57.5933 141.973 57.42C142.16 57.24 142.386 57.15 142.653 57.15C142.706 57.15 142.753 57.1533 142.793 57.16C142.833 57.16 142.87 57.1667 142.903 57.18V58.8C142.83 58.7667 142.746 58.74 142.653 58.72C142.566 58.6933 142.473 58.68 142.373 58.68C142.186 58.68 142.013 58.73 141.853 58.83C141.693 58.93 141.546 59.0667 141.413 59.24V63H139.783ZM145.371 63.1C144.864 63.1 144.441 62.9867 144.101 62.76C143.768 62.5333 143.494 62.1633 143.281 61.65L144.391 61.16C144.498 61.42 144.621 61.6267 144.761 61.78C144.908 61.9267 145.068 62 145.241 62C145.368 62 145.461 61.9733 145.521 61.92C145.588 61.8667 145.621 61.7933 145.621 61.7C145.621 61.5467 145.561 61.4067 145.441 61.28C145.328 61.1533 145.121 60.9667 144.821 60.72L144.401 60.37C144.094 60.11 143.851 59.86 143.671 59.62C143.498 59.3733 143.411 59.07 143.411 58.71C143.411 58.3967 143.491 58.12 143.651 57.88C143.818 57.64 144.038 57.4533 144.311 57.32C144.584 57.1867 144.878 57.12 145.191 57.12C145.664 57.12 146.061 57.25 146.381 57.51C146.701 57.77 146.924 58.1367 147.051 58.61L146.001 59.09C145.961 58.9633 145.904 58.8367 145.831 58.71C145.758 58.5833 145.668 58.4767 145.561 58.39C145.461 58.3033 145.351 58.26 145.231 58.26C145.124 58.26 145.038 58.29 144.971 58.35C144.911 58.41 144.881 58.49 144.881 58.59C144.881 58.7167 144.951 58.8533 145.091 59C145.238 59.1467 145.438 59.3233 145.691 59.53L146.101 59.89C146.268 60.03 146.431 60.18 146.591 60.34C146.751 60.5 146.881 60.6767 146.981 60.87C147.088 61.0633 147.141 61.2833 147.141 61.53C147.141 61.8633 147.058 62.15 146.891 62.39C146.724 62.6233 146.504 62.8 146.231 62.92C145.964 63.04 145.678 63.1 145.371 63.1ZM149.719 63.1C149.299 63.1 148.939 63.0267 148.639 62.88C148.339 62.7267 148.109 62.5067 147.949 62.22C147.789 61.9267 147.709 61.5767 147.709 61.17V59.05C147.709 58.6367 147.789 58.2867 147.949 58C148.109 57.7133 148.339 57.4967 148.639 57.35C148.946 57.1967 149.306 57.12 149.719 57.12C150.146 57.12 150.499 57.1933 150.779 57.34C151.066 57.4867 151.279 57.7033 151.419 57.99C151.566 58.2767 151.639 58.63 151.639 59.05V60.21H149.319V61.32C149.319 61.4667 149.336 61.5867 149.369 61.68C149.403 61.7733 149.449 61.84 149.509 61.88C149.569 61.92 149.639 61.94 149.719 61.94C149.799 61.94 149.869 61.9233 149.929 61.89C149.996 61.85 150.046 61.79 150.079 61.71C150.119 61.63 150.139 61.52 150.139 61.38V60.77H151.639V61.33C151.639 61.9167 151.469 62.36 151.129 62.66C150.789 62.9533 150.319 63.1 149.719 63.1ZM149.319 59.45H150.139V58.87C150.139 58.7167 150.119 58.5967 150.079 58.51C150.046 58.4233 149.996 58.3633 149.929 58.33C149.869 58.2967 149.796 58.28 149.709 58.28C149.629 58.28 149.559 58.3 149.499 58.34C149.446 58.38 149.403 58.45 149.369 58.55C149.336 58.6433 149.319 58.78 149.319 58.96V59.45ZM154.307 63.1C153.8 63.1 153.377 62.9867 153.037 62.76C152.703 62.5333 152.43 62.1633 152.217 61.65L153.327 61.16C153.433 61.42 153.557 61.6267 153.697 61.78C153.843 61.9267 154.003 62 154.177 62C154.303 62 154.397 61.9733 154.457 61.92C154.523 61.8667 154.557 61.7933 154.557 61.7C154.557 61.5467 154.497 61.4067 154.377 61.28C154.263 61.1533 154.057 60.9667 153.757 60.72L153.337 60.37C153.03 60.11 152.787 59.86 152.607 59.62C152.433 59.3733 152.347 59.07 152.347 58.71C152.347 58.3967 152.427 58.12 152.587 57.88C152.753 57.64 152.973 57.4533 153.247 57.32C153.52 57.1867 153.813 57.12 154.127 57.12C154.6 57.12 154.997 57.25 155.317 57.51C155.637 57.77 155.86 58.1367 155.987 58.61L154.937 59.09C154.897 58.9633 154.84 58.8367 154.767 58.71C154.693 58.5833 154.603 58.4767 154.497 58.39C154.397 58.3033 154.287 58.26 154.167 58.26C154.06 58.26 153.973 58.29 153.907 58.35C153.847 58.41 153.817 58.49 153.817 58.59C153.817 58.7167 153.887 58.8533 154.027 59C154.173 59.1467 154.373 59.3233 154.627 59.53L155.037 59.89C155.203 60.03 155.367 60.18 155.527 60.34C155.687 60.5 155.817 60.6767 155.917 60.87C156.023 61.0633 156.077 61.2833 156.077 61.53C156.077 61.8633 155.993 62.15 155.827 62.39C155.66 62.6233 155.44 62.8 155.167 62.92C154.9 63.04 154.613 63.1 154.307 63.1Z" fill="#012622"/>
<path d="M38.048 64V55.9H39.838V59.18H41.088V55.9H42.888V64H41.088V60.46H39.838V64H38.048ZM45.9315 64.1C45.5182 64.1 45.1582 64.03 44.8515 63.89C44.5515 63.75 44.3182 63.54 44.1515 63.26C43.9915 62.98 43.9115 62.63 43.9115 62.21V60.01C43.9115 59.59 43.9915 59.24 44.1515 58.96C44.3182 58.68 44.5515 58.47 44.8515 58.33C45.1582 58.19 45.5182 58.12 45.9315 58.12C46.3448 58.12 46.7015 58.19 47.0015 58.33C47.3082 58.47 47.5448 58.68 47.7115 58.96C47.8782 59.24 47.9615 59.59 47.9615 60.01V62.21C47.9615 62.63 47.8782 62.98 47.7115 63.26C47.5448 63.54 47.3082 63.75 47.0015 63.89C46.7015 64.03 46.3448 64.1 45.9315 64.1ZM45.9415 63.02C46.0482 63.02 46.1315 62.9933 46.1915 62.94C46.2515 62.88 46.2915 62.8 46.3115 62.7C46.3382 62.5933 46.3515 62.4667 46.3515 62.32V59.9C46.3515 59.7533 46.3382 59.63 46.3115 59.53C46.2915 59.4233 46.2515 59.3433 46.1915 59.29C46.1315 59.23 46.0482 59.2 45.9415 59.2C45.8348 59.2 45.7515 59.23 45.6915 59.29C45.6315 59.3433 45.5882 59.4233 45.5615 59.53C45.5348 59.63 45.5215 59.7533 45.5215 59.9V62.32C45.5215 62.4667 45.5348 62.5933 45.5615 62.7C45.5882 62.8 45.6315 62.88 45.6915 62.94C45.7515 62.9933 45.8348 63.02 45.9415 63.02ZM48.8655 64V58.22H50.4655V58.68C50.6788 58.4733 50.8988 58.3267 51.1255 58.24C51.3588 58.1533 51.5955 58.11 51.8355 58.11C52.0688 58.11 52.2688 58.17 52.4355 58.29C52.6088 58.4033 52.7388 58.5733 52.8255 58.8C53.0521 58.5467 53.2888 58.37 53.5355 58.27C53.7888 58.1633 54.0421 58.11 54.2955 58.11C54.5221 58.11 54.7188 58.1667 54.8855 58.28C55.0521 58.3867 55.1821 58.5467 55.2755 58.76C55.3688 58.9667 55.4155 59.2167 55.4155 59.51V64H53.8155V59.68C53.8155 59.52 53.7855 59.4067 53.7255 59.34C53.6721 59.2667 53.5888 59.23 53.4755 59.23C53.4088 59.23 53.3255 59.25 53.2255 59.29C53.1255 59.3233 53.0288 59.3733 52.9355 59.44C52.9355 59.4533 52.9355 59.4667 52.9355 59.48C52.9355 59.4867 52.9355 59.4967 52.9355 59.51V64H51.3555V59.68C51.3555 59.52 51.3255 59.4067 51.2655 59.34C51.2055 59.2667 51.1188 59.23 51.0055 59.23C50.9321 59.23 50.8455 59.25 50.7455 59.29C50.6521 59.3233 50.5588 59.3733 50.4655 59.44V64H48.8655ZM58.2848 64.1C57.8648 64.1 57.5048 64.0267 57.2048 63.88C56.9048 63.7267 56.6748 63.5067 56.5148 63.22C56.3548 62.9267 56.2748 62.5767 56.2748 62.17V60.05C56.2748 59.6367 56.3548 59.2867 56.5148 59C56.6748 58.7133 56.9048 58.4967 57.2048 58.35C57.5114 58.1967 57.8714 58.12 58.2848 58.12C58.7114 58.12 59.0648 58.1933 59.3448 58.34C59.6314 58.4867 59.8448 58.7033 59.9848 58.99C60.1314 59.2767 60.2048 59.63 60.2048 60.05V61.21H57.8848V62.32C57.8848 62.4667 57.9014 62.5867 57.9348 62.68C57.9681 62.7733 58.0148 62.84 58.0748 62.88C58.1348 62.92 58.2048 62.94 58.2848 62.94C58.3648 62.94 58.4348 62.9233 58.4948 62.89C58.5614 62.85 58.6114 62.79 58.6448 62.71C58.6848 62.63 58.7048 62.52 58.7048 62.38V61.77H60.2048V62.33C60.2048 62.9167 60.0348 63.36 59.6948 63.66C59.3548 63.9533 58.8848 64.1 58.2848 64.1ZM57.8848 60.45H58.7048V59.87C58.7048 59.7167 58.6848 59.5967 58.6448 59.51C58.6114 59.4233 58.5614 59.3633 58.4948 59.33C58.4348 59.2967 58.3614 59.28 58.2748 59.28C58.1948 59.28 58.1248 59.3 58.0648 59.34C58.0114 59.38 57.9681 59.45 57.9348 59.55C57.9014 59.6433 57.8848 59.78 57.8848 59.96V60.45Z" fill="#012622"/>
<path d="M142.5 15.3438H136.625C135.814 15.3438 135.156 16.0013 135.156 16.8125V46.1875C135.156 46.9987 135.814 47.6562 136.625 47.6562H142.5C143.311 47.6562 143.969 46.9987 143.969 46.1875V16.8125C143.969 16.0013 143.311 15.3438 142.5 15.3438Z" fill="#4B674E" stroke="#012622" stroke-width="2" stroke-linecap="round" stroke-linejoin="round"/>
<path d="M135.156 40.3125H143.969" stroke="#012622" stroke-width="2" stroke-linecap="round" stroke-linejoin="round"/>
<path d="M151.227 14.8631L145.529 16.3906C144.742 16.6015 144.275 17.4103 144.486 18.1971L152.123 46.6909C152.334 47.4777 153.143 47.9446 153.93 47.7337L159.629 46.2062C160.415 45.9953 160.882 45.1865 160.671 44.3996L153.034 15.9059C152.823 15.1191 152.014 14.6522 151.227 14.8631Z" fill="#4B674E" stroke="#012622" stroke-width="2.00848" stroke-linecap="round" stroke-linejoin="round"/>
<path d="M150.431 40.9L158.95 38.6051" stroke="#012622" stroke-width="2" stroke-linecap="round" stroke-linejoin="round"/>
<path d="M145.878 23.8625L154.397 21.5859" stroke="#012622" stroke-width="2" stroke-linecap="round" stroke-linejoin="round"/>
<path d="M132.344 15H126.469C125.658 15 125 15.6576 125 16.4688V45.8438C125 46.6549 125.658 47.3125 126.469 47.3125H132.344C133.155 47.3125 133.812 46.6549 133.812 45.8438V16.4688C133.812 15.6576 133.155 15 132.344 15Z" fill="#4B674E" stroke="#012622" stroke-width="2" stroke-linecap="round" stroke-linejoin="round"/>
<path d="M125 23H133.812" stroke="#012622" stroke-width="2" stroke-linecap="round" stroke-linejoin="round"/>
</svg>
