<svg width="40" height="40" viewBox="0 0 40 40" fill="none" xmlns="http://www.w3.org/2000/svg">
<path d="M34.6122 32.1174L34.1585 32.6629C34.1493 32.6725 34.14 32.6822 34.1306 32.6921C34.0812 32.7439 34.0271 32.8006 33.9628 32.8698L33.9595 32.8733C33.5756 33.2898 33.185 33.6838 32.7793 34.053C32.698 34.1263 32.62 34.1926 32.5313 34.2681C32.49 34.3032 32.4464 34.3404 32.3989 34.3811L32.3979 34.382C32.003 34.7223 31.5975 35.0454 31.1815 35.3503L30.8773 35.5642C27.6975 37.8 23.9041 39 20.0157 39C16.1274 39 12.334 37.8 9.15417 35.5642L8.8291 35.3356C8.4216 35.0374 8.0241 34.7186 7.63353 34.382L7.63253 34.3811C7.58013 34.3361 7.5336 34.2967 7.49046 34.2601C7.40479 34.1875 7.33253 34.1263 7.25439 34.055L7.25206 34.0529C6.84755 33.6862 6.45723 33.2913 6.07195 32.8733L6.06867 32.8698C6.00166 32.7978 5.94671 32.7404 5.89745 32.6889C5.89431 32.6856 5.89119 32.6824 5.88809 32.6791L5.41345 32.1139C2.56351 28.7196 1.00103 24.4311 1.00001 20.0009L1.00001 20.0002C0.997335 16.9516 1.72956 13.9472 3.13479 11.241C4.54002 8.53489 6.57693 6.20665 9.07328 4.45331C11.5696 2.69997 14.452 1.57313 17.4765 1.16819C20.501 0.763242 23.5786 1.09211 26.4489 2.12695C29.3193 3.16179 31.8979 4.87213 33.9666 7.11322C36.0354 9.35431 37.5334 12.0602 38.3341 15.002C39.1348 17.9438 39.2146 21.035 38.5668 24.0141C37.919 26.9933 36.5625 29.7727 34.6122 32.1174ZM7.58766 32.7437L7.58167 33.1968L7.91844 33.5C11.2375 36.4885 15.5468 38.1422 20.0143 38.1422C24.4818 38.1422 28.7911 36.4885 32.1102 33.5L32.4469 33.1968L32.4409 32.7437C32.4127 30.605 31.5428 28.5637 30.0199 27.0612C28.497 25.5587 26.4434 24.7159 24.3036 24.7148H24.3031H15.7255H15.725C13.5852 24.7159 11.5316 25.5587 10.0087 27.0612C8.48577 28.5637 7.61593 30.605 7.58766 32.7437ZM24.1436 8.82535C22.9213 8.00927 21.4843 7.57374 20.0143 7.57374C18.0432 7.57374 16.1526 8.35612 14.7586 9.74903C13.3645 11.142 12.5811 13.0314 12.5811 15.0016C12.5811 16.4709 13.0172 17.9071 13.8341 19.1287C14.6509 20.3502 15.8119 21.3021 17.17 21.8642C18.5282 22.4263 20.0226 22.5734 21.4643 22.2868C22.906 22.0003 24.2305 21.293 25.2701 20.2542C26.3097 19.2155 27.0177 17.8919 27.3046 16.4509C27.5915 15.0099 27.4442 13.5162 26.8815 12.1588C26.3188 10.8015 25.366 9.64144 24.1436 8.82535Z" fill="#4B674E" stroke="#012622" stroke-width="2"/>
</svg>
